<svg xmlns="http://www.w3.org/2000/svg">
<defs>
<font id="CandyPop!" horiz-adv-x="326" >
  <font-face 
    font-family="Candy Pop!"
    font-weight="400"
    font-stretch="normal"
    units-per-em="1000"
    panose-1="2 15 5 3 6 0 0 2 0 3"
    ascent="719"
    descent="-281"
    x-height="475"
    cap-height="732"
    bbox="-217 -318 1317 1074"
    underline-thickness="217"
    underline-position="140"
    unicode-range="U+000D-U+F8FF"
  />
<missing-glyph horiz-adv-x="731" 
d="M286 25q-14 0 -20 9.5t-6 20.5v23q0 11 7 19t19 8q11 0 17.5 -6t6.5 -17t-7 -16.5t-17 -5.5h-10q-8 0 -8 -8q0 -6 3.5 -10t7.5 -6.5t7.5 -4t3.5 -2.5q0 -4 -4 -4zM302 82q0 8 -5 12t-12 4q-6 0 -11.5 -4.5t-5.5 -15.5q0 -8 1.5 -9.5t6.5 -1.5q9 0 17.5 2t8.5 13zM243 78
q0 10 -5.5 14.5t-12.5 4.5t-12.5 -4.5t-5.5 -14.5t5.5 -15t12.5 -5t12.5 5t5.5 15zM252 56q0 -3 -4 -3q-3 0 -3.5 1.5t-2.5 1.5q-4 0 -7.5 -2.5t-8.5 -2.5q-11 0 -19 8t-8 19q0 12 7.5 19.5t18.5 7.5q7 0 9.5 -1.5t4.5 -1.5q4 0 4 5v18q0 3 4 3q5 0 5 -3v-69zM522 57
q0 -4 -5 -4q-4 0 -4.5 1.5t-2.5 2.5q-2 0 -7.5 -3.5t-14.5 -3.5q-13 0 -23 9.5t-10 25.5q0 15 9 25t23 10q7 0 13.5 -3t8.5 -3q3 0 3 2t5 2t5 -5v-56zM511 85q0 13 -7 19t-16 6q-8 0 -15.5 -6.5t-7.5 -18.5q0 -13 7 -19t16 -6q8 0 15.5 6t7.5 19zM445 57q0 -4 -4 -4
q-7 0 -7 4v28q0 10 -5.5 17.5t-16.5 7.5t-17 -7.5t-6 -17.5v-28q0 -4 -5 -4q-6 0 -6 4v87q0 5 5 5q6 0 6 -5v-22q0 -6 5 -6q2 0 6 2t12 2q14 0 23.5 -10.5t9.5 -24.5v-28zM651 85q-1 -17 -11 -26t-23 -9t-22.5 9t-9.5 27q0 17 10 25.5t22 8.5q13 0 23.5 -9t10.5 -26zM641 85
q0 12 -7.5 18.5t-15.5 6.5q-9 0 -16 -6.5t-7 -18.5q0 -13 7 -19t16 -6q8 0 15.5 6t7.5 19zM338 162q8 11 24 11q4 0 10.5 -1.5t6.5 -6.5t-3 -5q-2 0 -4.5 1.5t-7.5 1.5q-8 0 -16.5 -5.5t-8.5 -19.5q0 -10 10 -10h15q5 0 5 -4t-5 -4h-15q-9 0 -9 -10v-52q0 -5 -5 -5
q-6 0 -6 4v53q0 6 -3 8t-6 2t-6 0.5t-3 3.5q0 4 3 4.5t6 0.5t6 1.5t3 7.5q0 15 9 24zM543 57q0 -5 -5 -5t-5 5v28q0 13 8 24t25 11q5 0 11 -1.5t6 -6.5q0 -2 -2 -3t-3 -1q-3 0 -5 1t-5 1q-25 0 -25 -25v-28zM667 171v48h35v-7h-28v-14h28v-7h-28v-13h28v-7h-35zM695 155h-21

<glyph glyph-name="perthousand" unicode="&#x30;&#x2f;&#x30;&#x30;" horiz-adv-x="1319" 
d="M308 1q-56 0 -81 21.5t-25 48.5q0 16 9 35t24 39.5t34 42l39 42.5l47.5 53t34.5 47q15 26 23 59t14.5 67t15.5 67t27.5 59t48.5 41.5t79 15.5q30 0 50.5 -7t33 -17.5t17.5 -23t5 -24.5q0 -15 -9 -33.5t-24 -38.5t-34 -41.5l-38 -42.5l-47.5 -53.5t-34.5 -47.5
q-11 -20 -18 -49.5l-14 -59.5q-8 -37 -17.5 -73t-28.5 -64t-50 -45.5t-81 -17.5zM295 35q42 0 69 15t43.5 39.5t25.5 56t16 65t15 65t22 57.5q16 28 46.5 62l61 67.5t53.5 64.5t23 53q0 8 -4 17t-14 16.5t-26.5 12.5t-40.5 5q-42 0 -68.5 -15t-43 -39.5t-25 -56t-16 -64.5
l-15.5 -65t-22 -58q-11 -18 -28.5 -39.5l-38 -44.5l-41.5 -46t-38 -44.5t-28 -40.5t-11 -34q0 -19 20 -34t65 -15zM26 443q0 28 9 60t29.5 59.5t55 45.5t84.5 18q40 0 73.5 -13t58 -36t38 -54.5t13.5 -68.5q0 -33 -11.5 -65.5t-34 -58.5t-57 -42t-80.5 -16q-33 0 -65 12.5
t-57 35t-40.5 54t-15.5 69.5zM36 460q0 -32 12.5 -58.5t34 -46t50 -30.5t58.5 -11q38 0 67 14t48.5 36t29 50t9.5 56q0 31 -11.5 58t-32.5 46.5t-49 30.5t-63 11q-28 0 -51 -7t-40 -19.5t-28.5 -28t-19 -33t-11 -35.5t-3.5 -33zM186 554q10 0 16.5 -2.5t11 -6t7.5 -7.5t6 -7
q3 -5 5 -13l4 -16t3 -16t1 -12q0 -18 -1.5 -35.5t-6.5 -31.5t-14.5 -22.5t-25.5 -8.5q-17 0 -27.5 8.5t-15.5 22t-7 29.5t-2 31q0 14 1.5 29.5t6.5 28.5t14 21t24 8zM202 512q-7 0 -11 -6t-6 -15t-2.5 -20t-0.5 -20q0 -10 1 -21.5t3.5 -21t7.5 -16t13 -6.5t12.5 6.5t7 16.5
t3 23t0.5 25q0 6 -1.5 15.5t-5 18t-9 15t-12.5 6.5zM526 138q0 28 9 60t29.5 59.5t55 45.5t84.5 18q40 0 73.5 -13t58 -36t38 -54.5t13.5 -68.5q0 -33 -11.5 -65.5t-34 -58.5t-57 -42t-80.5 -16q-33 0 -65 12.5t-57 35t-40.5 54t-15.5 69.5zM536 155q0 -32 12.5 -58.5
t34 -46t50 -30.5t58.5 -11q38 0 67 14t48.5 36t29 50t9.5 56q0 31 -11.5 58t-32.5 46.5t-49 30.5t-63 11q-28 0 -51 -7t-40 -19.5t-28.5 -28t-19 -33t-11 -35.5t-3.5 -33zM686 249q10 0 16.5 -2.5t11 -6t7.5 -7.5t6 -7q3 -5 5 -13l4 -16t3 -16t1 -12q0 -18 -1.5 -35.5
t-6.5 -31.5t-14.5 -22.5t-25.5 -8.5q-17 0 -27.5 8.5t-15.5 22t-7 29.5t-2 31q0 14 1.5 29.5t6.5 28.5t14 21t24 8zM702 207q-7 0 -11 -6t-6 -15t-2.5 -20t-0.5 -20q0 -10 1 -21.5t3.5 -21t7.5 -16t13 -6.5t12.5 6.5t7 16.5t3 23t0.5 25q0 6 -1.5 15.5t-5 18t-9 15
t-12.5 6.5zM914 138q0 28 9 60t29.5 59.5t55 45.5t84.5 18q40 0 73.5 -13t58 -36t38 -54.5t13.5 -68.5q0 -33 -11.5 -65.5t-34 -58.5t-57 -42t-80.5 -16q-33 0 -65 12.5t-57 35t-40.5 54t-15.5 69.5zM924 155q0 -32 12.5 -58.5t34 -46t50 -30.5t58.5 -11q38 0 67 14t48.5 36
t29 50t9.5 56q0 31 -11.5 58t-32.5 46.5t-49 30.5t-63 11q-28 0 -51 -7t-40 -19.5t-28.5 -28t-19 -33t-11 -35.5t-3.5 -33zM1074 249q10 0 16.5 -2.5t11 -6t7.5 -7.5t6 -7q3 -5 5 -13l4 -16t3 -16t1 -12q0 -18 -1.5 -35.5t-6.5 -31.5t-14.5 -22.5t-25.5 -8.5
q-17 0 -27.5 8.5t-15.5 22t-7 29.5t-2 31q0 14 1.5 29.5t6.5 28.5t14 21t24 8zM1090 207q-7 0 -11 -6t-6 -15t-2.5 -20t-0.5 -20q0 -10 1 -21.5t3.5 -21t7.5 -16t13 -6.5t12.5 6.5t7 16.5t3 23t0.5 25q0 6 -1.5 15.5t-5 18t-9 15t-12.5 6.5z" />
    <glyph glyph-name="onequarter" unicode="&#x31;&#x2f;&#x34;" horiz-adv-x="833" 
d="M439 121q0 43 18 81.5t48 67t68 45.5t79 17q18 0 35.5 -4t31 -12t21.5 -21t8 -32q0 -17 -5 -31t-10 -26q-4 -8 -6.5 -16l-3.5 -11q5 0 14 3q6 2 11.5 3.5t12.5 1.5q10 0 18.5 -4.5t14 -11t8.5 -14.5t3 -16q0 -9 -4 -15.5t-10 -10.5t-14 -7t-15 -5q-11 -2 -20 -6t-9 -12
q0 -6 5 -11l10 -10q11 -9 20 -20.5t9 -30.5q0 -23 -12.5 -36.5t-30.5 -20.5t-37.5 -9t-32.5 -2q-12 0 -31.5 2t-37.5 9t-31 20.5t-13 36.5q0 20 9 32t21 22q5 4 9.5 8.5t4.5 9.5q0 2 -4 2q-6 0 -16 -4t-21 -9q-15 -7 -30.5 -12.5t-32.5 -5.5q-16 0 -26.5 6t-16 15t-7.5 20.5
t-2 23.5zM449 138q0 -8 1 -15t4 -12.5t8.5 -9t14.5 -3.5q11 0 24 5l26 10.5l25.5 10.5t23.5 5q14 0 21.5 -8t7.5 -20q0 -13 -7 -21.5t-15.5 -15.5t-15 -15t-6.5 -20q0 -14 10 -22.5t23.5 -12.5t29 -5.5t24.5 -1.5q10 0 25 1.5t29 5.5t23.5 12t9.5 22q0 12 -6.5 19.5t-15 15
t-15 16t-6.5 23.5q0 12 5 19.5t13 12.5t17.5 7.5t17.5 5t13.5 5t5.5 7.5t-5 11.5t-14 6.5q-8 0 -17.5 -4t-20.5 -4q-10 0 -18 5t-8 18q0 10 4 20.5t8.5 21t8.5 21.5t4 22q0 13 -6 21t-15.5 13.5t-22.5 8t-26 2.5q-36 0 -69.5 -15t-59.5 -39.5t-42 -58.5t-16 -71zM581 158
q-12 0 -23 7t-11 21q0 7 4 18t10.5 21t15 17.5t17.5 7.5q7 0 12.5 -5t9.5 -12t5.5 -15t1.5 -14q0 -9 -3 -17t-8.5 -14.5t-13.5 -10.5t-17 -4zM596 168q8 0 13 6t5 15q0 4 -1 11.5t-3 7.5q-4 0 -8 -4.5t-7 -10.5t-4.5 -12.5t-1.5 -10.5q0 -1 2.5 -1.5t4.5 -0.5zM244 1
q-56 0 -81 21.5t-25 48.5q0 16 9 35t24 39.5t34 42l39 42.5l47.5 53t34.5 47q15 26 23 59t14.5 67t15.5 67t27.5 59t48.5 41.5t79 15.5q30 0 50.5 -7t33 -17.5t17.5 -23t5 -24.5q0 -15 -9 -33.5t-24 -38.5t-34 -41.5l-38 -42.5l-47.5 -53.5t-34.5 -47.5q-11 -20 -18 -49.5
l-14 -59.5q-8 -37 -17.5 -73t-28.5 -64t-50 -45.5t-81 -17.5zM231 35q42 0 69 15t43.5 39.5t25.5 56t16 65t15 65t22 57.5q16 28 46.5 62l61 67.5t53.5 64.5t23 53q0 8 -4 17t-14 16.5t-26.5 12.5t-40.5 5q-42 0 -68.5 -15t-43 -39.5t-25 -56t-16 -64.5l-15.5 -65t-22 -58
q-11 -18 -28.5 -39.5l-38 -44.5l-41.5 -46t-38 -44.5t-28 -40.5t-11 -34q0 -19 20 -34t65 -15zM25 584q0 16 5.5 24.5t14 13t18 5.5t16.5 1q21 1 42.5 3.5t45.5 2.5q20 0 37.5 -4t29.5 -12.5t19 -21.5t7 -31q0 -11 -2.5 -23l-5 -23.5t-5.5 -20t-5 -9.5q-1 -2 -4 -10
t-5.5 -18.5l-5 -21.5t-2.5 -18q0 -12 5.5 -22.5t15.5 -19.5q9 -11 16 -22t7 -28q0 -24 -13 -38t-31 -22t-37 -10.5t-32 -2.5q-16 0 -36 3.5t-37.5 11.5t-29.5 21t-12 32q0 14 6.5 27t17.5 30q5 9 11.5 19.5t11.5 22.5t8.5 25.5t3.5 28.5q0 14 -3 23.5t-8 16t-11.5 11
t-13.5 8.5q-8 3 -15.5 7t-12.5 9.5t-8 13t-3 18.5zM65 619q-5 0 -10 -1t-9.5 -2.5t-7.5 -5.5t-3 -10q0 -8 5.5 -13t13.5 -9.5t18 -9.5t18.5 -14t14 -23.5t5.5 -36.5q0 -30 -9.5 -53.5t-20.5 -42l-20 -32.5t-9 -26t9 -20t23 -13t29.5 -7t27.5 -2q10 0 24.5 1.5t28.5 6.5
t24 14t10 24q0 13 -7 21.5l-15 18t-15 22t-7 32.5q0 18 5.5 36t12 36l12 34.5t5.5 31.5q0 14 -5 23t-13.5 15t-21 8t-27.5 2q-7 0 -10.5 -0.5t-11 -1l-22 -1.5t-42.5 -2z" />
    <glyph glyph-name="onehalf" unicode="&#x31;&#x2f;&#x32;" horiz-adv-x="820" 
d="M600 211q0 2 -3.5 3.5t-7.5 1.5q-8 0 -19 -4.5t-27 -12.5t-31.5 -14t-30.5 -6q-14 0 -23.5 5.5t-15.5 14t-8.5 18.5t-2.5 20q0 19 8.5 33t22.5 25t31.5 18.5t35.5 11.5t34.5 6.5t28.5 2.5q26 0 53 -8t50 -22t37.5 -33.5t14.5 -42.5q0 -21 -11.5 -38.5t-29.5 -31.5
q9 0 19 -4.5t18.5 -15t13.5 -26t5 -36.5q0 -39 -16.5 -63.5t-43.5 -38.5t-61 -19t-68 -5q-26 0 -51.5 3t-46 14t-33.5 31t-13 54q0 32 11.5 54.5t30 39t41.5 27.5t46 20q3 2 10 5t14.5 5.5t12.5 5zM610 227q0 -12 -13 -20t-32 -16l-41 -17.5t-41 -22.5t-31.5 -33t-12.5 -48
q0 -26 10 -41.5t27 -23.5t38 -10.5t43 -2.5q31 0 60 4t52 15.5t37 31.5t14 51q0 14 -2.5 24.5t-7.5 17t-10.5 10t-10.5 3.5q-7 0 -14 -6.5t-13.5 -16l-14.5 -21t-19 -20.5t-25.5 -15.5t-33.5 -6.5q-24 0 -31.5 10t-7.5 31q0 10 13 19t32.5 18.5l42 20.5t42.5 23.5t33 27
t13 32.5t-12.5 32t-31.5 24.5t-42 16.5t-44 6q-10 0 -24 -1.5t-29 -5t-30 -9t-26.5 -13t-18.5 -18.5t-7 -24q0 -5 1 -11t4 -10.5t8 -7.5t12 -3q11 0 24 6l27.5 12.5l28.5 12.5t26 6q16 0 27 -9.5t11 -21.5zM588 73q13 0 23 5.5t18.5 14t15.5 18.5t15 19q-9 -5 -18 -9l-18 -8
q-17 -9 -27.5 -13.5t-16 -7.5t-7 -4.5t-1.5 -4.5q0 -4 3 -7t13 -3zM193 1q-56 0 -81 21.5t-25 48.5q0 16 9 35t24 39.5t34 42l39 42.5l47.5 53t34.5 47q15 26 23 59t14.5 67t15.5 67t27.5 59t48.5 41.5t79 15.5q30 0 50.5 -7t33 -17.5t17.5 -23t5 -24.5q0 -15 -9 -33.5
t-24 -38.5t-34 -41.5l-38 -42.5l-47.5 -53.5t-34.5 -47.5q-11 -20 -18 -49.5l-14 -59.5q-8 -37 -17.5 -73t-28.5 -64t-50 -45.5t-81 -17.5zM180 35q42 0 69 15t43.5 39.5t25.5 56t16 65t15 65t22 57.5q16 28 46.5 62l61 67.5t53.5 64.5t23 53q0 8 -4 17t-14 16.5t-26.5 12.5
t-40.5 5q-42 0 -68.5 -15t-43 -39.5t-25 -56t-16 -64.5l-15.5 -65t-22 -58q-11 -18 -28.5 -39.5l-38 -44.5l-41.5 -46t-38 -44.5t-28 -40.5t-11 -34q0 -19 20 -34t65 -15zM-25 584q0 16 5.5 24.5t14 13t18 5.5t16.5 1q21 1 42.5 3.5t45.5 2.5q20 0 37.5 -4t29.5 -12.5
t19 -21.5t7 -31q0 -11 -2.5 -23l-5 -23.5t-5.5 -20t-5 -9.5q-1 -2 -4 -10t-5.5 -18.5l-5 -21.5t-2.5 -18q0 -12 5.5 -22.5t15.5 -19.5q9 -11 16 -22t7 -28q0 -24 -13 -38t-31 -22t-37 -10.5t-32 -2.5q-16 0 -36 3.5t-37.5 11.5t-29.5 21t-12 32q0 14 6.5 27t17.5 30
q5 9 11.5 19.5t11.5 22.5t8.5 25.5t3.5 28.5q0 14 -3 23.5t-8 16t-11.5 11t-13.5 8.5q-8 3 -15.5 7t-12.5 9.5t-8 13t-3 18.5zM15 619q-5 0 -10 -1t-9.5 -2.5t-7.5 -5.5t-3 -10q0 -8 5.5 -13t13.5 -9.5t18 -9.5t18.5 -14t14 -23.5t5.5 -36.5q0 -30 -9.5 -53.5t-20.5 -42
l-20 -32.5t-9 -26t9 -20t23 -13t29.5 -7t27.5 -2q10 0 24.5 1.5t28.5 6.5t24 14t10 24q0 13 -7 21.5l-15 18t-15 22t-7 32.5q0 18 5.5 36t12 36l12 34.5t5.5 31.5q0 14 -5 23t-13.5 15t-21 8t-27.5 2q-7 0 -10.5 -0.5t-11 -1l-22 -1.5t-42.5 -2z" />
    <glyph glyph-name="threequarters" unicode="&#x33;&#x2f;&#x34;" horiz-adv-x="945" 
d="M511 121q0 43 18 81.5t48 67t68 45.5t79 17q18 0 35.5 -4t31 -12t21.5 -21t8 -32q0 -17 -5 -31t-10 -26q-4 -8 -6.5 -16l-3.5 -11q5 0 14 3q6 2 11.5 3.5t12.5 1.5q10 0 18.5 -4.5t14 -11t8.5 -14.5t3 -16q0 -9 -4 -15.5t-10 -10.5t-14 -7t-15 -5q-11 -2 -20 -6t-9 -12
q0 -6 5 -11l10 -10q11 -9 20 -20.5t9 -30.5q0 -23 -12.5 -36.5t-30.5 -20.5t-37.5 -9t-32.5 -2q-12 0 -31.5 2t-37.5 9t-31 20.5t-13 36.5q0 20 9 32t21 22q5 4 9.5 8.5t4.5 9.5q0 2 -4 2q-6 0 -16 -4t-21 -9q-15 -7 -30.5 -12.5t-32.5 -5.5q-16 0 -26.5 6t-16 15t-7.5 20.5
t-2 23.5zM521 138q0 -8 1 -15t4 -12.5t8.5 -9t14.5 -3.5q11 0 24 5l26 10.5l25.5 10.5t23.5 5q14 0 21.5 -8t7.5 -20q0 -13 -7 -21.5t-15.5 -15.5t-15 -15t-6.5 -20q0 -14 10 -22.5t23.5 -12.5t29 -5.5t24.5 -1.5q10 0 25 1.5t29 5.5t23.5 12t9.5 22q0 12 -6.5 19.5t-15 15
t-15 16t-6.5 23.5q0 12 5 19.5t13 12.5t17.5 7.5t17.5 5t13.5 5t5.5 7.5t-5 11.5t-14 6.5q-8 0 -17.5 -4t-20.5 -4q-10 0 -18 5t-8 18q0 10 4 20.5t8.5 21t8.5 21.5t4 22q0 13 -6 21t-15.5 13.5t-22.5 8t-26 2.5q-36 0 -69.5 -15t-59.5 -39.5t-42 -58.5t-16 -71zM653 158
q-12 0 -23 7t-11 21q0 7 4 18t10.5 21t15 17.5t17.5 7.5q7 0 12.5 -5t9.5 -12t5.5 -15t1.5 -14q0 -9 -3 -17t-8.5 -14.5t-13.5 -10.5t-17 -4zM668 168q8 0 13 6t5 15q0 4 -1 11.5t-3 7.5q-4 0 -8 -4.5t-7 -10.5t-4.5 -12.5t-1.5 -10.5q0 -1 2.5 -1.5t4.5 -0.5zM300 1
q-56 0 -81 21.5t-25 48.5q0 16 9 35t24 39.5t34 42l39 42.5l47.5 53t34.5 47q15 26 23 59t14.5 67t15.5 67t27.5 59t48.5 41.5t79 15.5q30 0 50.5 -7t33 -17.5t17.5 -23t5 -24.5q0 -15 -9 -33.5t-24 -38.5t-34 -41.5l-38 -42.5l-47.5 -53.5t-34.5 -47.5q-11 -20 -18 -49.5
l-14 -59.5q-8 -37 -17.5 -73t-28.5 -64t-50 -45.5t-81 -17.5zM287 35q42 0 69 15t43.5 39.5t25.5 56t16 65t15 65t22 57.5q16 28 46.5 62l61 67.5t53.5 64.5t23 53q0 8 -4 17t-14 16.5t-26.5 12.5t-40.5 5q-42 0 -68.5 -15t-43 -39.5t-25 -56t-16 -64.5l-15.5 -65t-22 -58
q-11 -18 -28.5 -39.5l-38 -44.5l-41.5 -46t-38 -44.5t-28 -40.5t-11 -34q0 -19 20 -34t65 -15zM94 454q0 20 6 32q-8 -6 -17.5 -10t-20.5 -4q-10 0 -20.5 5t-19 13.5t-14 20t-5.5 22.5q0 19 14 37.5t38 33t56.5 23t69.5 8.5q23 0 49.5 -7.5t50 -21t39 -32.5t15.5 -44
q0 -14 -4 -24.5t-11 -18.5t-15.5 -14t-17.5 -10q10 -6 19.5 -14.5t17.5 -19.5t13 -24.5t5 -30.5q0 -19 -10 -34.5t-25 -27.5t-34 -21.5t-37.5 -15t-35.5 -9t-28 -3.5q-29 0 -60.5 8.5t-57 22.5t-42 33t-16.5 41q0 12 5 23t13.5 19t19.5 13t22 5q16 0 29.5 -8t26 -17
t25 -16.5t26.5 -7.5q5 0 10 2.5t9 5.5t6.5 7t2.5 8l-3 0.5t-7.5 1t-9.5 0.5h-9q-13 0 -25 1.5t-22 6.5t-15.5 14.5t-5.5 27.5zM190 518q0 -10 -6.5 -13.5t-16 -4t-21 -0.5t-21 -2t-16 -8.5t-6.5 -19.5q0 -8 2.5 -12.5t6 -7t8 -3.5t8.5 -1h9h9q7 0 16.5 -1t18 -4t14.5 -9
t6 -14t-4.5 -16.5t-12.5 -16t-17.5 -12t-19.5 -4.5q-17 0 -31 7.5t-27 16.5l-25 17t-24 8q-13 0 -23.5 -10t-10.5 -24q0 -16 15.5 -30.5t39 -25t49.5 -17t47 -6.5q8 0 22.5 2.5t30.5 7t32 11.5t29 16.5t21 21.5t8 26q0 23 -12 38.5t-26.5 25.5t-26.5 16t-12 12q0 4 11 8.5
t24 11t24 17t11 27.5q0 18 -13 33t-32.5 25t-41.5 15.5t-41 5.5q-26 0 -53 -6.5t-49.5 -17t-36 -24.5t-13.5 -28q0 -6 3 -12.5t8 -11.5t10.5 -8t11.5 -3q10 0 20 7.5l20.5 16t22.5 15.5t26 7q8 0 17.5 -3t18 -9t14 -13.5t5.5 -16.5zM124 505q6 2 17.5 4t21.5 2q7 0 12 -2
q-4 4 -11 6.5t-13 2.5t-13 -4t-14 -9z" />
    <glyph glyph-name="exclamdbl" unicode="&#x21;&#x21;" horiz-adv-x="995" 
d="M484 31q0 53 26 96t69 69q-24 23 -43 54t-34 66.5t-26 73.5t-17 75q-7 -37 -18 -75t-26 -73.5t-34.5 -66.5t-43.5 -54q44 -25 70.5 -68.5t26.5 -97.5q0 -30 -9.5 -59t-29.5 -56q-32 -42 -73.5 -59t-82.5 -17q-42 0 -79 15t-64 40.5t-42.5 60.5t-15.5 76q0 53 26 96t69 69
q-33 32 -58 80t-41 101t-24 106t-8 95q0 58 15 97t44.5 62t73.5 32.5t102 9.5q43 0 79 -5.5t64.5 -18.5t48 -35.5t30.5 -56.5q20 66 76.5 91t147.5 25q54 0 97 -8.5t73.5 -31t46.5 -61.5t16 -100q0 -42 -8 -94.5t-24.5 -105.5t-41.5 -101t-59 -81q44 -25 70.5 -68.5
t26.5 -97.5q0 -30 -9.5 -59t-29.5 -56q-32 -42 -73.5 -59t-82.5 -17q-42 0 -79 15t-64 40.5t-42.5 60.5t-15.5 76zM201 241q31 0 56.5 19t45.5 50t34.5 70.5t24.5 80t14.5 78.5t4.5 67q0 46 -12 75.5t-34.5 46.5t-56 23.5t-75.5 6.5q-45 0 -79 -7t-56.5 -24.5t-33.5 -46.5
t-11 -74q0 -29 4.5 -67t14 -78.5t24 -80t34.5 -70.5t45 -50t56 -19zM59 65q0 -29 11.5 -54t31 -43.5t46 -29t57.5 -10.5q29 0 59 12t53 42q28 38 28 83q0 29 -11.5 54t-31 44t-45.5 29.5t-55 10.5t-55 -10.5t-45.5 -29.5t-31 -44t-11.5 -54zM647 241q31 0 56.5 19t45.5 50
t34.5 70.5t24.5 80t14.5 78.5t4.5 67q0 46 -12 75.5t-34.5 46.5t-56 23.5t-75.5 6.5q-45 0 -79 -7t-56.5 -24.5t-33.5 -46.5t-11 -74q0 -29 4.5 -67t14 -78.5t24 -80t34.5 -70.5t45 -50t56 -19zM505 65q0 -29 11.5 -54t31 -43.5t46 -29t57.5 -10.5q29 0 59 12t53 42
q28 38 28 83q0 29 -11.5 54t-31 44t-45.5 29.5t-55 10.5t-55 -10.5t-45.5 -29.5t-31 -44t-11.5 -54z" />
    <glyph glyph-name="ellipsis" unicode="&#x2e;&#x2e;&#x2e;" horiz-adv-x="1016" 
d="M574 -35q-26 -28 -59 -41.5t-68 -13.5q-48 0 -87.5 23.5t-62.5 61.5q-5 -8 -10.5 -15l-11.5 -15q-26 -28 -59 -41.5t-68 -13.5t-66.5 13.5t-55.5 37t-38 55t-14 66.5t14 66t37.5 54.5t55 37.5t66.5 14q48 0 87 -24.5t62 -62.5q23 38 62.5 62.5t87.5 24.5t87 -24.5
t62 -62.5q23 38 62.5 62.5t87.5 24.5q36 0 67.5 -14t55 -37.5t37 -54.5t13.5 -66q0 -32 -11 -62.5t-34 -54.5q-26 -28 -59 -41.5t-68 -13.5q-48 0 -87.5 23.5t-62.5 61.5q-5 -8 -10.5 -15zM208 29q16 17 24 38.5t8 44.5q0 25 -9.5 47t-26.5 38.5t-39.5 26.5t-47.5 10
t-47.5 -10t-39 -26.5t-26.5 -38.5t-10 -47t10 -47.5t27 -39t39.5 -26t47.5 -9.5t48.5 9.5t41.5 29.5zM507 29q16 17 24 38.5t8 44.5q0 25 -9.5 47t-26.5 38.5t-39.5 26.5t-47.5 10t-47.5 -10t-39 -26.5t-26.5 -38.5t-10 -47t10 -47.5t27 -39t39.5 -26t47.5 -9.5t48.5 9.5
t41.5 29.5zM806 29q16 17 24 38.5t8 44.5q0 25 -9.5 47t-26.5 38.5t-39.5 26.5t-47.5 10t-47.5 -10t-39 -26.5t-26.5 -38.5t-10 -47t10 -47.5t27 -39t39.5 -26t47.5 -9.5t48.5 9.5t41.5 29.5z" />
    <glyph glyph-name="bitcoin" unicode="b&#x23;" horiz-adv-x="817" 
d="M222 903q24 0 48.5 -8t41.5 -25q18 12 39.5 17.5t41.5 5.5q21 0 42.5 -6t39 -19t28 -34t10.5 -51q0 -20 -5 -39t-14 -47q49 -12 92.5 -30.5t76.5 -44.5t52.5 -61t19.5 -80q0 -38 -18.5 -61.5t-40 -39.5t-40 -28t-18.5 -26q0 -17 21.5 -29l47.5 -27.5t47.5 -38t21.5 -61.5
q0 -48 -21.5 -84.5t-57.5 -64t-83.5 -46.5t-99.5 -31l13.5 -47t5.5 -36q0 -33 -13 -54t-32 -34t-40 -18t-37 -5q-17 0 -39.5 6t-42.5 20q-20 -18 -45 -25.5t-44 -7.5q-16 0 -37 5t-40 18t-32 34t-13 54q0 15 2.5 28t6.5 27q-47 4 -75.5 27t-28.5 76q0 37 17.5 71t38.5 70
t38.5 76.5t17.5 90.5q0 30 -6 56.5t-15.5 49.5t-21 43l-21.5 38q-19 32 -33 60.5t-14 60.5q0 30 9 49.5t23.5 30.5t33 16t38.5 7q-4 14 -7 29t-3 32q0 30 11.5 51.5t29.5 34.5t40 19t43 6zM188 882q-12 0 -24 -3t-22 -9.5t-16.5 -17.5t-6.5 -26q0 -12 3.5 -26t8 -28.5
l9 -29.5t5.5 -30q-25 0 -47 -1t-38 -5.5t-25.5 -15t-9.5 -28.5q0 -26 17.5 -55l38 -65.5t38 -82t17.5 -105.5t-17.5 -105.5t-38.5 -81.5l-38.5 -65t-17.5 -56q0 -30 24 -40t62 -10h15q9 0 19 1q-3 -29 -14 -57.5t-11 -51.5q0 -17 7 -27.5t17.5 -17t22 -9t20.5 -2.5t20.5 2.5
t22 9t17.5 17t7 27.5q0 12 -3.5 25.5t-8 28t-8.5 29.5t-5 29l88 8q-1 -15 -5.5 -30l-9 -29.5t-8 -28t-3.5 -25.5q0 -17 7 -27.5t17.5 -17t22 -9t20.5 -2.5t20.5 2.5t22 9t17.5 17t7 27.5q0 13 -4 27.5l-8.5 30.5t-8.5 32t-4 31v5q51 9 99.5 24t86 37t60 52t22.5 70
q0 33 -21.5 50.5t-47.5 30.5t-47.5 29t-21.5 46q0 18 8.5 30t21.5 21.5t28.5 17.5t28.5 19t21.5 27t8.5 40q0 38 -20.5 66.5t-55 49.5t-79 35t-92.5 23q0 18 4 35t8.5 33.5l8.5 31.5t4 28q0 30 -21 42.5t-44 12.5q-12 0 -24 -3t-22 -9.5t-16.5 -17.5t-6.5 -26q0 -12 3.5 -26
t8 -28.5l9 -30t5.5 -30.5q-23 3 -45.5 4.5t-42.5 3.5q0 15 4 30.5t8.5 30.5l8.5 29.5t4 27.5q0 30 -21 42.5t-44 12.5zM346 319q16 0 33 -5.5t31 -15.5t23 -23t9 -29q0 -18 -10.5 -31.5t-26 -22.5t-33 -13.5t-30.5 -4.5q-30 0 -48.5 21t-18.5 51q0 31 19.5 52t51.5 21z
M343 540q15 0 29.5 -5t26 -14.5t18.5 -22.5t7 -29q0 -21 -11.5 -32.5t-28 -17t-35.5 -7t-34 -1.5q-21 0 -33 15.5t-12 38.5q0 29 19.5 52t53.5 23zM380 230q-8 0 -12 -5t-4 -13q0 -7 3.5 -12t8.5 -5q12 0 28.5 4.5t16.5 12.5t-13.5 13t-27.5 5zM377 451q-8 0 -13 -6t-5 -13
q14 0 29 0.5t15 2.5q0 8 -8 12t-18 4z" />
    <glyph glyph-name="apple" unicode="a&#x23;" horiz-adv-x="932" 
d="M419 -52q-17 0 -33 2t-31 5q-7 -27 -21.5 -56t-30.5 -53t-31 -40t-22 -17q-25 0 -45 10.5t-40 29.5q-17 -3 -29 -3q-25 0 -40.5 7.5t-24.5 19.5t-13.5 26.5t-6.5 29.5q-26 11 -36 20.5t-10 36.5q0 40 18 64t45.5 36.5t60.5 17.5t62 8q-24 49 -24 112q0 70 28.5 136
t76.5 117t112 82t136 31q21 0 44 -3q3 26 7.5 61t15.5 66.5t31.5 53t53.5 21.5q29 0 42 -12.5t21 -29.5q13 5 24 5q30 0 49 -26.5t27 -59.5l29.5 -11t23.5 -12t15 -18.5t5 -30.5q0 -29 -13 -52t-34.5 -39.5t-51 -27.5t-62.5 -17q14 -28 22 -59.5t8 -65.5q0 -70 -31.5 -136
t-82 -117t-114.5 -81.5t-130 -30.5zM386 39q55 0 109.5 26t97.5 69.5t69.5 99t26.5 115.5q0 42 -14.5 79t-41 64.5t-62.5 43t-79 15.5q-56 0 -110.5 -26.5t-97 -70t-69 -99.5t-26.5 -115q0 -43 15.5 -80t42 -64t62.5 -42t77 -15zM583 568q23 -9 43 -21.5t38 -26.5q29 1 57 7
t49.5 16.5t35 26.5t13.5 38q0 5 -6.5 8.5t-15.5 7t-19 8t-17 10.5q-6 6 -9 17l-6 22.5t-8 19.5t-16 8q-9 0 -17.5 -4t-19.5 -4q-13 0 -19 7.5t-9.5 16t-7 16t-11.5 7.5q-17 0 -27.5 -23t-16.5 -53.5t-8.5 -60.5t-2.5 -43zM271 16q-14 6 -23.5 12.5t-17.5 13t-16 14.5l-18 18
q-16 0 -44.5 -2t-56.5 -9.5t-48.5 -22t-20.5 -40.5q0 -8 4.5 -11t11 -4.5t13 -3.5t10.5 -8q3 -5 4.5 -15t4.5 -19.5t9 -16.5t19 -7q10 0 22 2.5t23 2.5q10 0 17.5 -6.5t14 -14.5t14 -14.5t18.5 -6.5q4 0 14 14.5t20.5 35t18 44.5t7.5 44zM332 118q0 25 19 44t45 19
q25 0 44 -17.5t19 -44.5q0 -26 -17.5 -46t-46.5 -20q-25 0 -44 19t-19 46zM254 373q0 24 17.5 42.5t43.5 18.5q27 0 43.5 -19t16.5 -42q0 -27 -18.5 -43.5t-41.5 -16.5q-28 0 -44.5 18.5t-16.5 41.5zM607 439q22 0 39.5 -15.5t17.5 -41.5q0 -23 -15.5 -41t-41.5 -18
q-23 0 -41 16.5t-18 42.5q0 23 17 40t42 17zM381 288q0 23 17 40t41 17q25 0 41 -17.5t16 -40.5q0 -25 -17 -40.5t-40 -15.5q-26 0 -42 17.5t-16 39.5zM268 268q19 0 35 -14t16 -37q0 -22 -14.5 -38t-37.5 -16q-20 0 -36.5 14.5t-16.5 37.5q0 22 15.5 37.5t38.5 15.5z
M516 215q0 20 14.5 36.5t37.5 16.5t37.5 -16.5t14.5 -37.5q0 -23 -16 -37t-36 -14q-23 0 -37.5 16t-14.5 36zM406 483q0 17 13.5 32t34.5 15q19 0 33.5 -13.5t14.5 -33.5q0 -19 -13 -34t-35 -15q-19 0 -33.5 14.5t-14.5 34.5z" />
    <glyph glyph-name="asterism" unicode="&#x2a;&#x2a;&#x2a;" horiz-adv-x="849" 
d="M391.79 633.391q0 -18.2373 -6.31152 -28.7588q-6.3125 -10.5205 -16.832 -16.1318q10.5195 -5.61133 16.832 -16.1328q6.31152 -10.5215 6.31152 -28.7578q0 -14.7305 -7.01367 -29.46q-7.0127 -14.7295 -18.584 -26.3027t-25.5967 -18.5879
q-14.0264 -7.01465 -28.7539 -7.01465q-9.11621 0 -12.623 1.40332q-9.81836 -21.7441 -29.1035 -35.7725t-40.3242 -14.0283q-24.5459 0 -42.4287 14.3789q-17.8828 14.3799 -26.2979 35.4219q-3.50684 -1.40332 -6.3125 -1.40332h-6.31152q-16.1299 0 -30.8564 7.36523
q-14.7275 7.36523 -25.9482 18.9385t-17.5322 26.3027t-6.31152 28.7588q0 18.2363 5.96094 28.4072q5.96094 10.1699 15.7793 15.7812q-9.81836 5.61133 -15.7793 16.1328t-5.96094 28.7578q0 14.7295 6.31152 29.1094q6.31152 14.3789 17.1816 25.9521t24.8965 18.9385
q14.0254 7.36426 30.1553 7.36426q3.50684 0 6.66211 -0.350586q3.15625 -0.350586 6.66211 -1.05176q9.11719 21.042 27.7012 36.123q18.585 15.0801 42.4287 15.0801q21.7402 0 41.376 -14.7295q19.6367 -14.7295 29.4541 -36.4736q7.01367 1.40234 11.9219 1.40234
q14.7275 0 29.1045 -7.01367q14.376 -7.01465 25.2461 -18.2373t17.8828 -25.9521q7.01367 -14.7295 7.01367 -29.459zM250.83 610.945q0 9.11816 5.96094 13.6768q5.96094 4.55957 15.0771 7.01465q9.11719 2.45508 19.9873 3.50684t19.9863 3.15625
q9.11719 2.10449 15.0781 5.96191q5.96094 3.8584 5.96094 11.5742q0 8.41602 -3.85742 16.1318q-3.85645 7.71582 -9.81738 14.0283t-13.6758 10.1709q-7.71387 3.85742 -15.4287 3.85742q-9.11621 0 -16.4795 -8.06641q-7.36426 -8.06543 -13.6758 -18.2363
t-11.9219 -18.2373t-10.5195 -8.06641q-2.80469 0 -5.61035 4.20898q-2.80469 4.20898 -2.80469 9.11816q0 4.91016 3.15527 10.1709q3.15625 5.26074 6.66211 10.1699q3.50684 4.91016 6.66309 10.5215q3.15527 5.61133 3.15527 11.9238q0 18.2373 -12.9736 32.2656
q-12.9746 14.0283 -28.4023 14.0283q-16.8311 0 -28.4023 -15.0801q-11.5713 -15.0811 -11.5713 -32.6162q0 -9.82031 6.66211 -17.8857q6.66211 -8.06641 6.66211 -16.4834q0 -5.61133 -2.4541 -9.11914q-2.45508 -3.50684 -5.25977 -3.50684q-4.20801 0 -9.46777 7.01465
l-11.2207 15.4307t-12.9736 15.4316q-7.01367 7.01367 -15.4287 7.01367q-8.41602 0 -16.1299 -3.85742q-7.71387 -3.8584 -13.3242 -10.1709t-9.11719 -14.3789t-3.50684 -16.4834q0 -11.9238 12.9746 -15.0801q12.9736 -3.15625 28.4023 -5.26074t28.4023 -6.3125
q12.9736 -4.20898 12.9736 -17.5352q0 -13.3271 -12.9736 -17.8867q-12.9736 -4.55859 -28.4023 -6.66309t-28.4023 -5.61133q-12.9746 -3.50684 -12.9746 -14.7295q0 -16.1328 12.9746 -30.5117q12.9736 -14.3789 31.207 -14.3789q9.81836 0 18.585 9.46875
q8.76562 9.46875 16.8311 20.3408q8.06445 10.8721 14.376 20.3408q6.31152 9.46973 10.5195 9.46973q1.40234 0 3.85742 -3.50684q2.4541 -3.50781 2.4541 -9.11914q0 -6.3125 -3.85742 -11.5732q-3.85645 -5.26074 -8.41504 -10.5215t-8.41602 -10.8721
q-3.85645 -5.61133 -3.85645 -12.625q0 -18.2363 10.5195 -34.0186q10.5186 -15.7822 28.7529 -15.7822q16.1299 0 28.7529 15.0811q12.623 15.0801 12.623 34.0186q0 6.3125 -3.50684 12.2744q-3.50586 5.96191 -7.71387 11.5732t-7.71387 11.2227
q-3.50684 5.61133 -3.50684 11.2227q0 4.91016 3.15625 9.82031q3.15527 4.91016 5.96094 4.91016q4.90918 0 10.5195 -9.82031l12.2725 -21.3936t14.0254 -21.042q7.36426 -9.46875 17.1816 -9.46875q7.71484 0 15.4287 3.85742t14.0264 10.1699
q6.31152 6.31348 10.168 14.3799q3.85742 8.06543 3.85742 16.4834q0 7.71484 -5.96094 11.9238q-5.96094 4.20801 -15.0781 6.3125q-9.11621 2.10449 -19.9863 3.15625q-10.8701 1.05273 -19.9873 3.15625q-9.11621 2.10449 -15.0771 6.66406
q-5.96094 4.55859 -5.96094 13.6777zM391.79 195.391q0 -18.2373 -6.31152 -28.7588q-6.3125 -10.5205 -16.832 -16.1318q10.5195 -5.61133 16.832 -16.1328q6.31152 -10.5215 6.31152 -28.7578q0 -14.7305 -7.01367 -29.46q-7.0127 -14.7295 -18.584 -26.3027
t-25.5967 -18.5879q-14.0264 -7.01465 -28.7539 -7.01465q-9.11621 0 -12.623 1.40332q-9.81836 -21.7441 -29.1035 -35.7725t-40.3242 -14.0283q-24.5459 0 -42.4287 14.3789q-17.8828 14.3799 -26.2979 35.4219q-3.50684 -1.40332 -6.3125 -1.40332h-6.31152
q-16.1299 0 -30.8564 7.36523q-14.7275 7.36523 -25.9482 18.9385t-17.5322 26.3027t-6.31152 28.7588q0 18.2363 5.96094 28.4072q5.96094 10.1699 15.7793 15.7812q-9.81836 5.61133 -15.7793 16.1328t-5.96094 28.7578q0 14.7295 6.31152 29.1094
q6.31152 14.3789 17.1816 25.9521t24.8965 18.9385q14.0254 7.36426 30.1553 7.36426q3.50684 0 6.66211 -0.350586q3.15625 -0.350586 6.66211 -1.05176q9.11719 21.042 27.7012 36.123q18.585 15.0801 42.4287 15.0801q21.7402 0 41.376 -14.7295
q19.6367 -14.7295 29.4541 -36.4736q7.01367 1.40234 11.9219 1.40234q14.7275 0 29.1045 -7.01367q14.376 -7.01465 25.2461 -18.2373t17.8828 -25.9521q7.01367 -14.7295 7.01367 -29.459zM250.83 172.945q0 9.11816 5.96094 13.6768q5.96094 4.55957 15.0771 7.01465
q9.11719 2.45508 19.9873 3.50684t19.9863 3.15625q9.11719 2.10449 15.0781 5.96191q5.96094 3.8584 5.96094 11.5742q0 8.41602 -3.85742 16.1318q-3.85645 7.71582 -9.81738 14.0283t-13.6758 10.1709q-7.71387 3.85742 -15.4287 3.85742q-9.11621 0 -16.4795 -8.06641
q-7.36426 -8.06543 -13.6758 -18.2363t-11.9219 -18.2373t-10.5195 -8.06641q-2.80469 0 -5.61035 4.20898q-2.80469 4.20898 -2.80469 9.11816q0 4.91016 3.15527 10.1709q3.15625 5.26074 6.66211 10.1699q3.50684 4.91016 6.66309 10.5215
q3.15527 5.61133 3.15527 11.9238q0 18.2373 -12.9736 32.2656q-12.9746 14.0283 -28.4023 14.0283q-16.8311 0 -28.4023 -15.0801q-11.5713 -15.0811 -11.5713 -32.6162q0 -9.82031 6.66211 -17.8857q6.66211 -8.06641 6.66211 -16.4834q0 -5.61133 -2.4541 -9.11914
q-2.45508 -3.50684 -5.25977 -3.50684q-4.20801 0 -9.46777 7.01465l-11.2207 15.4307t-12.9736 15.4316q-7.01367 7.01367 -15.4287 7.01367q-8.41602 0 -16.1299 -3.85742q-7.71387 -3.8584 -13.3242 -10.1709t-9.11719 -14.3789t-3.50684 -16.4834
q0 -11.9238 12.9746 -15.0801q12.9736 -3.15625 28.4023 -5.26074t28.4023 -6.3125q12.9736 -4.20898 12.9736 -17.5352q0 -13.3271 -12.9736 -17.8867q-12.9736 -4.55859 -28.4023 -6.66309t-28.4023 -5.61133q-12.9746 -3.50684 -12.9746 -14.7295
q0 -16.1328 12.9746 -30.5117q12.9736 -14.3789 31.207 -14.3789q9.81836 0 18.585 9.46875q8.76562 9.46875 16.8311 20.3408q8.06445 10.8721 14.376 20.3408q6.31152 9.46973 10.5195 9.46973q1.40234 0 3.85742 -3.50684q2.4541 -3.50781 2.4541 -9.11914
q0 -6.3125 -3.85742 -11.5732q-3.85645 -5.26074 -8.41504 -10.5215t-8.41602 -10.8721q-3.85645 -5.61133 -3.85645 -12.625q0 -18.2363 10.5195 -34.0186q10.5186 -15.7822 28.7529 -15.7822q16.1299 0 28.7529 15.0811q12.623 15.0801 12.623 34.0186
q0 6.3125 -3.50684 12.2744q-3.50586 5.96191 -7.71387 11.5732t-7.71387 11.2227q-3.50684 5.61133 -3.50684 11.2227q0 4.91016 3.15625 9.82031q3.15527 4.91016 5.96094 4.91016q4.90918 0 10.5195 -9.82031l12.2725 -21.3936t14.0254 -21.042
q7.36426 -9.46875 17.1816 -9.46875q7.71484 0 15.4287 3.85742t14.0264 10.1699q6.31152 6.31348 10.168 14.3799q3.85742 8.06543 3.85742 16.4834q0 7.71484 -5.96094 11.9238q-5.96094 4.20801 -15.0781 6.3125q-9.11621 2.10449 -19.9863 3.15625
q-10.8701 1.05273 -19.9873 3.15625q-9.11621 2.10449 -15.0771 6.66406q-5.96094 4.55859 -5.96094 13.6777zM730.79 403.391q0 -18.2373 -6.31152 -28.7588q-6.3125 -10.5205 -16.832 -16.1318q10.5195 -5.61133 16.832 -16.1328q6.31152 -10.5215 6.31152 -28.7578
q0 -14.7305 -7.01367 -29.46q-7.0127 -14.7295 -18.584 -26.3027t-25.5967 -18.5879q-14.0264 -7.01465 -28.7539 -7.01465q-9.11621 0 -12.623 1.40332q-9.81836 -21.7441 -29.1035 -35.7725t-40.3242 -14.0283q-24.5459 0 -42.4287 14.3789
q-17.8828 14.3799 -26.2979 35.4219q-3.50684 -1.40332 -6.3125 -1.40332h-6.31152q-16.1299 0 -30.8564 7.36523q-14.7275 7.36523 -25.9482 18.9385t-17.5322 26.3027t-6.31152 28.7588q0 18.2363 5.96094 28.4072q5.96094 10.1699 15.7793 15.7812
q-9.81836 5.61133 -15.7793 16.1328t-5.96094 28.7578q0 14.7295 6.31152 29.1094q6.31152 14.3789 17.1816 25.9521t24.8965 18.9385q14.0254 7.36426 30.1553 7.36426q3.50684 0 6.66211 -0.350586q3.15625 -0.350586 6.66211 -1.05176q9.11719 21.042 27.7012 36.123
q18.585 15.0801 42.4287 15.0801q21.7402 0 41.376 -14.7295q19.6367 -14.7295 29.4541 -36.4736q7.01367 1.40234 11.9219 1.40234q14.7275 0 29.1045 -7.01367q14.376 -7.01465 25.2461 -18.2373t17.8828 -25.9521q7.01367 -14.7295 7.01367 -29.459zM589.83 380.945
q0 9.11816 5.96094 13.6768q5.96094 4.55957 15.0771 7.01465q9.11719 2.45508 19.9873 3.50684t19.9863 3.15625q9.11719 2.10449 15.0781 5.96191q5.96094 3.8584 5.96094 11.5742q0 8.41602 -3.85742 16.1318q-3.85645 7.71582 -9.81738 14.0283t-13.6758 10.1709
q-7.71387 3.85742 -15.4287 3.85742q-9.11621 0 -16.4795 -8.06641q-7.36426 -8.06543 -13.6758 -18.2363t-11.9219 -18.2373t-10.5195 -8.06641q-2.80469 0 -5.61035 4.20898q-2.80469 4.20898 -2.80469 9.11816q0 4.91016 3.15527 10.1709
q3.15625 5.26074 6.66211 10.1699q3.50684 4.91016 6.66309 10.5215q3.15527 5.61133 3.15527 11.9238q0 18.2373 -12.9736 32.2656q-12.9746 14.0283 -28.4023 14.0283q-16.8311 0 -28.4023 -15.0801q-11.5713 -15.0811 -11.5713 -32.6162q0 -9.82031 6.66211 -17.8857
q6.66211 -8.06641 6.66211 -16.4834q0 -5.61133 -2.4541 -9.11914q-2.45508 -3.50684 -5.25977 -3.50684q-4.20801 0 -9.46777 7.01465l-11.2207 15.4307t-12.9736 15.4316q-7.01367 7.01367 -15.4287 7.01367q-8.41602 0 -16.1299 -3.85742
q-7.71387 -3.8584 -13.3242 -10.1709t-9.11719 -14.3789t-3.50684 -16.4834q0 -11.9238 12.9746 -15.0801q12.9736 -3.15625 28.4023 -5.26074t28.4023 -6.3125q12.9736 -4.20898 12.9736 -17.5352q0 -13.3271 -12.9736 -17.8867q-12.9736 -4.55859 -28.4023 -6.66309
t-28.4023 -5.61133q-12.9746 -3.50684 -12.9746 -14.7295q0 -16.1328 12.9746 -30.5117q12.9736 -14.3789 31.207 -14.3789q9.81836 0 18.585 9.46875q8.76562 9.46875 16.8311 20.3408q8.06445 10.8721 14.376 20.3408q6.31152 9.46973 10.5195 9.46973
q1.40234 0 3.85742 -3.50684q2.4541 -3.50781 2.4541 -9.11914q0 -6.3125 -3.85742 -11.5732q-3.85645 -5.26074 -8.41504 -10.5215t-8.41602 -10.8721q-3.85645 -5.61133 -3.85645 -12.625q0 -18.2363 10.5195 -34.0186q10.5186 -15.7822 28.7529 -15.7822
q16.1299 0 28.7529 15.0811q12.623 15.0801 12.623 34.0186q0 6.3125 -3.50684 12.2744q-3.50586 5.96191 -7.71387 11.5732t-7.71387 11.2227q-3.50684 5.61133 -3.50684 11.2227q0 4.91016 3.15625 9.82031q3.15527 4.91016 5.96094 4.91016q4.90918 0 10.5195 -9.82031
l12.2725 -21.3936t14.0254 -21.042q7.36426 -9.46875 17.1816 -9.46875q7.71484 0 15.4287 3.85742t14.0264 10.1699q6.31152 6.31348 10.168 14.3799q3.85742 8.06543 3.85742 16.4834q0 7.71484 -5.96094 11.9238q-5.96094 4.20801 -15.0781 6.3125
q-9.11621 2.10449 -19.9863 3.15625q-10.8701 1.05273 -19.9873 3.15625q-9.11621 2.10449 -15.0771 6.66406q-5.96094 4.55859 -5.96094 13.6777z" />
    <glyph glyph-name="interrobang" unicode="&#x3f;&#x21;" horiz-adv-x="668" 
d="M486 -1q0 -40 -15.5 -74t-42 -58.5t-61.5 -38t-73 -13.5q-39 0 -74 13.5t-61.5 38.5t-42 58.5t-15.5 74.5q0 49 22.5 87.5t59.5 62.5q-23 20 -34.5 47t-11.5 56q0 33 10.5 60t28.5 51.5t41 48l47 50.5q-29 -17 -48 -31l-48.5 -37t-59.5 -43t-59 -20q-27 0 -42.5 11.5
t-24 27.5t-10.5 32.5t-2 25.5q0 35 14 68.5t37.5 63t52.5 53t59 39.5q-2 14 -2 28v44q0 30 11.5 62t34.5 51t58 26.5t82 7.5q44 0 78 -7t57.5 -25.5t36 -50.5t12.5 -83q0 -14 -1 -28.5t-3 -31.5q56 -29 93 -75t37 -113q0 -43 -19.5 -87.5t-51.5 -85t-73 -75t-84 -57.5
q38 -24 62.5 -63.5t24.5 -90.5zM285 494q0 -25 -20 -48.5t-43.5 -48t-43.5 -51.5t-20 -59q0 -30 21 -54.5t66 -24.5q44 0 95.5 26t95.5 67t73 91.5t29 99.5q0 29 -11 53t-30 43.5t-43.5 34t-52.5 25.5q6 26 8.5 50t2.5 42q0 34 -8.5 55.5t-25 34t-40.5 17t-55 4.5
q-66 0 -98.5 -23t-32.5 -64t2 -63.5t7 -46.5q-26 -10 -55.5 -28.5t-55 -43.5t-42.5 -55.5t-17 -63.5q0 -4 0.5 -11t3 -14t7.5 -12t13 -5q17 0 43.5 19.5l56.5 43.5t61 43.5t56 19.5q23 0 38 -16t15 -37zM397 33q0 28 -11.5 52t-30.5 41t-44 26.5t-52 9.5t-52 -9.5t-44 -26.5
t-30 -40.5t-11 -51.5q0 -29 11 -52.5t30 -41t44 -27t53 -9.5q27 0 52 9.5t44 27t30 41t11 51.5z" />
    <glyph glyph-name=".notdef" horiz-adv-x="731" 
d="M286 25q-14 0 -20 9.5t-6 20.5v23q0 11 7 19t19 8q11 0 17.5 -6t6.5 -17t-7 -16.5t-17 -5.5h-10q-8 0 -8 -8q0 -6 3.5 -10t7.5 -6.5t7.5 -4t3.5 -2.5q0 -4 -4 -4zM302 82q0 8 -5 12t-12 4q-6 0 -11.5 -4.5t-5.5 -15.5q0 -8 1.5 -9.5t6.5 -1.5q9 0 17.5 2t8.5 13zM243 78
q0 10 -5.5 14.5t-12.5 4.5t-12.5 -4.5t-5.5 -14.5t5.5 -15t12.5 -5t12.5 5t5.5 15zM252 56q0 -3 -4 -3q-3 0 -3.5 1.5t-2.5 1.5q-4 0 -7.5 -2.5t-8.5 -2.5q-11 0 -19 8t-8 19q0 12 7.5 19.5t18.5 7.5q7 0 9.5 -1.5t4.5 -1.5q4 0 4 5v18q0 3 4 3q5 0 5 -3v-69zM522 57
q0 -4 -5 -4q-4 0 -4.5 1.5t-2.5 2.5q-2 0 -7.5 -3.5t-14.5 -3.5q-13 0 -23 9.5t-10 25.5q0 15 9 25t23 10q7 0 13.5 -3t8.5 -3q3 0 3 2t5 2t5 -5v-56zM511 85q0 13 -7 19t-16 6q-8 0 -15.5 -6.5t-7.5 -18.5q0 -13 7 -19t16 -6q8 0 15.5 6t7.5 19zM445 57q0 -4 -4 -4
q-7 0 -7 4v28q0 10 -5.5 17.5t-16.5 7.5t-17 -7.5t-6 -17.5v-28q0 -4 -5 -4q-6 0 -6 4v87q0 5 5 5q6 0 6 -5v-22q0 -6 5 -6q2 0 6 2t12 2q14 0 23.5 -10.5t9.5 -24.5v-28zM651 85q-1 -17 -11 -26t-23 -9t-22.5 9t-9.5 27q0 17 10 25.5t22 8.5q13 0 23.5 -9t10.5 -26zM641 85
q0 12 -7.5 18.5t-15.5 6.5q-9 0 -16 -6.5t-7 -18.5q0 -13 7 -19t16 -6q8 0 15.5 6t7.5 19zM338 162q8 11 24 11q4 0 10.5 -1.5t6.5 -6.5t-3 -5q-2 0 -4.5 1.5t-7.5 1.5q-8 0 -16.5 -5.5t-8.5 -19.5q0 -10 10 -10h15q5 0 5 -4t-5 -4h-15q-9 0 -9 -10v-52q0 -5 -5 -5
q-6 0 -6 4v53q0 6 -3 8t-6 2t-6 0.5t-3 3.5q0 4 3 4.5t6 0.5t6 1.5t3 7.5q0 15 9 24zM543 57q0 -5 -5 -5t-5 5v28q0 13 8 24t25 11q5 0 11 -1.5t6 -6.5q0 -2 -2 -3t-3 -1q-3 0 -5 1t-5 1q-25 0 -25 -25v-28zM667 171v48h35v-7h-28v-14h28v-7h-28v-13h28v-7h-35zM695 155h-21
v-13h21v13zM667 162h35v-27h-35v27zM674 126v-21h21v21h7v-28h-35v28h7zM681 83v7h7v-7h-7zM0 187h187v-187zM360 522v69h-69v-69h69zM187 187v463h276v-187h187v-276h-463z" />
    <glyph glyph-name=".null" horiz-adv-x="0" 
 />
    <glyph glyph-name=".null" horiz-adv-x="0" 
 />
    <glyph glyph-name="nonmarkingreturn" unicode="&#xd;" 
 />
    <glyph glyph-name="space" unicode=" " 
 />
    <glyph glyph-name="numbersign" unicode="#" horiz-adv-x="1098" 
d="M506 0q-20 0 -38.5 2.5t-35.5 6.5q-8 -33 -25 -66.5t-36 -61t-36 -46t-25 -20.5q-29 0 -52.5 12.5t-46.5 34.5q-19 -4 -34 -4q-29 0 -47 9t-29 23t-16 31t-7 34q-16 7 -26.5 12t-16.5 11.5t-8.5 16.5t-2.5 27q0 47 21 74.5t53 42.5t70 20.5t72 8.5q-27 57 -27 131
q0 81 33 158t89 137t130.5 96t158.5 36q28 0 51 -4q3 30 8.5 70.5t19 77t36.5 62t62 25.5q34 0 49 -14.5t24 -34.5q16 6 28 6q18 0 32.5 -8.5t25.5 -22.5t18.5 -32t12.5 -37l34.5 -13t27 -14.5t17.5 -22t6 -35.5q0 -33 -15 -59t-40.5 -45.5t-59.5 -32.5t-72 -20
q16 -33 25 -70t9 -76q0 -55 -16.5 -107.5t-46 -100t-69.5 -87.5t-86.5 -69t-97 -45.5t-101.5 -16.5zM468 107q64 0 127.5 30t113.5 80.5t81 115.5t31 135q0 49 -17 92t-47.5 75t-73 50t-92.5 18q-65 0 -128 -30.5t-113 -81.5t-81 -116.5t-31 -134.5q0 -50 18 -93t49.5 -74
t73 -48.5t89.5 -17.5zM698 720q26 -8 49.5 -22.5t44.5 -30.5q34 1 66 7.5t57.5 19t41 31.5t15.5 45q0 5 -7.5 9t-18 8.5l-22 9.5t-19.5 12t-11.5 20t-6.5 26t-9 22.5t-19 9.5q-11 0 -20.5 -4.5t-21.5 -4.5q-16 0 -23 8.5t-11 19t-8 19t-13 8.5q-20 0 -32.5 -27t-19.5 -62.5
t-9.5 -70.5t-2.5 -53zM334 80q-26 11 -42 22.5t-46 44.5q-18 0 -51 -2t-66 -11t-57 -26t-24 -47q0 -10 6 -13t13.5 -4.5t15 -3.5t11.5 -10q3 -7 5 -18.5t5.5 -22.5t10.5 -19t22 -8q12 0 26 3t26 3t20.5 -7.5t16.5 -17t16.5 -17t21.5 -7.5q5 0 16.5 16.5t23.5 41t21 52.5
t9 51zM405 198q0 30 22 52t53 22q28 0 50.5 -20.5t22.5 -51.5t-20.5 -54t-53.5 -23q-30 0 -52 22t-22 53zM314 496q0 28 20.5 49.5t50.5 21.5q32 0 51.5 -22t19.5 -49q0 -32 -22 -51t-49 -19q-32 0 -51.5 21.5t-19.5 48.5zM725 573q26 0 46.5 -18.5t20.5 -47.5
q0 -27 -18.5 -48.5t-48.5 -21.5q-26 0 -47.5 19.5t-21.5 50.5q0 26 20.5 46t48.5 20zM462 397q0 27 20 46.5t47 19.5q29 0 48 -20.5t19 -47.5q0 -29 -20 -47t-47 -18q-29 0 -48 20.5t-19 46.5zM331 373q22 0 40.5 -16.5t18.5 -42.5q0 -25 -17 -44t-43 -19q-24 0 -43.5 17
t-19.5 44q0 25 18.5 43t45.5 18zM620 312q0 23 16.5 42t43.5 19t44 -19t17 -43q0 -27 -19 -43.5t-42 -16.5q-27 0 -43.5 19t-16.5 42zM491 624q0 20 16 37t40 17q22 0 39 -15.5t17 -38.5q0 -22 -15 -39.5t-41 -17.5q-22 0 -39 17t-17 40z" />
    <glyph glyph-name="dollar" unicode="$" horiz-adv-x="781" 
d="M317 787q21 0 46.5 -7.5t47 -22t36 -36t14.5 -49.5q0 -17 -4.5 -33t-12.5 -31q12 0 26.5 9.5l31.5 21t37.5 21t44.5 9.5q29 0 52 -15t38.5 -38t24 -51t8.5 -54q0 -21 -6 -45t-18 -47t-31 -43.5t-45 -35.5q29 -23 46.5 -55t17.5 -73q0 -39 -16 -63.5t-40.5 -41t-52.5 -26
l-52.5 -18t-40.5 -19t-16 -26.5q0 -10 4 -22.5t4 -30.5q0 -29 -13.5 -50.5t-33.5 -35.5t-44.5 -21.5t-45.5 -7.5q-20 0 -45 6.5t-47 21t-37 36.5t-15 52q0 6 2 15.5t4.5 18.5l4.5 16.5t2 10.5q-17 0 -32 -9.5l-31 -20.5t-34 -20.5t-41 -9.5q-32 0 -56 15.5t-39.5 39
t-23.5 51t-8 52.5q0 18 4.5 43t17 50.5t33.5 48.5t54 37q-28 23 -44.5 54.5t-16.5 76.5q0 40 13 65.5t34 42t48 26.5t54 18q29 8 45.5 15.5t16.5 21.5q0 8 -3.5 19.5t-3.5 28.5q0 28 13.5 50t33.5 36t44.5 21.5t45.5 7.5zM283 766q-13 0 -27.5 -4t-26.5 -11.5t-20 -19.5
t-8 -28q0 -12 3.5 -21.5t3.5 -25.5q0 -30 -15.5 -46t-39 -26t-51 -17t-51 -18.5t-39 -30t-15.5 -51.5q0 -43 27 -72t68 -48.5t88 -32.5l88 -25t68 -25.5t27 -33.5q0 -11 -8 -20.5t-19.5 -16.5t-25 -11t-24.5 -4q-25 0 -42 18.5l-36.5 41t-47.5 41.5t-75 19q-42 0 -68.5 -16
t-41.5 -38t-20.5 -45.5t-5.5 -39.5t4.5 -34t13.5 -33.5t22 -25.5t31 -10t32.5 9t28.5 20t28.5 20t31.5 9q10 0 23.5 -4t24.5 -11.5t19 -18t8 -23.5q0 -14 -7.5 -28t-7.5 -30q0 -15 9 -26.5t22.5 -19t29 -11t28.5 -3.5t27.5 4t26.5 11.5t20 19t8 27.5q0 14 -4 25t-4 28
q0 29 16 45.5t40.5 26.5t52.5 17t52.5 18.5t40.5 30.5t16 52q0 43 -27.5 72t-68.5 48.5t-88.5 32.5l-88.5 25t-68.5 25t-27.5 32q0 18 24.5 36t62.5 18q26 0 40.5 -9.5t23 -24.5t14.5 -31.5t16.5 -31.5t27.5 -24.5t48 -9.5q36 0 64 13.5t46.5 34.5t28 46.5t9.5 49.5
q0 17 -4.5 35t-13.5 33t-22 24.5t-30 9.5t-31.5 -9t-29 -19.5t-29 -19t-31.5 -8.5q-9 0 -21.5 3t-24 9.5t-19 15.5t-7.5 21q0 15 8.5 31.5t8.5 33.5q0 15 -9 26t-22.5 18.5t-29 11.5t-28.5 4z" />
    <glyph glyph-name="percent" unicode="%" horiz-adv-x="967" 
d="M67 443q0 28 9 60t29.5 59.5t55 45.5t84.5 18q40 0 73.5 -13t58 -36t38 -54.5t13.5 -68.5q0 -33 -11.5 -65.5t-34 -58.5t-57 -42t-80.5 -16q-33 0 -65 12.5t-57 35t-40.5 54t-15.5 69.5zM77 460q0 -32 12.5 -58.5t34 -46t50 -30.5t58.5 -11q38 0 67 14t48.5 36t29 50
t9.5 56q0 31 -11.5 58t-32.5 46.5t-49 30.5t-63 11q-28 0 -51 -7t-40 -19.5t-28.5 -28t-19 -33t-11 -35.5t-3.5 -33zM227 554q10 0 16.5 -2.5t11 -6t7.5 -7.5t6 -7q3 -5 5 -13l4 -16t3 -16t1 -12q0 -18 -1.5 -35.5t-6.5 -31.5t-14.5 -22.5t-25.5 -8.5q-17 0 -27.5 8.5
t-15.5 22t-7 29.5t-2 31q0 14 1.5 29.5t6.5 28.5t14 21t24 8zM243 512q-7 0 -11 -6t-6 -15t-2.5 -20t-0.5 -20q0 -10 1 -21.5t3.5 -21t7.5 -16t13 -6.5t12.5 6.5t7 16.5t3 23t0.5 25q0 6 -1.5 15.5t-5 18t-9 15t-12.5 6.5zM348 1q-56 0 -81 21.5t-25 48.5q0 16 9 35t24 39.5
t34 42l39 42.5l47.5 53t34.5 47q15 26 23 59t14.5 67t15.5 67t27.5 59t48.5 41.5t79 15.5q30 0 50.5 -7t33 -17.5t17.5 -23t5 -24.5q0 -15 -9 -33.5t-24 -38.5t-34 -41.5l-38 -42.5l-47.5 -53.5t-34.5 -47.5q-11 -20 -18 -49.5l-14 -59.5q-8 -37 -17.5 -73t-28.5 -64
t-50 -45.5t-81 -17.5zM335 35q42 0 69 15t43.5 39.5t25.5 56t16 65t15 65t22 57.5q16 28 46.5 62l61 67.5t53.5 64.5t23 53q0 8 -4 17t-14 16.5t-26.5 12.5t-40.5 5q-42 0 -68.5 -15t-43 -39.5t-25 -56t-16 -64.5l-15.5 -65t-22 -58q-11 -18 -28.5 -39.5l-38 -44.5
l-41.5 -46t-38 -44.5t-28 -40.5t-11 -34q0 -19 20 -34t65 -15zM549 138q0 28 9 60t29.5 59.5t55 45.5t84.5 18q40 0 73.5 -13t58 -36t38 -54.5t13.5 -68.5q0 -33 -11.5 -65.5t-34 -58.5t-57 -42t-80.5 -16q-33 0 -65 12.5t-57 35t-40.5 54t-15.5 69.5zM559 155
q0 -32 12.5 -58.5t34 -46t50 -30.5t58.5 -11q38 0 67 14t48.5 36t29 50t9.5 56q0 31 -11.5 58t-32.5 46.5t-49 30.5t-63 11q-28 0 -51 -7t-40 -19.5t-28.5 -28t-19 -33t-11 -35.5t-3.5 -33zM709 249q10 0 16.5 -2.5t11 -6t7.5 -7.5t6 -7q3 -5 5 -13l4 -16t3 -16t1 -12
q0 -18 -1.5 -35.5t-6.5 -31.5t-14.5 -22.5t-25.5 -8.5q-17 0 -27.5 8.5t-15.5 22t-7 29.5t-2 31q0 14 1.5 29.5t6.5 28.5t14 21t24 8zM725 207q-7 0 -11 -6t-6 -15t-2.5 -20t-0.5 -20q0 -10 1 -21.5t3.5 -21t7.5 -16t13 -6.5t12.5 6.5t7 16.5t3 23t0.5 25q0 6 -1.5 15.5
t-5 18t-9 15t-12.5 6.5z" />
    <glyph glyph-name="ampersand" unicode="&#x26;" horiz-adv-x="1195" 
d="M750 -66l-44.5 -19.5t-56 -19.5t-71 -15t-88.5 -6q-89 0 -172 21.5t-147.5 61t-103 95t-38.5 123.5q0 38 17 70t42 58.5t54 47l52 35.5q-17 23 -31.5 50.5t-14.5 63.5q0 55 32 99.5t86.5 75.5t127.5 47.5t155 16.5q67 0 132 -12t116 -38.5t82 -69.5t31 -104
q0 -42 -20.5 -74t-51 -56t-66 -41.5t-66.5 -30.5l-4 -2q9 -5 20 -10.5t20 -10.5l22 -10q45 40 100 67t133 27q31 0 52 -8.5t33.5 -22.5t17.5 -32t5 -37q0 -17 -9 -38t-22.5 -43.5t-30.5 -44.5l-32 -41q29 -30 43.5 -65t14.5 -67q0 -52 -30.5 -87.5t-93.5 -35.5
q-31 0 -70.5 13t-87.5 45zM784 -10q40 -26 72 -37.5t55 -11.5q35 0 52 19.5t17 48.5q0 32 -20 66.5t-60 57.5q10 13 29.5 36t38.5 48.5t33.5 50t14.5 40.5q0 17 -11 31t-42 14q-39 0 -69.5 -7.5t-56.5 -21.5t-49 -33.5t-47 -42.5q-44 21 -77 41q-29 17 -52.5 36.5
t-23.5 35.5q0 7 17.5 16t43 20.5l56 25.5t56 32.5t43 41.5t17.5 52q0 46 -26.5 78.5t-69.5 52.5t-98 29t-112 9q-71 0 -134 -12.5t-110 -36.5t-74.5 -58t-27.5 -77q0 -20 9.5 -38.5t21.5 -35t21.5 -31t9.5 -24.5q0 -4 -13.5 -12.5l-33.5 -21.5l-43.5 -29.5t-43.5 -37
t-33.5 -44.5t-13.5 -51q0 -56 34 -101.5t90.5 -77.5t130 -49.5t151.5 -17.5q54 0 95.5 7.5t73.5 18.5t55.5 23l40.5 20zM543 151q-17 -5 -39 -10.5t-48 -5.5q-24 0 -47 4.5t-41 14t-29.5 23t-11.5 31.5q0 12 5.5 22t13.5 18.5t16.5 15l15.5 11.5l42 -42.5t34 -29t37 -24.5
t52 -28zM464 483q-12 11 -22.5 24t-10.5 28q0 17 18 29.5t48 12.5q20 0 38 -8t18 -25q0 -15 -8.5 -25t-21.5 -16.5t-29 -11z" />
    <glyph glyph-name="quoteright" unicode="&#x2019;" horiz-adv-x="510" 
d="M49 478q0 28 13.5 58t35.5 57.5t51.5 52t61 43t63.5 29t60 10.5q27 0 55 -9t51 -26.5t38 -42.5t15 -58q0 -30 -16 -59t-42 -55t-59 -48.5t-67.5 -39t-67 -26t-57.5 -9.5q-23 0 -47 7t-43.5 21.5t-32 38t-12.5 56.5zM69 508q0 -20 8 -33.5t20 -22.5t27 -13t30 -4
q21 0 48.5 7.5t56 20.5t56.5 30.5t49.5 38.5t35 44t13.5 46q0 21 -10 37t-26 27t-35.5 16.5t-37.5 5.5q-35 0 -76 -18.5t-76 -47.5t-59 -64.5t-24 -69.5z" />
    <glyph glyph-name="parenleft" unicode="(" horiz-adv-x="578" 
d="M525 -111q0 -27 -14 -47t-38 -32.5t-55 -19t-64 -6.5q-87 0 -149.5 38t-103 99t-59.5 138.5t-19 157.5q0 79 19 157t59.5 140t102 100.5t147.5 38.5q32 0 63.5 -6t56 -19t39.5 -32t15 -46q0 -28 -16.5 -56t-41 -56t-53 -55.5t-53 -55t-41 -55t-16.5 -54.5q0 -28 16.5 -55
t41 -53.5t53 -53.5t53 -54.5t41 -55.5t16.5 -57zM436 -76q0 18 -16.5 40t-41 48l-53 54.5t-53 59.5t-41 63t-16.5 65t16.5 65t41 62.5t53 59l53 54t41 47.5t16.5 39q0 13 -10 23t-26.5 16t-37 9t-40.5 3q-74 0 -126.5 -33.5t-86 -87.5t-49.5 -122.5t-16 -137.5
q0 -70 16 -137.5t50 -121t87 -86.5t127 -33q21 0 41.5 3t36 9.5t25 16t9.5 22.5z" />
    <glyph glyph-name="parenright" unicode=")" horiz-adv-x="573" 
d="M-14.9678 -111q0 -27 13.999 -47t37.998 -32.5q23.998 -12.5 54.9961 -19t63.9961 -6.5q86.9951 0 149.491 38t102.993 99q40.498 61 59.4971 138.5q18.998 77.5 18.998 157.5q0 79 -18.998 157q-18.999 78 -59.4971 140q-40.4971 62 -101.993 100.5t-147.491 38.5
q-31.998 0 -63.4961 -6t-55.9971 -19q-24.498 -13 -39.4971 -32t-14.999 -46q0 -28 16.499 -56t40.9971 -56q24.499 -28 52.9971 -55.5t52.9971 -55q24.498 -27.5 40.9971 -55t16.499 -54.5q0 -28 -16.499 -55t-40.9971 -53.5q-24.499 -26.5 -52.9971 -53.5t-52.9971 -54.5
q-24.498 -27.5 -40.9971 -55.5t-16.499 -57zM74.0264 -76q0 18 16.499 40t40.998 48l52.9961 54.5q28.499 28.5 52.9971 59.5q24.499 31 40.9971 63q16.499 32 16.499 65t-16.499 65q-16.498 32 -40.9971 62.5q-24.498 30.5 -52.9971 59l-52.9961 54
q-24.499 25.5 -40.998 47.5t-16.499 39q0 13 10 23q9.99902 10 26.498 16t36.998 9q20.498 3 40.4971 3q73.9961 0 126.492 -33.5q52.4971 -33.5 85.9951 -87.5t49.4971 -122.5t15.999 -137.5q0 -70 -15.999 -137.5t-49.9971 -121t-86.9951 -86.5q-52.9961 -33 -126.992 -33
q-20.998 0 -41.4971 3t-35.998 9.5t-24.998 16q-9.5 9.5 -9.5 22.5z" />
    <glyph glyph-name="asterisk" unicode="*" horiz-adv-x="578" 
d="M533 558q0 -26 -9 -41t-24 -23q15 -8 24 -23t9 -41q0 -21 -10 -42t-26.5 -37.5t-36.5 -26.5t-41 -10q-13 0 -18 2q-14 -31 -41.5 -51t-57.5 -20q-35 0 -60.5 20.5t-37.5 50.5q-5 -2 -9 -2h-9q-23 0 -44 10.5t-37 27t-25 37.5t-9 41q0 26 8.5 40.5t22.5 22.5
q-14 8 -22.5 23t-8.5 41q0 21 9 41.5t24.5 37t35.5 27t43 10.5q5 0 9.5 -0.5t9.5 -1.5q13 30 39.5 51.5t60.5 21.5q31 0 59 -21t42 -52q10 2 17 2q21 0 41.5 -10t36 -26t25.5 -37t10 -42zM332 526q0 13 8.5 19.5t21.5 10t28.5 5t28.5 4.5t21.5 8.5t8.5 16.5q0 12 -5.5 23
t-14 20t-19.5 14.5t-22 5.5q-13 0 -23.5 -11.5t-19.5 -26t-17 -26t-15 -11.5q-4 0 -8 6t-4 13t4.5 14.5t9.5 14.5t9.5 15t4.5 17q0 26 -18.5 46t-40.5 20q-24 0 -40.5 -21.5t-16.5 -46.5q0 -14 9.5 -25.5t9.5 -23.5q0 -8 -3.5 -13t-7.5 -5q-6 0 -13.5 10l-16 22t-18.5 22
t-22 10t-23 -5.5t-19 -14.5t-13 -20.5t-5 -23.5q0 -17 18.5 -21.5t40.5 -7.5t40.5 -9t18.5 -25t-18.5 -25.5t-40.5 -9.5t-40.5 -8t-18.5 -21q0 -23 18.5 -43.5t44.5 -20.5q14 0 26.5 13.5t24 29t20.5 29t15 13.5q2 0 5.5 -5t3.5 -13q0 -9 -5.5 -16.5t-12 -15t-12 -15.5
t-5.5 -18q0 -26 15 -48.5t41 -22.5q23 0 41 21.5t18 48.5q0 9 -5 17.5t-11 16.5t-11 16t-5 16q0 7 4.5 14t8.5 7q7 0 15 -14l17.5 -30.5t20 -30t24.5 -13.5q11 0 22 5.5t20 14.5t14.5 20.5t5.5 23.5q0 11 -8.5 17t-21.5 9t-28.5 4.5t-28.5 4.5t-21.5 9.5t-8.5 19.5z" />
    <glyph glyph-name="plus" unicode="+" horiz-adv-x="813" 
d="M689 209q-21 0 -42 4.5t-42 10.5l-42.5 12.5t-43.5 9.5q0 -29 10.5 -57.5t10.5 -60.5q0 -26 -8 -43.5t-20.5 -28t-28 -14.5t-29.5 -4q-10 0 -22.5 5t-23.5 5q-14 0 -28.5 -5t-31.5 -5q-12 0 -27 4t-28 14t-22 27.5t-9 44.5q0 30 9.5 58.5t11.5 59.5q-22 0 -43 -6
l-42.5 -12.5t-43.5 -12.5t-45 -6q-53 0 -72 25.5t-19 62.5v74q0 18 4 34t14.5 28.5t28 19.5t44.5 7q22 0 43.5 -5.5t43 -12.5t43 -13t44.5 -7q0 29 -10.5 57.5t-10.5 60.5q0 26 8.5 43.5t21.5 28t28.5 14.5t28.5 4q15 0 27.5 -3.5t24.5 -5.5q12 0 24.5 4.5t27.5 4.5
q13 0 28.5 -4t28.5 -14t21.5 -27t8.5 -44q0 -30 -9.5 -59t-11.5 -60q21 0 42 6l42 12.5l42 12.5t44 6q27 0 44.5 -7.5t28 -19.5t14.5 -28t4 -33v-74q0 -37 -19 -62.5t-72 -25.5zM488 326q18 0 40.5 -6l45.5 -12.5l45.5 -12.5t39.5 -6q24 0 32.5 11t8.5 27v74q0 15 -8.5 26.5
t-32.5 11.5q-17 0 -39.5 -6l-45.5 -12.5l-45.5 -12.5t-39.5 -6q-27 0 -38.5 15t-11.5 35q0 12 3.5 27.5l7 32l7 32t3.5 27.5q0 23 -13 31t-24 8q-12 0 -25 -4.5t-27 -4.5t-27.5 4.5t-24.5 4.5t-24 -8.5t-13 -31.5q0 -11 3.5 -26.5l7 -32l7 -32t3.5 -27.5q0 -20 -11.5 -35
t-39.5 -15q-17 0 -40 6t-46.5 13t-46.5 13t-40 6q-24 0 -32.5 -11.5t-8.5 -27.5v-74q0 -16 8.5 -27t32.5 -11q17 0 40 6l47 12.5l46.5 12.5t40.5 6q29 0 39.5 -15.5t10.5 -34.5q0 -12 -3.5 -27.5l-7 -32l-7 -31.5t-3.5 -27q0 -24 12.5 -32t23.5 -8t25 4.5t28 4.5t27 -4.5
t26 -4.5q12 0 24 8.5t12 31.5q0 12 -3.5 27l-7 31.5l-7 32t-3.5 28.5q0 21 11.5 35t37.5 14z" />
    <glyph glyph-name="comma" unicode="," horiz-adv-x="505" 
d="M-23 -101q0 30 17.5 65.5t46.5 70.5t65.5 68t74.5 58t74 40t63 15q25 0 50.5 -10t45.5 -28t32.5 -42t12.5 -51q0 -31 -20.5 -65t-54 -67t-74.5 -63t-82.5 -53t-78.5 -36.5t-61 -13.5q-50 0 -80.5 31.5t-30.5 80.5zM-3 -71q0 -27 17 -44.5t44 -17.5q21 0 53 11.5
t67.5 30.5t71.5 44t64.5 52.5t46.5 55.5t18 54q0 17 -8 31.5t-21 25.5t-29.5 17.5t-32.5 6.5q-23 0 -53.5 -12.5t-63 -34t-64 -49t-56 -57t-39.5 -59.5t-15 -55z" />
    <glyph glyph-name="hyphen" unicode="-" horiz-adv-x="653" 
d="M578 180q0 -22 -7 -41.5t-19.5 -34.5t-31.5 -23.5t-43 -8.5q-21 0 -41.5 5.5t-40.5 12.5t-40.5 12.5t-42.5 5.5q-21 0 -41 -5.5t-40 -12.5t-40.5 -12.5t-42.5 -5.5q-20 0 -38.5 6t-32.5 19t-23 33.5t-9 49.5q0 11 2 21.5t2 24.5q0 11 -2 22t-2 25q0 30 9 50t23 33
t32.5 18.5t38.5 5.5q21 0 41 -5.5t40.5 -12t41 -12t41.5 -5.5t40.5 5.5t39.5 12t40.5 12t42.5 5.5q20 0 38.5 -5.5t33 -18.5t23 -33.5t8.5 -50.5q0 -11 -1.5 -22t-1.5 -24q1 -20 2 -29.5t1 -16.5zM447 156q23 0 37 16t14 42q0 14 -1.5 23t-1.5 23t1.5 24.5t1.5 21.5
q0 32 -16 45t-37 13q-16 0 -35.5 -5.5l-41 -12t-43.5 -12t-43 -5.5t-43 5.5t-44 12l-41.5 12t-35.5 5.5q-20 0 -36.5 -12.5t-16.5 -44.5q0 -12 2 -22.5t2 -24.5t-2 -24t-2 -22q0 -32 16.5 -45t36.5 -13q15 0 35 5.5t41.5 12.5t44 12.5t43.5 5.5t43 -5.5t43.5 -12.5
t41.5 -12.5t37 -5.5z" />
    <glyph glyph-name="period" unicode="." horiz-adv-x="422" 
d="M275 -35q-26 -28 -59 -41.5t-68 -13.5t-66.5 13.5t-55.5 37t-38 55t-14 66.5t14 66t37.5 54.5t55 37.5t66.5 14q36 0 67.5 -14t55 -37.5t37 -54.5t13.5 -66q0 -32 -11 -62.5t-34 -54.5zM208 29q16 17 24 38.5t8 44.5q0 25 -9.5 47t-26.5 38.5t-39.5 26.5t-47.5 10
t-47.5 -10t-39 -26.5t-26.5 -38.5t-10 -47t10 -47.5t27 -39t39.5 -26t47.5 -9.5t48.5 9.5t41.5 29.5z" />
    <glyph glyph-name="slash" unicode="/" horiz-adv-x="685" 
d="M116 -143q-20 0 -44 5t-44 16.5t-33.5 30t-13.5 45.5q0 40 28 86t65.5 93l75 92t56.5 84q18 36 26.5 80.5t15 90t17 88t32 75.5t60 53t101.5 20h90q19 0 42.5 -4.5t44.5 -16.5t35 -31.5t14 -49.5q0 -29 -13 -58.5t-34 -59t-46.5 -60l-50.5 -60t-47 -58.5t-35 -56
q-18 -36 -26 -80.5l-15.5 -89.5t-18 -87.5t-33 -75t-60.5 -52.5t-100 -20h-89zM171 -54q47 0 77 19.5t48 51.5t27.5 72t16.5 82l14 81t21 68q11 23 31.5 51l45 59l50 62.5t46 60t34 53.5t13.5 42q0 14 -8.5 23t-21 14.5t-26.5 7.5t-25 2h-90q-48 0 -77.5 -19.5t-47.5 -51.5
t-27 -72.5t-15.5 -82t-13.5 -81t-21 -68.5q-11 -22 -31 -50t-44.5 -58.5l-50 -62t-46.5 -60.5t-34.5 -54t-13.5 -42q0 -14 8 -23t20 -14.5t26 -7.5t26 -2h89z" />
    <glyph glyph-name="zero" unicode="0" horiz-adv-x="932" 
d="M296 129q-5 -21 -16.5 -44t-24 -41.5t-24.5 -31t-17 -13.5q-20 0 -35.5 8t-31.5 23q-13 -2 -27.5 -2t-27 6t-19.5 15.5t-10.5 20.5t-5.5 23q-20 9 -28 16.5t-8 28.5q0 31 14.5 50t36 29t47.5 14t48 6q-18 38 -18 88q0 55 22 107t60 92t88 64.5t107 24.5q17 0 35 -3
q2 21 5.5 48.5t12 52t25 41.5t42.5 17q22 0 32.5 -10t16.5 -23q10 4 26 4t31 -21t22 -47q12 -4 22.5 -8t18.5 -9.5t12 -14.5t4 -24q0 -23 -10 -41t-27 -31t-40.5 -21.5t-49.5 -13.5q11 -22 17.5 -47t6.5 -51q0 -55 -24.5 -107t-64.5 -92t-100 -65.5t-143 -17.5zM321 195
q43 0 86 20.5t76.5 55t54.5 78t21 90.5q0 33 -11.5 62t-32.5 50.5t-49 34t-62 12.5q-44 0 -87 -21t-76 -55t-54 -78t-21 -91q0 -34 12 -63t33 -50t49.5 -33t60.5 -12zM476 611q18 -7 33.5 -17t29.5 -21q23 1 45 6t39 13t27.5 20.5t10.5 29.5q0 4 -5 7t-12 5.5t-15 6t-14 8.5
q-4 5 -6.5 13.5l-5 17.5t-6.5 15.5t-12 6.5q-7 0 -14 -3t-15 -3q-10 0 -15 5.5t-7.5 12.5t-5.5 12.5t-9 5.5q-14 0 -22 -18t-12.5 -42t-6.5 -47.5t-2 -33.5zM230 177q-11 5 -18.5 10t-13.5 10t-27 26q-12 0 -34.5 -1.5t-44.5 -7.5t-38 -17.5t-16 -31.5q0 -7 3.5 -9t8.5 -3.5
l10 -3t8 -6.5q3 -4 4 -11.5t3.5 -15t7 -13t15.5 -5.5q7 0 16.5 2t18 2t14.5 -5t11 -11.5t11 -11.5t14 -5q19 23 27.5 39t14 34.5t5.5 34.5zM278 257q0 20 15 35t36 15q19 0 34 -14t15 -35q0 -20 -13.5 -36t-36.5 -16q-20 0 -35 15t-15 36zM217 458q0 19 14 33.5t34 14.5
q21 0 34 -15t13 -33q0 -21 -14.5 -34t-32.5 -13q-22 0 -35 14.5t-13 32.5zM494 510q18 0 31.5 -12.5t13.5 -32.5q0 -18 -12 -32.5t-33 -14.5q-18 0 -32 13t-14 34q0 18 13.5 31.5t32.5 13.5zM317 391q0 18 13.5 31.5t31.5 13.5q20 0 32.5 -14t12.5 -32q0 -19 -13.5 -31.5
t-31.5 -12.5q-20 0 -32.5 14t-12.5 31zM228 375q15 0 27.5 -11t12.5 -29q0 -17 -11.5 -29.5t-29.5 -12.5q-16 0 -28.5 11.5t-12.5 29.5q0 17 12 29t30 12zM423 334q0 15 11.5 28t29.5 13t29.5 -13t11.5 -29q0 -18 -12.5 -29t-28.5 -11q-18 0 -29.5 12.5t-11.5 28.5zM336 544
q0 14 11 25.5t27 11.5q15 0 26.5 -10.5t11.5 -26.5q0 -15 -10.5 -26.5t-27.5 -11.5q-15 0 -26.5 11.5t-11.5 26.5zM421 56v18h-89v-145h20v70h51v16h-51v41h69zM527 56v18h-89v-145h20v70h51v16h-51v41h69zM564 55q6 2 10 2q40 0 40 -27q0 -28 -38 -28h-3q-5 0 -9 1v52z
M564 -15q5 -1 8.5 -1h5.5q56 0 56 49q0 42 -63 42q-3 0 -9.5 -0.5t-17.5 -1.5v-144h20v56zM71 -193q-2 -2 -6.5 -4.5t-8.5 -2.5q-27 0 -27 30q0 14 7 23t19 9q9 0 16 -9v-46zM86 -211v118h-15v-39q-6 6 -20 6q-16 0 -27 -13.5t-11 -32.5q0 -18 9.5 -29.5t25.5 -11.5
q8 0 13 2t10 5v-5h15zM142 -138q11 0 16.5 -7t5.5 -15h-46q5 22 24 22zM178 -171q1 3 1 9q0 17 -11.5 26.5t-26.5 9.5q-19 0 -29 -15t-10 -30q0 -19 11 -30.5t28 -11.5t31 9l-7 11q-10 -8 -21 -8q-14 0 -20 9.5t-6 20.5h60zM245 -95q-4 1 -7 1.5t-7 0.5q-13 0 -21 -9.5
t-8 -24.5h-12v-13h12v-71h15v71h17v13h-17q0 9 3.5 15.5t11.5 6.5q6 0 9 -2zM322 -211v52q0 15 -8 24t-21 9q-8 0 -14.5 -3t-8.5 -8v44h-15v-118h15v62q2 4 7.5 7.5t10.5 3.5q9 0 14 -6t5 -15v-52h15zM389 -191q-9 -10 -21 -10q-15 0 -15 12q0 8 7 14t19 6q5 0 10 -1v-21z
M390 -202q4 -11 21 -11v8q-7 3 -7 14v30q0 35 -36 35q-7 0 -14 -2.5t-11 -5.5l6 -13q8 8 21 8q19 0 19 -21q-5 2 -11 2q-17 0 -28.5 -9t-11.5 -21q0 -11 7.5 -18t17.5 -7q19 0 27 11zM479 -128q-10 2 -12 2q-16 0 -23 -15v14h-15v-84h15v47q0 11 5.5 18.5t13.5 7.5
q4 0 10 -4zM500 -170q0 32 22 32q23 0 23 -32q0 -15 -6.5 -23t-16.5 -8q-22 0 -22 31zM484 -170q0 -20 10 -31.5t28 -11.5q17 0 27.5 11.5t10.5 31.5q0 44 -38 44q-17 0 -27.5 -12t-10.5 -32zM593 -190q-5 0 -8.5 -3.5t-3.5 -7.5q0 -12 12 -12q5 0 8.5 3.5t3.5 8.5
q0 4 -3.5 7.5t-8.5 3.5zM699 -134q-4 2 -12 5t-14 3q-20 0 -32 -12.5t-12 -32.5q0 -19 11.5 -30.5t28.5 -11.5t30 7l-7 13q-10 -8 -20 -8q-27 0 -27 30q0 15 7.5 24t18.5 9q6 0 12 -2.5t8 -4.5zM725 -170q0 32 22 32q23 0 23 -32q0 -15 -6.5 -23t-16.5 -8q-22 0 -22 31z
M709 -170q0 -20 10 -31.5t28 -11.5q17 0 27.5 11.5t10.5 31.5q0 44 -38 44q-17 0 -27.5 -12t-10.5 -32zM913 -211v55q0 30 -27 30q-8 0 -15 -3.5t-9 -7.5q-6 11 -25 11q-13 0 -22 -11l-5 10h-9v-84h15v61q2 4 6.5 8t9.5 4q17 0 17 -14v-59h15v61q2 5 6.5 8.5t10.5 3.5
q17 0 17 -20v-53h15z" />
    <glyph glyph-name="one" unicode="1" horiz-adv-x="932" 
d="M296 129q-5 -21 -16.5 -44t-24 -41.5t-24.5 -31t-17 -13.5q-20 0 -35.5 8t-31.5 23q-13 -2 -27.5 -2t-27 6t-19.5 15.5t-10.5 20.5t-5.5 23q-20 9 -28 16.5t-8 28.5q0 31 14.5 50t36 29t47.5 14t48 6q-18 38 -18 88q0 55 22 107t60 92t88 64.5t107 24.5q17 0 35 -3
q2 21 5.5 48.5t12 52t25 41.5t42.5 17q22 0 32.5 -10t16.5 -23q10 4 26 4t31 -21t22 -47q12 -4 22.5 -8t18.5 -9.5t12 -14.5t4 -24q0 -23 -10 -41t-27 -31t-40.5 -21.5t-49.5 -13.5q11 -22 17.5 -47t6.5 -51q0 -55 -24.5 -107t-64.5 -92t-100 -65.5t-143 -17.5zM321 195
q43 0 86 20.5t76.5 55t54.5 78t21 90.5q0 33 -11.5 62t-32.5 50.5t-49 34t-62 12.5q-44 0 -87 -21t-76 -55t-54 -78t-21 -91q0 -34 12 -63t33 -50t49.5 -33t60.5 -12zM476 611q18 -7 33.5 -17t29.5 -21q23 1 45 6t39 13t27.5 20.5t10.5 29.5q0 4 -5 7t-12 5.5t-15 6t-14 8.5
q-4 5 -6.5 13.5l-5 17.5t-6.5 15.5t-12 6.5q-7 0 -14 -3t-15 -3q-10 0 -15 5.5t-7.5 12.5t-5.5 12.5t-9 5.5q-14 0 -22 -18t-12.5 -42t-6.5 -47.5t-2 -33.5zM230 177q-11 5 -18.5 10t-13.5 10t-27 26q-12 0 -34.5 -1.5t-44.5 -7.5t-38 -17.5t-16 -31.5q0 -7 3.5 -9t8.5 -3.5
l10 -3t8 -6.5q3 -4 4 -11.5t3.5 -15t7 -13t15.5 -5.5q7 0 16.5 2t18 2t14.5 -5t11 -11.5t11 -11.5t14 -5q19 23 27.5 39t14 34.5t5.5 34.5zM278 257q0 20 15 35t36 15q19 0 34 -14t15 -35q0 -20 -13.5 -36t-36.5 -16q-20 0 -35 15t-15 36zM217 458q0 19 14 33.5t34 14.5
q21 0 34 -15t13 -33q0 -21 -14.5 -34t-32.5 -13q-22 0 -35 14.5t-13 32.5zM494 510q18 0 31.5 -12.5t13.5 -32.5q0 -18 -12 -32.5t-33 -14.5q-18 0 -32 13t-14 34q0 18 13.5 31.5t32.5 13.5zM317 391q0 18 13.5 31.5t31.5 13.5q20 0 32.5 -14t12.5 -32q0 -19 -13.5 -31.5
t-31.5 -12.5q-20 0 -32.5 14t-12.5 31zM228 375q15 0 27.5 -11t12.5 -29q0 -17 -11.5 -29.5t-29.5 -12.5q-16 0 -28.5 11.5t-12.5 29.5q0 17 12 29t30 12zM423 334q0 15 11.5 28t29.5 13t29.5 -13t11.5 -29q0 -18 -12.5 -29t-28.5 -11q-18 0 -29.5 12.5t-11.5 28.5zM336 544
q0 14 11 25.5t27 11.5q15 0 26.5 -10.5t11.5 -26.5q0 -15 -10.5 -26.5t-27.5 -11.5q-15 0 -26.5 11.5t-11.5 26.5zM421 56v18h-89v-145h20v70h51v16h-51v41h69zM527 56v18h-89v-145h20v70h51v16h-51v41h69zM564 55q6 2 10 2q40 0 40 -27q0 -28 -38 -28h-3q-5 0 -9 1v52z
M564 -15q5 -1 8.5 -1h5.5q56 0 56 49q0 42 -63 42q-3 0 -9.5 -0.5t-17.5 -1.5v-144h20v56zM71 -193q-2 -2 -6.5 -4.5t-8.5 -2.5q-27 0 -27 30q0 14 7 23t19 9q9 0 16 -9v-46zM86 -211v118h-15v-39q-6 6 -20 6q-16 0 -27 -13.5t-11 -32.5q0 -18 9.5 -29.5t25.5 -11.5
q8 0 13 2t10 5v-5h15zM142 -138q11 0 16.5 -7t5.5 -15h-46q5 22 24 22zM178 -171q1 3 1 9q0 17 -11.5 26.5t-26.5 9.5q-19 0 -29 -15t-10 -30q0 -19 11 -30.5t28 -11.5t31 9l-7 11q-10 -8 -21 -8q-14 0 -20 9.5t-6 20.5h60zM245 -95q-4 1 -7 1.5t-7 0.5q-13 0 -21 -9.5
t-8 -24.5h-12v-13h12v-71h15v71h17v13h-17q0 9 3.5 15.5t11.5 6.5q6 0 9 -2zM322 -211v52q0 15 -8 24t-21 9q-8 0 -14.5 -3t-8.5 -8v44h-15v-118h15v62q2 4 7.5 7.5t10.5 3.5q9 0 14 -6t5 -15v-52h15zM389 -191q-9 -10 -21 -10q-15 0 -15 12q0 8 7 14t19 6q5 0 10 -1v-21z
M390 -202q4 -11 21 -11v8q-7 3 -7 14v30q0 35 -36 35q-7 0 -14 -2.5t-11 -5.5l6 -13q8 8 21 8q19 0 19 -21q-5 2 -11 2q-17 0 -28.5 -9t-11.5 -21q0 -11 7.5 -18t17.5 -7q19 0 27 11zM479 -128q-10 2 -12 2q-16 0 -23 -15v14h-15v-84h15v47q0 11 5.5 18.5t13.5 7.5
q4 0 10 -4zM500 -170q0 32 22 32q23 0 23 -32q0 -15 -6.5 -23t-16.5 -8q-22 0 -22 31zM484 -170q0 -20 10 -31.5t28 -11.5q17 0 27.5 11.5t10.5 31.5q0 44 -38 44q-17 0 -27.5 -12t-10.5 -32zM593 -190q-5 0 -8.5 -3.5t-3.5 -7.5q0 -12 12 -12q5 0 8.5 3.5t3.5 8.5
q0 4 -3.5 7.5t-8.5 3.5zM699 -134q-4 2 -12 5t-14 3q-20 0 -32 -12.5t-12 -32.5q0 -19 11.5 -30.5t28.5 -11.5t30 7l-7 13q-10 -8 -20 -8q-27 0 -27 30q0 15 7.5 24t18.5 9q6 0 12 -2.5t8 -4.5zM725 -170q0 32 22 32q23 0 23 -32q0 -15 -6.5 -23t-16.5 -8q-22 0 -22 31z
M709 -170q0 -20 10 -31.5t28 -11.5q17 0 27.5 11.5t10.5 31.5q0 44 -38 44q-17 0 -27.5 -12t-10.5 -32zM913 -211v55q0 30 -27 30q-8 0 -15 -3.5t-9 -7.5q-6 11 -25 11q-13 0 -22 -11l-5 10h-9v-84h15v61q2 4 6.5 8t9.5 4q17 0 17 -14v-59h15v61q2 5 6.5 8.5t10.5 3.5
q17 0 17 -20v-53h15z" />
    <glyph glyph-name="two" unicode="2" horiz-adv-x="932" 
d="M296 129q-5 -21 -16.5 -44t-24 -41.5t-24.5 -31t-17 -13.5q-20 0 -35.5 8t-31.5 23q-13 -2 -27.5 -2t-27 6t-19.5 15.5t-10.5 20.5t-5.5 23q-20 9 -28 16.5t-8 28.5q0 31 14.5 50t36 29t47.5 14t48 6q-18 38 -18 88q0 55 22 107t60 92t88 64.5t107 24.5q17 0 35 -3
q2 21 5.5 48.5t12 52t25 41.5t42.5 17q22 0 32.5 -10t16.5 -23q10 4 26 4t31 -21t22 -47q12 -4 22.5 -8t18.5 -9.5t12 -14.5t4 -24q0 -23 -10 -41t-27 -31t-40.5 -21.5t-49.5 -13.5q11 -22 17.5 -47t6.5 -51q0 -55 -24.5 -107t-64.5 -92t-100 -65.5t-143 -17.5zM321 195
q43 0 86 20.5t76.5 55t54.5 78t21 90.5q0 33 -11.5 62t-32.5 50.5t-49 34t-62 12.5q-44 0 -87 -21t-76 -55t-54 -78t-21 -91q0 -34 12 -63t33 -50t49.5 -33t60.5 -12zM476 611q18 -7 33.5 -17t29.5 -21q23 1 45 6t39 13t27.5 20.5t10.5 29.5q0 4 -5 7t-12 5.5t-15 6t-14 8.5
q-4 5 -6.5 13.5l-5 17.5t-6.5 15.5t-12 6.5q-7 0 -14 -3t-15 -3q-10 0 -15 5.5t-7.5 12.5t-5.5 12.5t-9 5.5q-14 0 -22 -18t-12.5 -42t-6.5 -47.5t-2 -33.5zM230 177q-11 5 -18.5 10t-13.5 10t-27 26q-12 0 -34.5 -1.5t-44.5 -7.5t-38 -17.5t-16 -31.5q0 -7 3.5 -9t8.5 -3.5
l10 -3t8 -6.5q3 -4 4 -11.5t3.5 -15t7 -13t15.5 -5.5q7 0 16.5 2t18 2t14.5 -5t11 -11.5t11 -11.5t14 -5q19 23 27.5 39t14 34.5t5.5 34.5zM278 257q0 20 15 35t36 15q19 0 34 -14t15 -35q0 -20 -13.5 -36t-36.5 -16q-20 0 -35 15t-15 36zM217 458q0 19 14 33.5t34 14.5
q21 0 34 -15t13 -33q0 -21 -14.5 -34t-32.5 -13q-22 0 -35 14.5t-13 32.5zM494 510q18 0 31.5 -12.5t13.5 -32.5q0 -18 -12 -32.5t-33 -14.5q-18 0 -32 13t-14 34q0 18 13.5 31.5t32.5 13.5zM317 391q0 18 13.5 31.5t31.5 13.5q20 0 32.5 -14t12.5 -32q0 -19 -13.5 -31.5
t-31.5 -12.5q-20 0 -32.5 14t-12.5 31zM228 375q15 0 27.5 -11t12.5 -29q0 -17 -11.5 -29.5t-29.5 -12.5q-16 0 -28.5 11.5t-12.5 29.5q0 17 12 29t30 12zM423 334q0 15 11.5 28t29.5 13t29.5 -13t11.5 -29q0 -18 -12.5 -29t-28.5 -11q-18 0 -29.5 12.5t-11.5 28.5zM336 544
q0 14 11 25.5t27 11.5q15 0 26.5 -10.5t11.5 -26.5q0 -15 -10.5 -26.5t-27.5 -11.5q-15 0 -26.5 11.5t-11.5 26.5zM421 56v18h-89v-145h20v70h51v16h-51v41h69zM527 56v18h-89v-145h20v70h51v16h-51v41h69zM564 55q6 2 10 2q40 0 40 -27q0 -28 -38 -28h-3q-5 0 -9 1v52z
M564 -15q5 -1 8.5 -1h5.5q56 0 56 49q0 42 -63 42q-3 0 -9.5 -0.5t-17.5 -1.5v-144h20v56zM71 -193q-2 -2 -6.5 -4.5t-8.5 -2.5q-27 0 -27 30q0 14 7 23t19 9q9 0 16 -9v-46zM86 -211v118h-15v-39q-6 6 -20 6q-16 0 -27 -13.5t-11 -32.5q0 -18 9.5 -29.5t25.5 -11.5
q8 0 13 2t10 5v-5h15zM142 -138q11 0 16.5 -7t5.5 -15h-46q5 22 24 22zM178 -171q1 3 1 9q0 17 -11.5 26.5t-26.5 9.5q-19 0 -29 -15t-10 -30q0 -19 11 -30.5t28 -11.5t31 9l-7 11q-10 -8 -21 -8q-14 0 -20 9.5t-6 20.5h60zM245 -95q-4 1 -7 1.5t-7 0.5q-13 0 -21 -9.5
t-8 -24.5h-12v-13h12v-71h15v71h17v13h-17q0 9 3.5 15.5t11.5 6.5q6 0 9 -2zM322 -211v52q0 15 -8 24t-21 9q-8 0 -14.5 -3t-8.5 -8v44h-15v-118h15v62q2 4 7.5 7.5t10.5 3.5q9 0 14 -6t5 -15v-52h15zM389 -191q-9 -10 -21 -10q-15 0 -15 12q0 8 7 14t19 6q5 0 10 -1v-21z
M390 -202q4 -11 21 -11v8q-7 3 -7 14v30q0 35 -36 35q-7 0 -14 -2.5t-11 -5.5l6 -13q8 8 21 8q19 0 19 -21q-5 2 -11 2q-17 0 -28.5 -9t-11.5 -21q0 -11 7.5 -18t17.5 -7q19 0 27 11zM479 -128q-10 2 -12 2q-16 0 -23 -15v14h-15v-84h15v47q0 11 5.5 18.5t13.5 7.5
q4 0 10 -4zM500 -170q0 32 22 32q23 0 23 -32q0 -15 -6.5 -23t-16.5 -8q-22 0 -22 31zM484 -170q0 -20 10 -31.5t28 -11.5q17 0 27.5 11.5t10.5 31.5q0 44 -38 44q-17 0 -27.5 -12t-10.5 -32zM593 -190q-5 0 -8.5 -3.5t-3.5 -7.5q0 -12 12 -12q5 0 8.5 3.5t3.5 8.5
q0 4 -3.5 7.5t-8.5 3.5zM699 -134q-4 2 -12 5t-14 3q-20 0 -32 -12.5t-12 -32.5q0 -19 11.5 -30.5t28.5 -11.5t30 7l-7 13q-10 -8 -20 -8q-27 0 -27 30q0 15 7.5 24t18.5 9q6 0 12 -2.5t8 -4.5zM725 -170q0 32 22 32q23 0 23 -32q0 -15 -6.5 -23t-16.5 -8q-22 0 -22 31z
M709 -170q0 -20 10 -31.5t28 -11.5q17 0 27.5 11.5t10.5 31.5q0 44 -38 44q-17 0 -27.5 -12t-10.5 -32zM913 -211v55q0 30 -27 30q-8 0 -15 -3.5t-9 -7.5q-6 11 -25 11q-13 0 -22 -11l-5 10h-9v-84h15v61q2 4 6.5 8t9.5 4q17 0 17 -14v-59h15v61q2 5 6.5 8.5t10.5 3.5
q17 0 17 -20v-53h15z" />
    <glyph glyph-name="three" unicode="3" horiz-adv-x="932" 
d="M296 129q-5 -21 -16.5 -44t-24 -41.5t-24.5 -31t-17 -13.5q-20 0 -35.5 8t-31.5 23q-13 -2 -27.5 -2t-27 6t-19.5 15.5t-10.5 20.5t-5.5 23q-20 9 -28 16.5t-8 28.5q0 31 14.5 50t36 29t47.5 14t48 6q-18 38 -18 88q0 55 22 107t60 92t88 64.5t107 24.5q17 0 35 -3
q2 21 5.5 48.5t12 52t25 41.5t42.5 17q22 0 32.5 -10t16.5 -23q10 4 26 4t31 -21t22 -47q12 -4 22.5 -8t18.5 -9.5t12 -14.5t4 -24q0 -23 -10 -41t-27 -31t-40.5 -21.5t-49.5 -13.5q11 -22 17.5 -47t6.5 -51q0 -55 -24.5 -107t-64.5 -92t-100 -65.5t-143 -17.5zM321 195
q43 0 86 20.5t76.5 55t54.5 78t21 90.5q0 33 -11.5 62t-32.5 50.5t-49 34t-62 12.5q-44 0 -87 -21t-76 -55t-54 -78t-21 -91q0 -34 12 -63t33 -50t49.5 -33t60.5 -12zM476 611q18 -7 33.5 -17t29.5 -21q23 1 45 6t39 13t27.5 20.5t10.5 29.5q0 4 -5 7t-12 5.5t-15 6t-14 8.5
q-4 5 -6.5 13.5l-5 17.5t-6.5 15.5t-12 6.5q-7 0 -14 -3t-15 -3q-10 0 -15 5.5t-7.5 12.5t-5.5 12.5t-9 5.5q-14 0 -22 -18t-12.5 -42t-6.5 -47.5t-2 -33.5zM230 177q-11 5 -18.5 10t-13.5 10t-27 26q-12 0 -34.5 -1.5t-44.5 -7.5t-38 -17.5t-16 -31.5q0 -7 3.5 -9t8.5 -3.5
l10 -3t8 -6.5q3 -4 4 -11.5t3.5 -15t7 -13t15.5 -5.5q7 0 16.5 2t18 2t14.5 -5t11 -11.5t11 -11.5t14 -5q19 23 27.5 39t14 34.5t5.5 34.5zM278 257q0 20 15 35t36 15q19 0 34 -14t15 -35q0 -20 -13.5 -36t-36.5 -16q-20 0 -35 15t-15 36zM217 458q0 19 14 33.5t34 14.5
q21 0 34 -15t13 -33q0 -21 -14.5 -34t-32.5 -13q-22 0 -35 14.5t-13 32.5zM494 510q18 0 31.5 -12.5t13.5 -32.5q0 -18 -12 -32.5t-33 -14.5q-18 0 -32 13t-14 34q0 18 13.5 31.5t32.5 13.5zM317 391q0 18 13.5 31.5t31.5 13.5q20 0 32.5 -14t12.5 -32q0 -19 -13.5 -31.5
t-31.5 -12.5q-20 0 -32.5 14t-12.5 31zM228 375q15 0 27.5 -11t12.5 -29q0 -17 -11.5 -29.5t-29.5 -12.5q-16 0 -28.5 11.5t-12.5 29.5q0 17 12 29t30 12zM423 334q0 15 11.5 28t29.5 13t29.5 -13t11.5 -29q0 -18 -12.5 -29t-28.5 -11q-18 0 -29.5 12.5t-11.5 28.5zM336 544
q0 14 11 25.5t27 11.5q15 0 26.5 -10.5t11.5 -26.5q0 -15 -10.5 -26.5t-27.5 -11.5q-15 0 -26.5 11.5t-11.5 26.5zM421 56v18h-89v-145h20v70h51v16h-51v41h69zM527 56v18h-89v-145h20v70h51v16h-51v41h69zM564 55q6 2 10 2q40 0 40 -27q0 -28 -38 -28h-3q-5 0 -9 1v52z
M564 -15q5 -1 8.5 -1h5.5q56 0 56 49q0 42 -63 42q-3 0 -9.5 -0.5t-17.5 -1.5v-144h20v56zM71 -193q-2 -2 -6.5 -4.5t-8.5 -2.5q-27 0 -27 30q0 14 7 23t19 9q9 0 16 -9v-46zM86 -211v118h-15v-39q-6 6 -20 6q-16 0 -27 -13.5t-11 -32.5q0 -18 9.5 -29.5t25.5 -11.5
q8 0 13 2t10 5v-5h15zM142 -138q11 0 16.5 -7t5.5 -15h-46q5 22 24 22zM178 -171q1 3 1 9q0 17 -11.5 26.5t-26.5 9.5q-19 0 -29 -15t-10 -30q0 -19 11 -30.5t28 -11.5t31 9l-7 11q-10 -8 -21 -8q-14 0 -20 9.5t-6 20.5h60zM245 -95q-4 1 -7 1.5t-7 0.5q-13 0 -21 -9.5
t-8 -24.5h-12v-13h12v-71h15v71h17v13h-17q0 9 3.5 15.5t11.5 6.5q6 0 9 -2zM322 -211v52q0 15 -8 24t-21 9q-8 0 -14.5 -3t-8.5 -8v44h-15v-118h15v62q2 4 7.5 7.5t10.5 3.5q9 0 14 -6t5 -15v-52h15zM389 -191q-9 -10 -21 -10q-15 0 -15 12q0 8 7 14t19 6q5 0 10 -1v-21z
M390 -202q4 -11 21 -11v8q-7 3 -7 14v30q0 35 -36 35q-7 0 -14 -2.5t-11 -5.5l6 -13q8 8 21 8q19 0 19 -21q-5 2 -11 2q-17 0 -28.5 -9t-11.5 -21q0 -11 7.5 -18t17.5 -7q19 0 27 11zM479 -128q-10 2 -12 2q-16 0 -23 -15v14h-15v-84h15v47q0 11 5.5 18.5t13.5 7.5
q4 0 10 -4zM500 -170q0 32 22 32q23 0 23 -32q0 -15 -6.5 -23t-16.5 -8q-22 0 -22 31zM484 -170q0 -20 10 -31.5t28 -11.5q17 0 27.5 11.5t10.5 31.5q0 44 -38 44q-17 0 -27.5 -12t-10.5 -32zM593 -190q-5 0 -8.5 -3.5t-3.5 -7.5q0 -12 12 -12q5 0 8.5 3.5t3.5 8.5
q0 4 -3.5 7.5t-8.5 3.5zM699 -134q-4 2 -12 5t-14 3q-20 0 -32 -12.5t-12 -32.5q0 -19 11.5 -30.5t28.5 -11.5t30 7l-7 13q-10 -8 -20 -8q-27 0 -27 30q0 15 7.5 24t18.5 9q6 0 12 -2.5t8 -4.5zM725 -170q0 32 22 32q23 0 23 -32q0 -15 -6.5 -23t-16.5 -8q-22 0 -22 31z
M709 -170q0 -20 10 -31.5t28 -11.5q17 0 27.5 11.5t10.5 31.5q0 44 -38 44q-17 0 -27.5 -12t-10.5 -32zM913 -211v55q0 30 -27 30q-8 0 -15 -3.5t-9 -7.5q-6 11 -25 11q-13 0 -22 -11l-5 10h-9v-84h15v61q2 4 6.5 8t9.5 4q17 0 17 -14v-59h15v61q2 5 6.5 8.5t10.5 3.5
q17 0 17 -20v-53h15z" />
    <glyph glyph-name="four" unicode="4" horiz-adv-x="932" 
d="M296 129q-5 -21 -16.5 -44t-24 -41.5t-24.5 -31t-17 -13.5q-20 0 -35.5 8t-31.5 23q-13 -2 -27.5 -2t-27 6t-19.5 15.5t-10.5 20.5t-5.5 23q-20 9 -28 16.5t-8 28.5q0 31 14.5 50t36 29t47.5 14t48 6q-18 38 -18 88q0 55 22 107t60 92t88 64.5t107 24.5q17 0 35 -3
q2 21 5.5 48.5t12 52t25 41.5t42.5 17q22 0 32.5 -10t16.5 -23q10 4 26 4t31 -21t22 -47q12 -4 22.5 -8t18.5 -9.5t12 -14.5t4 -24q0 -23 -10 -41t-27 -31t-40.5 -21.5t-49.5 -13.5q11 -22 17.5 -47t6.5 -51q0 -55 -24.5 -107t-64.5 -92t-100 -65.5t-143 -17.5zM321 195
q43 0 86 20.5t76.5 55t54.5 78t21 90.5q0 33 -11.5 62t-32.5 50.5t-49 34t-62 12.5q-44 0 -87 -21t-76 -55t-54 -78t-21 -91q0 -34 12 -63t33 -50t49.5 -33t60.5 -12zM476 611q18 -7 33.5 -17t29.5 -21q23 1 45 6t39 13t27.5 20.5t10.5 29.5q0 4 -5 7t-12 5.5t-15 6t-14 8.5
q-4 5 -6.5 13.5l-5 17.5t-6.5 15.5t-12 6.5q-7 0 -14 -3t-15 -3q-10 0 -15 5.5t-7.5 12.5t-5.5 12.5t-9 5.5q-14 0 -22 -18t-12.5 -42t-6.5 -47.5t-2 -33.5zM230 177q-11 5 -18.5 10t-13.5 10t-27 26q-12 0 -34.5 -1.5t-44.5 -7.5t-38 -17.5t-16 -31.5q0 -7 3.5 -9t8.5 -3.5
l10 -3t8 -6.5q3 -4 4 -11.5t3.5 -15t7 -13t15.5 -5.5q7 0 16.5 2t18 2t14.5 -5t11 -11.5t11 -11.5t14 -5q19 23 27.5 39t14 34.5t5.5 34.5zM278 257q0 20 15 35t36 15q19 0 34 -14t15 -35q0 -20 -13.5 -36t-36.5 -16q-20 0 -35 15t-15 36zM217 458q0 19 14 33.5t34 14.5
q21 0 34 -15t13 -33q0 -21 -14.5 -34t-32.5 -13q-22 0 -35 14.5t-13 32.5zM494 510q18 0 31.5 -12.5t13.5 -32.5q0 -18 -12 -32.5t-33 -14.5q-18 0 -32 13t-14 34q0 18 13.5 31.5t32.5 13.5zM317 391q0 18 13.5 31.5t31.5 13.5q20 0 32.5 -14t12.5 -32q0 -19 -13.5 -31.5
t-31.5 -12.5q-20 0 -32.5 14t-12.5 31zM228 375q15 0 27.5 -11t12.5 -29q0 -17 -11.5 -29.5t-29.5 -12.5q-16 0 -28.5 11.5t-12.5 29.5q0 17 12 29t30 12zM423 334q0 15 11.5 28t29.5 13t29.5 -13t11.5 -29q0 -18 -12.5 -29t-28.5 -11q-18 0 -29.5 12.5t-11.5 28.5zM336 544
q0 14 11 25.5t27 11.5q15 0 26.5 -10.5t11.5 -26.5q0 -15 -10.5 -26.5t-27.5 -11.5q-15 0 -26.5 11.5t-11.5 26.5zM421 56v18h-89v-145h20v70h51v16h-51v41h69zM527 56v18h-89v-145h20v70h51v16h-51v41h69zM564 55q6 2 10 2q40 0 40 -27q0 -28 -38 -28h-3q-5 0 -9 1v52z
M564 -15q5 -1 8.5 -1h5.5q56 0 56 49q0 42 -63 42q-3 0 -9.5 -0.5t-17.5 -1.5v-144h20v56zM71 -193q-2 -2 -6.5 -4.5t-8.5 -2.5q-27 0 -27 30q0 14 7 23t19 9q9 0 16 -9v-46zM86 -211v118h-15v-39q-6 6 -20 6q-16 0 -27 -13.5t-11 -32.5q0 -18 9.5 -29.5t25.5 -11.5
q8 0 13 2t10 5v-5h15zM142 -138q11 0 16.5 -7t5.5 -15h-46q5 22 24 22zM178 -171q1 3 1 9q0 17 -11.5 26.5t-26.5 9.5q-19 0 -29 -15t-10 -30q0 -19 11 -30.5t28 -11.5t31 9l-7 11q-10 -8 -21 -8q-14 0 -20 9.5t-6 20.5h60zM245 -95q-4 1 -7 1.5t-7 0.5q-13 0 -21 -9.5
t-8 -24.5h-12v-13h12v-71h15v71h17v13h-17q0 9 3.5 15.5t11.5 6.5q6 0 9 -2zM322 -211v52q0 15 -8 24t-21 9q-8 0 -14.5 -3t-8.5 -8v44h-15v-118h15v62q2 4 7.5 7.5t10.5 3.5q9 0 14 -6t5 -15v-52h15zM389 -191q-9 -10 -21 -10q-15 0 -15 12q0 8 7 14t19 6q5 0 10 -1v-21z
M390 -202q4 -11 21 -11v8q-7 3 -7 14v30q0 35 -36 35q-7 0 -14 -2.5t-11 -5.5l6 -13q8 8 21 8q19 0 19 -21q-5 2 -11 2q-17 0 -28.5 -9t-11.5 -21q0 -11 7.5 -18t17.5 -7q19 0 27 11zM479 -128q-10 2 -12 2q-16 0 -23 -15v14h-15v-84h15v47q0 11 5.5 18.5t13.5 7.5
q4 0 10 -4zM500 -170q0 32 22 32q23 0 23 -32q0 -15 -6.5 -23t-16.5 -8q-22 0 -22 31zM484 -170q0 -20 10 -31.5t28 -11.5q17 0 27.5 11.5t10.5 31.5q0 44 -38 44q-17 0 -27.5 -12t-10.5 -32zM593 -190q-5 0 -8.5 -3.5t-3.5 -7.5q0 -12 12 -12q5 0 8.5 3.5t3.5 8.5
q0 4 -3.5 7.5t-8.5 3.5zM699 -134q-4 2 -12 5t-14 3q-20 0 -32 -12.5t-12 -32.5q0 -19 11.5 -30.5t28.5 -11.5t30 7l-7 13q-10 -8 -20 -8q-27 0 -27 30q0 15 7.5 24t18.5 9q6 0 12 -2.5t8 -4.5zM725 -170q0 32 22 32q23 0 23 -32q0 -15 -6.5 -23t-16.5 -8q-22 0 -22 31z
M709 -170q0 -20 10 -31.5t28 -11.5q17 0 27.5 11.5t10.5 31.5q0 44 -38 44q-17 0 -27.5 -12t-10.5 -32zM913 -211v55q0 30 -27 30q-8 0 -15 -3.5t-9 -7.5q-6 11 -25 11q-13 0 -22 -11l-5 10h-9v-84h15v61q2 4 6.5 8t9.5 4q17 0 17 -14v-59h15v61q2 5 6.5 8.5t10.5 3.5
q17 0 17 -20v-53h15z" />
    <glyph glyph-name="five" unicode="5" horiz-adv-x="932" 
d="M296 129q-5 -21 -16.5 -44t-24 -41.5t-24.5 -31t-17 -13.5q-20 0 -35.5 8t-31.5 23q-13 -2 -27.5 -2t-27 6t-19.5 15.5t-10.5 20.5t-5.5 23q-20 9 -28 16.5t-8 28.5q0 31 14.5 50t36 29t47.5 14t48 6q-18 38 -18 88q0 55 22 107t60 92t88 64.5t107 24.5q17 0 35 -3
q2 21 5.5 48.5t12 52t25 41.5t42.5 17q22 0 32.5 -10t16.5 -23q10 4 26 4t31 -21t22 -47q12 -4 22.5 -8t18.5 -9.5t12 -14.5t4 -24q0 -23 -10 -41t-27 -31t-40.5 -21.5t-49.5 -13.5q11 -22 17.5 -47t6.5 -51q0 -55 -24.5 -107t-64.5 -92t-100 -65.5t-143 -17.5zM321 195
q43 0 86 20.5t76.5 55t54.5 78t21 90.5q0 33 -11.5 62t-32.5 50.5t-49 34t-62 12.5q-44 0 -87 -21t-76 -55t-54 -78t-21 -91q0 -34 12 -63t33 -50t49.5 -33t60.5 -12zM476 611q18 -7 33.5 -17t29.5 -21q23 1 45 6t39 13t27.5 20.5t10.5 29.5q0 4 -5 7t-12 5.5t-15 6t-14 8.5
q-4 5 -6.5 13.5l-5 17.5t-6.5 15.5t-12 6.5q-7 0 -14 -3t-15 -3q-10 0 -15 5.5t-7.5 12.5t-5.5 12.5t-9 5.5q-14 0 -22 -18t-12.5 -42t-6.5 -47.5t-2 -33.5zM230 177q-11 5 -18.5 10t-13.5 10t-27 26q-12 0 -34.5 -1.5t-44.5 -7.5t-38 -17.5t-16 -31.5q0 -7 3.5 -9t8.5 -3.5
l10 -3t8 -6.5q3 -4 4 -11.5t3.5 -15t7 -13t15.5 -5.5q7 0 16.5 2t18 2t14.5 -5t11 -11.5t11 -11.5t14 -5q19 23 27.5 39t14 34.5t5.5 34.5zM278 257q0 20 15 35t36 15q19 0 34 -14t15 -35q0 -20 -13.5 -36t-36.5 -16q-20 0 -35 15t-15 36zM217 458q0 19 14 33.5t34 14.5
q21 0 34 -15t13 -33q0 -21 -14.5 -34t-32.5 -13q-22 0 -35 14.5t-13 32.5zM494 510q18 0 31.5 -12.5t13.5 -32.5q0 -18 -12 -32.5t-33 -14.5q-18 0 -32 13t-14 34q0 18 13.5 31.5t32.5 13.5zM317 391q0 18 13.5 31.5t31.5 13.5q20 0 32.5 -14t12.5 -32q0 -19 -13.5 -31.5
t-31.5 -12.5q-20 0 -32.5 14t-12.5 31zM228 375q15 0 27.5 -11t12.5 -29q0 -17 -11.5 -29.5t-29.5 -12.5q-16 0 -28.5 11.5t-12.5 29.5q0 17 12 29t30 12zM423 334q0 15 11.5 28t29.5 13t29.5 -13t11.5 -29q0 -18 -12.5 -29t-28.5 -11q-18 0 -29.5 12.5t-11.5 28.5zM336 544
q0 14 11 25.5t27 11.5q15 0 26.5 -10.5t11.5 -26.5q0 -15 -10.5 -26.5t-27.5 -11.5q-15 0 -26.5 11.5t-11.5 26.5zM421 56v18h-89v-145h20v70h51v16h-51v41h69zM527 56v18h-89v-145h20v70h51v16h-51v41h69zM564 55q6 2 10 2q40 0 40 -27q0 -28 -38 -28h-3q-5 0 -9 1v52z
M564 -15q5 -1 8.5 -1h5.5q56 0 56 49q0 42 -63 42q-3 0 -9.5 -0.5t-17.5 -1.5v-144h20v56zM71 -193q-2 -2 -6.5 -4.5t-8.5 -2.5q-27 0 -27 30q0 14 7 23t19 9q9 0 16 -9v-46zM86 -211v118h-15v-39q-6 6 -20 6q-16 0 -27 -13.5t-11 -32.5q0 -18 9.5 -29.5t25.5 -11.5
q8 0 13 2t10 5v-5h15zM142 -138q11 0 16.5 -7t5.5 -15h-46q5 22 24 22zM178 -171q1 3 1 9q0 17 -11.5 26.5t-26.5 9.5q-19 0 -29 -15t-10 -30q0 -19 11 -30.5t28 -11.5t31 9l-7 11q-10 -8 -21 -8q-14 0 -20 9.5t-6 20.5h60zM245 -95q-4 1 -7 1.5t-7 0.5q-13 0 -21 -9.5
t-8 -24.5h-12v-13h12v-71h15v71h17v13h-17q0 9 3.5 15.5t11.5 6.5q6 0 9 -2zM322 -211v52q0 15 -8 24t-21 9q-8 0 -14.5 -3t-8.5 -8v44h-15v-118h15v62q2 4 7.5 7.5t10.5 3.5q9 0 14 -6t5 -15v-52h15zM389 -191q-9 -10 -21 -10q-15 0 -15 12q0 8 7 14t19 6q5 0 10 -1v-21z
M390 -202q4 -11 21 -11v8q-7 3 -7 14v30q0 35 -36 35q-7 0 -14 -2.5t-11 -5.5l6 -13q8 8 21 8q19 0 19 -21q-5 2 -11 2q-17 0 -28.5 -9t-11.5 -21q0 -11 7.5 -18t17.5 -7q19 0 27 11zM479 -128q-10 2 -12 2q-16 0 -23 -15v14h-15v-84h15v47q0 11 5.5 18.5t13.5 7.5
q4 0 10 -4zM500 -170q0 32 22 32q23 0 23 -32q0 -15 -6.5 -23t-16.5 -8q-22 0 -22 31zM484 -170q0 -20 10 -31.5t28 -11.5q17 0 27.5 11.5t10.5 31.5q0 44 -38 44q-17 0 -27.5 -12t-10.5 -32zM593 -190q-5 0 -8.5 -3.5t-3.5 -7.5q0 -12 12 -12q5 0 8.5 3.5t3.5 8.5
q0 4 -3.5 7.5t-8.5 3.5zM699 -134q-4 2 -12 5t-14 3q-20 0 -32 -12.5t-12 -32.5q0 -19 11.5 -30.5t28.5 -11.5t30 7l-7 13q-10 -8 -20 -8q-27 0 -27 30q0 15 7.5 24t18.5 9q6 0 12 -2.5t8 -4.5zM725 -170q0 32 22 32q23 0 23 -32q0 -15 -6.5 -23t-16.5 -8q-22 0 -22 31z
M709 -170q0 -20 10 -31.5t28 -11.5q17 0 27.5 11.5t10.5 31.5q0 44 -38 44q-17 0 -27.5 -12t-10.5 -32zM913 -211v55q0 30 -27 30q-8 0 -15 -3.5t-9 -7.5q-6 11 -25 11q-13 0 -22 -11l-5 10h-9v-84h15v61q2 4 6.5 8t9.5 4q17 0 17 -14v-59h15v61q2 5 6.5 8.5t10.5 3.5
q17 0 17 -20v-53h15z" />
    <glyph glyph-name="six" unicode="6" horiz-adv-x="932" 
d="M296 129q-5 -21 -16.5 -44t-24 -41.5t-24.5 -31t-17 -13.5q-20 0 -35.5 8t-31.5 23q-13 -2 -27.5 -2t-27 6t-19.5 15.5t-10.5 20.5t-5.5 23q-20 9 -28 16.5t-8 28.5q0 31 14.5 50t36 29t47.5 14t48 6q-18 38 -18 88q0 55 22 107t60 92t88 64.5t107 24.5q17 0 35 -3
q2 21 5.5 48.5t12 52t25 41.5t42.5 17q22 0 32.5 -10t16.5 -23q10 4 26 4t31 -21t22 -47q12 -4 22.5 -8t18.5 -9.5t12 -14.5t4 -24q0 -23 -10 -41t-27 -31t-40.5 -21.5t-49.5 -13.5q11 -22 17.5 -47t6.5 -51q0 -55 -24.5 -107t-64.5 -92t-100 -65.5t-143 -17.5zM321 195
q43 0 86 20.5t76.5 55t54.5 78t21 90.5q0 33 -11.5 62t-32.5 50.5t-49 34t-62 12.5q-44 0 -87 -21t-76 -55t-54 -78t-21 -91q0 -34 12 -63t33 -50t49.5 -33t60.5 -12zM476 611q18 -7 33.5 -17t29.5 -21q23 1 45 6t39 13t27.5 20.5t10.5 29.5q0 4 -5 7t-12 5.5t-15 6t-14 8.5
q-4 5 -6.5 13.5l-5 17.5t-6.5 15.5t-12 6.5q-7 0 -14 -3t-15 -3q-10 0 -15 5.5t-7.5 12.5t-5.5 12.5t-9 5.5q-14 0 -22 -18t-12.5 -42t-6.5 -47.5t-2 -33.5zM230 177q-11 5 -18.5 10t-13.5 10t-27 26q-12 0 -34.5 -1.5t-44.5 -7.5t-38 -17.5t-16 -31.5q0 -7 3.5 -9t8.5 -3.5
l10 -3t8 -6.5q3 -4 4 -11.5t3.5 -15t7 -13t15.5 -5.5q7 0 16.5 2t18 2t14.5 -5t11 -11.5t11 -11.5t14 -5q19 23 27.5 39t14 34.5t5.5 34.5zM278 257q0 20 15 35t36 15q19 0 34 -14t15 -35q0 -20 -13.5 -36t-36.5 -16q-20 0 -35 15t-15 36zM217 458q0 19 14 33.5t34 14.5
q21 0 34 -15t13 -33q0 -21 -14.5 -34t-32.5 -13q-22 0 -35 14.5t-13 32.5zM494 510q18 0 31.5 -12.5t13.5 -32.5q0 -18 -12 -32.5t-33 -14.5q-18 0 -32 13t-14 34q0 18 13.5 31.5t32.5 13.5zM317 391q0 18 13.5 31.5t31.5 13.5q20 0 32.5 -14t12.5 -32q0 -19 -13.5 -31.5
t-31.5 -12.5q-20 0 -32.5 14t-12.5 31zM228 375q15 0 27.5 -11t12.5 -29q0 -17 -11.5 -29.5t-29.5 -12.5q-16 0 -28.5 11.5t-12.5 29.5q0 17 12 29t30 12zM423 334q0 15 11.5 28t29.5 13t29.5 -13t11.5 -29q0 -18 -12.5 -29t-28.5 -11q-18 0 -29.5 12.5t-11.5 28.5zM336 544
q0 14 11 25.5t27 11.5q15 0 26.5 -10.5t11.5 -26.5q0 -15 -10.5 -26.5t-27.5 -11.5q-15 0 -26.5 11.5t-11.5 26.5zM421 56v18h-89v-145h20v70h51v16h-51v41h69zM527 56v18h-89v-145h20v70h51v16h-51v41h69zM564 55q6 2 10 2q40 0 40 -27q0 -28 -38 -28h-3q-5 0 -9 1v52z
M564 -15q5 -1 8.5 -1h5.5q56 0 56 49q0 42 -63 42q-3 0 -9.5 -0.5t-17.5 -1.5v-144h20v56zM71 -193q-2 -2 -6.5 -4.5t-8.5 -2.5q-27 0 -27 30q0 14 7 23t19 9q9 0 16 -9v-46zM86 -211v118h-15v-39q-6 6 -20 6q-16 0 -27 -13.5t-11 -32.5q0 -18 9.5 -29.5t25.5 -11.5
q8 0 13 2t10 5v-5h15zM142 -138q11 0 16.5 -7t5.5 -15h-46q5 22 24 22zM178 -171q1 3 1 9q0 17 -11.5 26.5t-26.5 9.5q-19 0 -29 -15t-10 -30q0 -19 11 -30.5t28 -11.5t31 9l-7 11q-10 -8 -21 -8q-14 0 -20 9.5t-6 20.5h60zM245 -95q-4 1 -7 1.5t-7 0.5q-13 0 -21 -9.5
t-8 -24.5h-12v-13h12v-71h15v71h17v13h-17q0 9 3.5 15.5t11.5 6.5q6 0 9 -2zM322 -211v52q0 15 -8 24t-21 9q-8 0 -14.5 -3t-8.5 -8v44h-15v-118h15v62q2 4 7.5 7.5t10.5 3.5q9 0 14 -6t5 -15v-52h15zM389 -191q-9 -10 -21 -10q-15 0 -15 12q0 8 7 14t19 6q5 0 10 -1v-21z
M390 -202q4 -11 21 -11v8q-7 3 -7 14v30q0 35 -36 35q-7 0 -14 -2.5t-11 -5.5l6 -13q8 8 21 8q19 0 19 -21q-5 2 -11 2q-17 0 -28.5 -9t-11.5 -21q0 -11 7.5 -18t17.5 -7q19 0 27 11zM479 -128q-10 2 -12 2q-16 0 -23 -15v14h-15v-84h15v47q0 11 5.5 18.5t13.5 7.5
q4 0 10 -4zM500 -170q0 32 22 32q23 0 23 -32q0 -15 -6.5 -23t-16.5 -8q-22 0 -22 31zM484 -170q0 -20 10 -31.5t28 -11.5q17 0 27.5 11.5t10.5 31.5q0 44 -38 44q-17 0 -27.5 -12t-10.5 -32zM593 -190q-5 0 -8.5 -3.5t-3.5 -7.5q0 -12 12 -12q5 0 8.5 3.5t3.5 8.5
q0 4 -3.5 7.5t-8.5 3.5zM699 -134q-4 2 -12 5t-14 3q-20 0 -32 -12.5t-12 -32.5q0 -19 11.5 -30.5t28.5 -11.5t30 7l-7 13q-10 -8 -20 -8q-27 0 -27 30q0 15 7.5 24t18.5 9q6 0 12 -2.5t8 -4.5zM725 -170q0 32 22 32q23 0 23 -32q0 -15 -6.5 -23t-16.5 -8q-22 0 -22 31z
M709 -170q0 -20 10 -31.5t28 -11.5q17 0 27.5 11.5t10.5 31.5q0 44 -38 44q-17 0 -27.5 -12t-10.5 -32zM913 -211v55q0 30 -27 30q-8 0 -15 -3.5t-9 -7.5q-6 11 -25 11q-13 0 -22 -11l-5 10h-9v-84h15v61q2 4 6.5 8t9.5 4q17 0 17 -14v-59h15v61q2 5 6.5 8.5t10.5 3.5
q17 0 17 -20v-53h15z" />
    <glyph glyph-name="seven" unicode="7" horiz-adv-x="932" 
d="M296 129q-5 -21 -16.5 -44t-24 -41.5t-24.5 -31t-17 -13.5q-20 0 -35.5 8t-31.5 23q-13 -2 -27.5 -2t-27 6t-19.5 15.5t-10.5 20.5t-5.5 23q-20 9 -28 16.5t-8 28.5q0 31 14.5 50t36 29t47.5 14t48 6q-18 38 -18 88q0 55 22 107t60 92t88 64.5t107 24.5q17 0 35 -3
q2 21 5.5 48.5t12 52t25 41.5t42.5 17q22 0 32.5 -10t16.5 -23q10 4 26 4t31 -21t22 -47q12 -4 22.5 -8t18.5 -9.5t12 -14.5t4 -24q0 -23 -10 -41t-27 -31t-40.5 -21.5t-49.5 -13.5q11 -22 17.5 -47t6.5 -51q0 -55 -24.5 -107t-64.5 -92t-100 -65.5t-143 -17.5zM321 195
q43 0 86 20.5t76.5 55t54.5 78t21 90.5q0 33 -11.5 62t-32.5 50.5t-49 34t-62 12.5q-44 0 -87 -21t-76 -55t-54 -78t-21 -91q0 -34 12 -63t33 -50t49.5 -33t60.5 -12zM476 611q18 -7 33.5 -17t29.5 -21q23 1 45 6t39 13t27.5 20.5t10.5 29.5q0 4 -5 7t-12 5.5t-15 6t-14 8.5
q-4 5 -6.5 13.5l-5 17.5t-6.5 15.5t-12 6.5q-7 0 -14 -3t-15 -3q-10 0 -15 5.5t-7.5 12.5t-5.5 12.5t-9 5.5q-14 0 -22 -18t-12.5 -42t-6.5 -47.5t-2 -33.5zM230 177q-11 5 -18.5 10t-13.5 10t-27 26q-12 0 -34.5 -1.5t-44.5 -7.5t-38 -17.5t-16 -31.5q0 -7 3.5 -9t8.5 -3.5
l10 -3t8 -6.5q3 -4 4 -11.5t3.5 -15t7 -13t15.5 -5.5q7 0 16.5 2t18 2t14.5 -5t11 -11.5t11 -11.5t14 -5q19 23 27.5 39t14 34.5t5.5 34.5zM278 257q0 20 15 35t36 15q19 0 34 -14t15 -35q0 -20 -13.5 -36t-36.5 -16q-20 0 -35 15t-15 36zM217 458q0 19 14 33.5t34 14.5
q21 0 34 -15t13 -33q0 -21 -14.5 -34t-32.5 -13q-22 0 -35 14.5t-13 32.5zM494 510q18 0 31.5 -12.5t13.5 -32.5q0 -18 -12 -32.5t-33 -14.5q-18 0 -32 13t-14 34q0 18 13.5 31.5t32.5 13.5zM317 391q0 18 13.5 31.5t31.5 13.5q20 0 32.5 -14t12.5 -32q0 -19 -13.5 -31.5
t-31.5 -12.5q-20 0 -32.5 14t-12.5 31zM228 375q15 0 27.5 -11t12.5 -29q0 -17 -11.5 -29.5t-29.5 -12.5q-16 0 -28.5 11.5t-12.5 29.5q0 17 12 29t30 12zM423 334q0 15 11.5 28t29.5 13t29.5 -13t11.5 -29q0 -18 -12.5 -29t-28.5 -11q-18 0 -29.5 12.5t-11.5 28.5zM336 544
q0 14 11 25.5t27 11.5q15 0 26.5 -10.5t11.5 -26.5q0 -15 -10.5 -26.5t-27.5 -11.5q-15 0 -26.5 11.5t-11.5 26.5zM421 56v18h-89v-145h20v70h51v16h-51v41h69zM527 56v18h-89v-145h20v70h51v16h-51v41h69zM564 55q6 2 10 2q40 0 40 -27q0 -28 -38 -28h-3q-5 0 -9 1v52z
M564 -15q5 -1 8.5 -1h5.5q56 0 56 49q0 42 -63 42q-3 0 -9.5 -0.5t-17.5 -1.5v-144h20v56zM71 -193q-2 -2 -6.5 -4.5t-8.5 -2.5q-27 0 -27 30q0 14 7 23t19 9q9 0 16 -9v-46zM86 -211v118h-15v-39q-6 6 -20 6q-16 0 -27 -13.5t-11 -32.5q0 -18 9.5 -29.5t25.5 -11.5
q8 0 13 2t10 5v-5h15zM142 -138q11 0 16.5 -7t5.5 -15h-46q5 22 24 22zM178 -171q1 3 1 9q0 17 -11.5 26.5t-26.5 9.5q-19 0 -29 -15t-10 -30q0 -19 11 -30.5t28 -11.5t31 9l-7 11q-10 -8 -21 -8q-14 0 -20 9.5t-6 20.5h60zM245 -95q-4 1 -7 1.5t-7 0.5q-13 0 -21 -9.5
t-8 -24.5h-12v-13h12v-71h15v71h17v13h-17q0 9 3.5 15.5t11.5 6.5q6 0 9 -2zM322 -211v52q0 15 -8 24t-21 9q-8 0 -14.5 -3t-8.5 -8v44h-15v-118h15v62q2 4 7.5 7.5t10.5 3.5q9 0 14 -6t5 -15v-52h15zM389 -191q-9 -10 -21 -10q-15 0 -15 12q0 8 7 14t19 6q5 0 10 -1v-21z
M390 -202q4 -11 21 -11v8q-7 3 -7 14v30q0 35 -36 35q-7 0 -14 -2.5t-11 -5.5l6 -13q8 8 21 8q19 0 19 -21q-5 2 -11 2q-17 0 -28.5 -9t-11.5 -21q0 -11 7.5 -18t17.5 -7q19 0 27 11zM479 -128q-10 2 -12 2q-16 0 -23 -15v14h-15v-84h15v47q0 11 5.5 18.5t13.5 7.5
q4 0 10 -4zM500 -170q0 32 22 32q23 0 23 -32q0 -15 -6.5 -23t-16.5 -8q-22 0 -22 31zM484 -170q0 -20 10 -31.5t28 -11.5q17 0 27.5 11.5t10.5 31.5q0 44 -38 44q-17 0 -27.5 -12t-10.5 -32zM593 -190q-5 0 -8.5 -3.5t-3.5 -7.5q0 -12 12 -12q5 0 8.5 3.5t3.5 8.5
q0 4 -3.5 7.5t-8.5 3.5zM699 -134q-4 2 -12 5t-14 3q-20 0 -32 -12.5t-12 -32.5q0 -19 11.5 -30.5t28.5 -11.5t30 7l-7 13q-10 -8 -20 -8q-27 0 -27 30q0 15 7.5 24t18.5 9q6 0 12 -2.5t8 -4.5zM725 -170q0 32 22 32q23 0 23 -32q0 -15 -6.5 -23t-16.5 -8q-22 0 -22 31z
M709 -170q0 -20 10 -31.5t28 -11.5q17 0 27.5 11.5t10.5 31.5q0 44 -38 44q-17 0 -27.5 -12t-10.5 -32zM913 -211v55q0 30 -27 30q-8 0 -15 -3.5t-9 -7.5q-6 11 -25 11q-13 0 -22 -11l-5 10h-9v-84h15v61q2 4 6.5 8t9.5 4q17 0 17 -14v-59h15v61q2 5 6.5 8.5t10.5 3.5
q17 0 17 -20v-53h15z" />
    <glyph glyph-name="eight" unicode="8" horiz-adv-x="932" 
d="M296 129q-5 -21 -16.5 -44t-24 -41.5t-24.5 -31t-17 -13.5q-20 0 -35.5 8t-31.5 23q-13 -2 -27.5 -2t-27 6t-19.5 15.5t-10.5 20.5t-5.5 23q-20 9 -28 16.5t-8 28.5q0 31 14.5 50t36 29t47.5 14t48 6q-18 38 -18 88q0 55 22 107t60 92t88 64.5t107 24.5q17 0 35 -3
q2 21 5.5 48.5t12 52t25 41.5t42.5 17q22 0 32.5 -10t16.5 -23q10 4 26 4t31 -21t22 -47q12 -4 22.5 -8t18.5 -9.5t12 -14.5t4 -24q0 -23 -10 -41t-27 -31t-40.5 -21.5t-49.5 -13.5q11 -22 17.5 -47t6.5 -51q0 -55 -24.5 -107t-64.5 -92t-100 -65.5t-143 -17.5zM321 195
q43 0 86 20.5t76.5 55t54.5 78t21 90.5q0 33 -11.5 62t-32.5 50.5t-49 34t-62 12.5q-44 0 -87 -21t-76 -55t-54 -78t-21 -91q0 -34 12 -63t33 -50t49.5 -33t60.5 -12zM476 611q18 -7 33.5 -17t29.5 -21q23 1 45 6t39 13t27.5 20.5t10.5 29.5q0 4 -5 7t-12 5.5t-15 6t-14 8.5
q-4 5 -6.5 13.5l-5 17.5t-6.5 15.5t-12 6.5q-7 0 -14 -3t-15 -3q-10 0 -15 5.5t-7.5 12.5t-5.5 12.5t-9 5.5q-14 0 -22 -18t-12.5 -42t-6.5 -47.5t-2 -33.5zM230 177q-11 5 -18.5 10t-13.5 10t-27 26q-12 0 -34.5 -1.5t-44.5 -7.5t-38 -17.5t-16 -31.5q0 -7 3.5 -9t8.5 -3.5
l10 -3t8 -6.5q3 -4 4 -11.5t3.5 -15t7 -13t15.5 -5.5q7 0 16.5 2t18 2t14.5 -5t11 -11.5t11 -11.5t14 -5q19 23 27.5 39t14 34.5t5.5 34.5zM278 257q0 20 15 35t36 15q19 0 34 -14t15 -35q0 -20 -13.5 -36t-36.5 -16q-20 0 -35 15t-15 36zM217 458q0 19 14 33.5t34 14.5
q21 0 34 -15t13 -33q0 -21 -14.5 -34t-32.5 -13q-22 0 -35 14.5t-13 32.5zM494 510q18 0 31.5 -12.5t13.5 -32.5q0 -18 -12 -32.5t-33 -14.5q-18 0 -32 13t-14 34q0 18 13.5 31.5t32.5 13.5zM317 391q0 18 13.5 31.5t31.5 13.5q20 0 32.5 -14t12.5 -32q0 -19 -13.5 -31.5
t-31.5 -12.5q-20 0 -32.5 14t-12.5 31zM228 375q15 0 27.5 -11t12.5 -29q0 -17 -11.5 -29.5t-29.5 -12.5q-16 0 -28.5 11.5t-12.5 29.5q0 17 12 29t30 12zM423 334q0 15 11.5 28t29.5 13t29.5 -13t11.5 -29q0 -18 -12.5 -29t-28.5 -11q-18 0 -29.5 12.5t-11.5 28.5zM336 544
q0 14 11 25.5t27 11.5q15 0 26.5 -10.5t11.5 -26.5q0 -15 -10.5 -26.5t-27.5 -11.5q-15 0 -26.5 11.5t-11.5 26.5zM421 56v18h-89v-145h20v70h51v16h-51v41h69zM527 56v18h-89v-145h20v70h51v16h-51v41h69zM564 55q6 2 10 2q40 0 40 -27q0 -28 -38 -28h-3q-5 0 -9 1v52z
M564 -15q5 -1 8.5 -1h5.5q56 0 56 49q0 42 -63 42q-3 0 -9.5 -0.5t-17.5 -1.5v-144h20v56zM71 -193q-2 -2 -6.5 -4.5t-8.5 -2.5q-27 0 -27 30q0 14 7 23t19 9q9 0 16 -9v-46zM86 -211v118h-15v-39q-6 6 -20 6q-16 0 -27 -13.5t-11 -32.5q0 -18 9.5 -29.5t25.5 -11.5
q8 0 13 2t10 5v-5h15zM142 -138q11 0 16.5 -7t5.5 -15h-46q5 22 24 22zM178 -171q1 3 1 9q0 17 -11.5 26.5t-26.5 9.5q-19 0 -29 -15t-10 -30q0 -19 11 -30.5t28 -11.5t31 9l-7 11q-10 -8 -21 -8q-14 0 -20 9.5t-6 20.5h60zM245 -95q-4 1 -7 1.5t-7 0.5q-13 0 -21 -9.5
t-8 -24.5h-12v-13h12v-71h15v71h17v13h-17q0 9 3.5 15.5t11.5 6.5q6 0 9 -2zM322 -211v52q0 15 -8 24t-21 9q-8 0 -14.5 -3t-8.5 -8v44h-15v-118h15v62q2 4 7.5 7.5t10.5 3.5q9 0 14 -6t5 -15v-52h15zM389 -191q-9 -10 -21 -10q-15 0 -15 12q0 8 7 14t19 6q5 0 10 -1v-21z
M390 -202q4 -11 21 -11v8q-7 3 -7 14v30q0 35 -36 35q-7 0 -14 -2.5t-11 -5.5l6 -13q8 8 21 8q19 0 19 -21q-5 2 -11 2q-17 0 -28.5 -9t-11.5 -21q0 -11 7.5 -18t17.5 -7q19 0 27 11zM479 -128q-10 2 -12 2q-16 0 -23 -15v14h-15v-84h15v47q0 11 5.5 18.5t13.5 7.5
q4 0 10 -4zM500 -170q0 32 22 32q23 0 23 -32q0 -15 -6.5 -23t-16.5 -8q-22 0 -22 31zM484 -170q0 -20 10 -31.5t28 -11.5q17 0 27.5 11.5t10.5 31.5q0 44 -38 44q-17 0 -27.5 -12t-10.5 -32zM593 -190q-5 0 -8.5 -3.5t-3.5 -7.5q0 -12 12 -12q5 0 8.5 3.5t3.5 8.5
q0 4 -3.5 7.5t-8.5 3.5zM699 -134q-4 2 -12 5t-14 3q-20 0 -32 -12.5t-12 -32.5q0 -19 11.5 -30.5t28.5 -11.5t30 7l-7 13q-10 -8 -20 -8q-27 0 -27 30q0 15 7.5 24t18.5 9q6 0 12 -2.5t8 -4.5zM725 -170q0 32 22 32q23 0 23 -32q0 -15 -6.5 -23t-16.5 -8q-22 0 -22 31z
M709 -170q0 -20 10 -31.5t28 -11.5q17 0 27.5 11.5t10.5 31.5q0 44 -38 44q-17 0 -27.5 -12t-10.5 -32zM913 -211v55q0 30 -27 30q-8 0 -15 -3.5t-9 -7.5q-6 11 -25 11q-13 0 -22 -11l-5 10h-9v-84h15v61q2 4 6.5 8t9.5 4q17 0 17 -14v-59h15v61q2 5 6.5 8.5t10.5 3.5
q17 0 17 -20v-53h15z" />
    <glyph glyph-name="nine" unicode="9" horiz-adv-x="932" 
d="M296 129q-5 -21 -16.5 -44t-24 -41.5t-24.5 -31t-17 -13.5q-20 0 -35.5 8t-31.5 23q-13 -2 -27.5 -2t-27 6t-19.5 15.5t-10.5 20.5t-5.5 23q-20 9 -28 16.5t-8 28.5q0 31 14.5 50t36 29t47.5 14t48 6q-18 38 -18 88q0 55 22 107t60 92t88 64.5t107 24.5q17 0 35 -3
q2 21 5.5 48.5t12 52t25 41.5t42.5 17q22 0 32.5 -10t16.5 -23q10 4 26 4t31 -21t22 -47q12 -4 22.5 -8t18.5 -9.5t12 -14.5t4 -24q0 -23 -10 -41t-27 -31t-40.5 -21.5t-49.5 -13.5q11 -22 17.5 -47t6.5 -51q0 -55 -24.5 -107t-64.5 -92t-100 -65.5t-143 -17.5zM321 195
q43 0 86 20.5t76.5 55t54.5 78t21 90.5q0 33 -11.5 62t-32.5 50.5t-49 34t-62 12.5q-44 0 -87 -21t-76 -55t-54 -78t-21 -91q0 -34 12 -63t33 -50t49.5 -33t60.5 -12zM476 611q18 -7 33.5 -17t29.5 -21q23 1 45 6t39 13t27.5 20.5t10.5 29.5q0 4 -5 7t-12 5.5t-15 6t-14 8.5
q-4 5 -6.5 13.5l-5 17.5t-6.5 15.5t-12 6.5q-7 0 -14 -3t-15 -3q-10 0 -15 5.5t-7.5 12.5t-5.5 12.5t-9 5.5q-14 0 -22 -18t-12.5 -42t-6.5 -47.5t-2 -33.5zM230 177q-11 5 -18.5 10t-13.5 10t-27 26q-12 0 -34.5 -1.5t-44.5 -7.5t-38 -17.5t-16 -31.5q0 -7 3.5 -9t8.5 -3.5
l10 -3t8 -6.5q3 -4 4 -11.5t3.5 -15t7 -13t15.5 -5.5q7 0 16.5 2t18 2t14.5 -5t11 -11.5t11 -11.5t14 -5q19 23 27.5 39t14 34.5t5.5 34.5zM278 257q0 20 15 35t36 15q19 0 34 -14t15 -35q0 -20 -13.5 -36t-36.5 -16q-20 0 -35 15t-15 36zM217 458q0 19 14 33.5t34 14.5
q21 0 34 -15t13 -33q0 -21 -14.5 -34t-32.5 -13q-22 0 -35 14.5t-13 32.5zM494 510q18 0 31.5 -12.5t13.5 -32.5q0 -18 -12 -32.5t-33 -14.5q-18 0 -32 13t-14 34q0 18 13.5 31.5t32.5 13.5zM317 391q0 18 13.5 31.5t31.5 13.5q20 0 32.5 -14t12.5 -32q0 -19 -13.5 -31.5
t-31.5 -12.5q-20 0 -32.5 14t-12.5 31zM228 375q15 0 27.5 -11t12.5 -29q0 -17 -11.5 -29.5t-29.5 -12.5q-16 0 -28.5 11.5t-12.5 29.5q0 17 12 29t30 12zM423 334q0 15 11.5 28t29.5 13t29.5 -13t11.5 -29q0 -18 -12.5 -29t-28.5 -11q-18 0 -29.5 12.5t-11.5 28.5zM336 544
q0 14 11 25.5t27 11.5q15 0 26.5 -10.5t11.5 -26.5q0 -15 -10.5 -26.5t-27.5 -11.5q-15 0 -26.5 11.5t-11.5 26.5zM421 56v18h-89v-145h20v70h51v16h-51v41h69zM527 56v18h-89v-145h20v70h51v16h-51v41h69zM564 55q6 2 10 2q40 0 40 -27q0 -28 -38 -28h-3q-5 0 -9 1v52z
M564 -15q5 -1 8.5 -1h5.5q56 0 56 49q0 42 -63 42q-3 0 -9.5 -0.5t-17.5 -1.5v-144h20v56zM71 -193q-2 -2 -6.5 -4.5t-8.5 -2.5q-27 0 -27 30q0 14 7 23t19 9q9 0 16 -9v-46zM86 -211v118h-15v-39q-6 6 -20 6q-16 0 -27 -13.5t-11 -32.5q0 -18 9.5 -29.5t25.5 -11.5
q8 0 13 2t10 5v-5h15zM142 -138q11 0 16.5 -7t5.5 -15h-46q5 22 24 22zM178 -171q1 3 1 9q0 17 -11.5 26.5t-26.5 9.5q-19 0 -29 -15t-10 -30q0 -19 11 -30.5t28 -11.5t31 9l-7 11q-10 -8 -21 -8q-14 0 -20 9.5t-6 20.5h60zM245 -95q-4 1 -7 1.5t-7 0.5q-13 0 -21 -9.5
t-8 -24.5h-12v-13h12v-71h15v71h17v13h-17q0 9 3.5 15.5t11.5 6.5q6 0 9 -2zM322 -211v52q0 15 -8 24t-21 9q-8 0 -14.5 -3t-8.5 -8v44h-15v-118h15v62q2 4 7.5 7.5t10.5 3.5q9 0 14 -6t5 -15v-52h15zM389 -191q-9 -10 -21 -10q-15 0 -15 12q0 8 7 14t19 6q5 0 10 -1v-21z
M390 -202q4 -11 21 -11v8q-7 3 -7 14v30q0 35 -36 35q-7 0 -14 -2.5t-11 -5.5l6 -13q8 8 21 8q19 0 19 -21q-5 2 -11 2q-17 0 -28.5 -9t-11.5 -21q0 -11 7.5 -18t17.5 -7q19 0 27 11zM479 -128q-10 2 -12 2q-16 0 -23 -15v14h-15v-84h15v47q0 11 5.5 18.5t13.5 7.5
q4 0 10 -4zM500 -170q0 32 22 32q23 0 23 -32q0 -15 -6.5 -23t-16.5 -8q-22 0 -22 31zM484 -170q0 -20 10 -31.5t28 -11.5q17 0 27.5 11.5t10.5 31.5q0 44 -38 44q-17 0 -27.5 -12t-10.5 -32zM593 -190q-5 0 -8.5 -3.5t-3.5 -7.5q0 -12 12 -12q5 0 8.5 3.5t3.5 8.5
q0 4 -3.5 7.5t-8.5 3.5zM699 -134q-4 2 -12 5t-14 3q-20 0 -32 -12.5t-12 -32.5q0 -19 11.5 -30.5t28.5 -11.5t30 7l-7 13q-10 -8 -20 -8q-27 0 -27 30q0 15 7.5 24t18.5 9q6 0 12 -2.5t8 -4.5zM725 -170q0 32 22 32q23 0 23 -32q0 -15 -6.5 -23t-16.5 -8q-22 0 -22 31z
M709 -170q0 -20 10 -31.5t28 -11.5q17 0 27.5 11.5t10.5 31.5q0 44 -38 44q-17 0 -27.5 -12t-10.5 -32zM913 -211v55q0 30 -27 30q-8 0 -15 -3.5t-9 -7.5q-6 11 -25 11q-13 0 -22 -11l-5 10h-9v-84h15v61q2 4 6.5 8t9.5 4q17 0 17 -14v-59h15v61q2 5 6.5 8.5t10.5 3.5
q17 0 17 -20v-53h15z" />
    <glyph glyph-name="colon" unicode=":" horiz-adv-x="531" 
d="M381 43q0 -34 -13.5 -65t-37 -54.5t-54.5 -37.5t-67 -14t-68 13.5t-55.5 37t-37 54.5t-13.5 66q0 30 10 57.5t28 50t42.5 38t53.5 22.5q-29 7 -53.5 22.5t-42.5 37.5t-28 49.5t-10 57.5q0 35 14 66.5t37.5 55t55 37.5t66.5 14q36 0 67.5 -14t55 -37.5t37 -55t13.5 -66.5
q0 -60 -37.5 -105.5t-95.5 -61.5q28 -7 52.5 -22.5t42.5 -38t28 -50t10 -57.5zM179 -48q24 0 46 9.5t39 26t27 38.5t10 47t-9.5 47.5t-26.5 39t-39.5 26.5t-47.5 10t-47.5 -10t-39 -26.5t-26.5 -39t-10 -47.5t9.5 -47t26.5 -38.5t39.5 -26t48.5 -9.5zM178 287q24 0 46 9.5
t39.5 25.5t27.5 38t10 48q0 25 -9.5 47.5t-26.5 39t-39.5 26.5t-47.5 10t-47.5 -10t-39 -26.5t-26.5 -39t-10 -47.5t10 -47t26.5 -38.5t39 -26t47.5 -9.5z" />
    <glyph glyph-name="semicolon" unicode=";" horiz-adv-x="550" 
d="M-41 -101q0 41 31.5 90.5t78 95t100 80t97.5 46.5q-29 6 -54 21.5t-43 38t-28.5 50t-10.5 58.5q0 35 14 66t37.5 54.5t55 37.5t66.5 14q36 0 67.5 -14t55 -37.5t37.5 -55t14 -66.5q0 -30 -10.5 -57.5t-29 -50t-44 -38t-55.5 -22.5q21 -6 39.5 -18t32.5 -28.5t22.5 -36.5
t8.5 -42q0 -31 -20.5 -65t-54 -67t-74.5 -63t-82.5 -53t-78.5 -36.5t-61 -13.5q-50 0 -80.5 31.5t-30.5 80.5zM-21 -71q0 -27 17 -44.5t44 -17.5q21 0 53 11.5t67.5 30.5t71.5 44t64.5 52.5t46.5 55.5t18 54q0 17 -8 31.5t-21 25.5t-29.5 17.5t-32.5 6.5q-23 0 -53.5 -12.5
t-63 -34t-64 -49t-56 -57t-39.5 -59.5t-15 -55zM274 287q24 0 46 9.5t39.5 25.5t27.5 38t10 48q0 25 -10 47t-26.5 39t-39.5 27t-48 10t-47.5 -10t-39 -26.5t-26.5 -38.5t-10 -47t10 -47.5t26.5 -39t39 -26t48.5 -9.5z" />
    <glyph glyph-name="less" unicode="&#x3c;" horiz-adv-x="617" 
d="M497 128q0 -85 -37.5 -124.5t-105.5 -39.5q-38 0 -79 13.5t-80.5 37.5t-75.5 56t-63 69t-43 77.5t-16 80.5q0 72 34.5 133.5t87.5 106.5t116 70.5t120 25.5q66 0 104 -39.5t38 -124.5q0 -30 -10.5 -55.5t-27.5 -47t-39.5 -38.5t-47.5 -30q25 -13 47.5 -30t40 -38
t27.5 -47t10 -56zM413 160q0 31 -15 56t-39 44t-53.5 32t-58 21.5t-88.5 17.5q60 9 88.5 17t58 21.5t53.5 32t39 43.5t15 57q0 58 -24 85t-66 27q-48 0 -102 -25.5t-99.5 -66t-75 -91t-29.5 -101.5t29.5 -101t75 -90.5t99 -65.5t101.5 -25q43 0 67 27t24 85z" />
    <glyph glyph-name="question" unicode="?" horiz-adv-x="641" 
d="M487 -3q0 -40 -15.5 -74t-42 -58.5t-61.5 -38t-73 -13.5q-39 0 -74 13.5t-61.5 38.5t-42 58.5t-15.5 74.5q0 49 22.5 87.5t59.5 62.5q-23 20 -34.5 47t-11.5 56q0 33 13.5 60.5t33.5 52t41.5 47t38.5 45.5q-27 -6 -52.5 -26l-52 -42.5t-55 -40t-59.5 -17.5
q-25 0 -39.5 11t-22.5 27t-10.5 33t-2.5 28q0 48 26 92t63 78q54 49 115 70.5t124 21.5q51 0 109 -14t107 -42.5t81 -72.5t32 -103q0 -46 -20 -91.5t-52 -86t-73 -74.5t-83 -56q38 -24 62.5 -63.5t24.5 -90.5zM286 492q0 -25 -20 -48.5t-43.5 -48t-43.5 -51.5t-20 -59
q0 -30 21 -54.5t66 -24.5q44 0 95.5 26t95.5 67t73 91.5t29 99.5q0 46 -26.5 80t-67 56.5t-88 33t-89.5 10.5q-54 0 -106.5 -18t-96.5 -58q-32 -29 -52.5 -65t-20.5 -68q0 -4 0.5 -11t3 -14t7.5 -12t13 -5q17 0 43.5 19.5l56.5 43.5t61 43.5t56 19.5q23 0 38 -16t15 -37z
M398 31q0 28 -11.5 52t-30.5 41t-44 26.5t-52 9.5t-52 -9.5t-44 -26.5t-30 -40.5t-11 -51.5q0 -29 11 -52.5t30 -41t44 -27t53 -9.5q27 0 52 9.5t44 27t30 41t11 51.5z" />
    <glyph glyph-name="at" unicode="@" horiz-adv-x="961" 
d="M882 350q0 -51 -16.5 -114.5t-50.5 -118.5q23 -1 38 -8t24 -17t12.5 -22t3.5 -23q0 -29 -21.5 -55t-57 -48t-80.5 -40t-91.5 -30.5t-90.5 -19t-78 -6.5q-44 0 -95.5 11.5t-102 35t-97.5 58.5t-83.5 81t-58 103.5t-21.5 126.5q0 103 37 184t99 137t143 85t168 29
q47 0 96 -10.5t95.5 -30.5t88 -50t72.5 -69t49 -86.5t18 -102.5zM454 6q-54 0 -108 21t-97.5 58.5t-70.5 89.5t-27 114q0 60 25.5 116.5t68 100.5t97.5 71t114 27q45 0 90 -16.5t81 -46t58.5 -70.5t22.5 -89q0 -14 -2 -36.5t-7 -47t-12.5 -49.5t-17.5 -43q4 11 7.5 27.5
t5.5 34.5t3.5 35.5t2.5 31.5q-17 -30 -29.5 -60.5t-12.5 -55.5q0 -11 2.5 -22t5.5 -11q2 0 4 1q-16 -21 -36 -21q-12 0 -23 7.5t-19 19.5t-13 27.5t-5 32.5q0 31 15 67t33 70l33.5 61.5t17.5 41.5l-8 8q-15 0 -26.5 -6.5t-22.5 -14t-22.5 -13.5t-26.5 -6q-19 0 -31 9.5
t-25 21.5t-31 21.5t-48 9.5q-42 0 -78 -20t-62.5 -52.5t-41.5 -72.5t-15 -80q0 -32 9.5 -66.5t27.5 -64t44 -48.5t59 -19q22 0 36 7.5t25.5 17t23.5 17t30 7.5q19 0 32.5 -9t26.5 -19.5t29.5 -19.5t43.5 -9q32 0 58.5 14.5t47.5 38t36.5 53.5t25.5 62t15 63.5t5 57.5
q0 72 -34.5 127.5t-88 93.5t-118.5 57.5t-126 19.5q-77 0 -148.5 -30.5t-126.5 -82.5t-87.5 -121.5t-32.5 -148.5q0 -60 19 -110.5t51.5 -91t74 -71t87 -51t91.5 -30.5t86 -10q29 0 67 5t78.5 14.5t79.5 22.5t70 28.5t50 33.5t19 37q0 9 -7 17t-32 8q-33 0 -68.5 -14.5
l-74.5 -31.5t-82 -31.5t-91 -14.5zM517 356q0 -20 -15 -53.5t-36 -65.5q13 23 22 47.5t9 38.5q0 6 -2.5 15.5t-6.5 18t-10.5 14.5t-13.5 6q-11 0 -19 -13.5t-13.5 -32.5t-8 -40t-2.5 -37q0 -6 0.5 -16t1 -19t1.5 -16t2 -7q3 0 9 2q-22 -22 -41 -22q-14 0 -24.5 12t-18 29.5
t-11 37.5t-3.5 35q0 19 6 48.5t17.5 56.5t29.5 46.5t42 19.5q19 0 34.5 -12t27 -28.5t17.5 -34.5t6 -30zM487 26q33 0 65 9q-3 2 -9 7l-11 10q-5 5 -11 9t-11 4t-12.5 -4.5t-15.5 -11l-15.5 -12.5t-13.5 -9q8 -1 16.5 -1.5t17.5 -0.5z" />
    <glyph glyph-name="A" unicode="A" horiz-adv-x="857" 
d="M146 414q0 21 -10.5 38.5t-22.5 35t-22.5 37.5t-10.5 47q0 38 16 67t42 49t59 33t67 20.5t65 10.5t54 3t54.5 -3t65 -10.5t67 -20.5t59.5 -33t42 -49t16 -67q0 -29 -10.5 -50t-22.5 -38.5l-22.5 -34t-10.5 -35.5q0 -29 14.5 -57t36.5 -56t48 -55.5t48 -56.5t36.5 -60.5
t14.5 -65.5t-15.5 -62.5t-41.5 -51.5t-58.5 -40.5t-67 -29t-67 -17t-57.5 -5.5q-21 0 -44 4.5t-43 16t-35 31.5t-19 51q-5 -29 -19 -48q-14 -20 -33.5 -30.5t-41 -14.5t-39.5 -4q-37 0 -87 12.5t-95 37.5t-76.5 62.5t-31.5 86.5q0 39 14.5 72t36.5 63t48 57t48 53t36.5 52.5
t14.5 54.5zM167 450q0 -34 -14.5 -66.5t-36.5 -63.5t-48 -60.5t-48 -57.5t-36.5 -55t-14.5 -53q0 -35 25.5 -61.5t61.5 -44.5t76 -27t69 -9q14 0 29 2.5t27 10t19.5 20.5t7.5 34q0 25 -10.5 39.5t-22.5 27.5t-22.5 27t-10.5 38q0 22 9.5 41t26 33t37 22.5t43.5 8.5
t44.5 -8.5t37.5 -23t25.5 -34t9.5 -41.5q0 -23 -9.5 -37t-20.5 -27.5t-20.5 -28.5t-9.5 -39q0 -22 8.5 -35.5t21.5 -21.5t29 -11t31 -3q30 0 73 9.5t82 28.5t66.5 47t27.5 64q0 26 -14.5 53.5t-36.5 55t-48 57t-48 60t-36.5 62.5t-14.5 67q0 30 10.5 49t22.5 34.5t22.5 32
t10.5 41.5q0 27 -13 46.5t-34.5 33.5t-48.5 23t-54.5 14.5t-53.5 7.5t-45 2q-28 0 -70.5 -5t-82 -19t-67.5 -38.5t-28 -64.5q0 -25 10.5 -41.5t22.5 -32t22.5 -34.5t10.5 -49zM334 313q-29 0 -51 19t-22 50q0 15 5.5 32t15 31t23.5 23.5t31 9.5q16 0 29.5 -9.5t23 -24
t14.5 -31t5 -30.5q0 -31 -21.5 -50.5t-52.5 -19.5zM307 119q0 -8 8.5 -19l20 -25t21.5 -31t14 -37q1 8 3.5 16t7 17.5t12.5 20.5t20 25q7 8 11.5 14.5t4.5 16.5q0 19 -18.5 34.5t-43.5 15.5q-24 0 -42.5 -14.5t-18.5 -33.5zM368 334q19 0 19 17q0 4 -1 10.5t-3.5 12.5
t-6 10.5t-7.5 4.5q-8 0 -13.5 -14.5t-5.5 -23.5q0 -10 5.5 -13.5t12.5 -3.5z" />
    <glyph glyph-name="B" unicode="B" horiz-adv-x="761" 
d="M61 286q0 50 -17.5 90.5t-38 77t-38 71t-17.5 72.5q0 37 14.5 58t36.5 30.5t48 11.5t48 2q33 0 89 -2t121 -10t131.5 -24t120.5 -44t88 -71t34 -104q0 -25 -8.5 -43.5t-21.5 -32.5t-28.5 -24l-28.5 -18.5t-21.5 -17t-8.5 -17.5q0 -15 21.5 -26t47.5 -26t47.5 -37.5
t21.5 -59.5q0 -65 -37.5 -110t-96 -75t-130 -47t-139.5 -25t-125.5 -10t-86.5 -2t-54.5 4.5t-44 16t-29 31.5t-10.5 51q0 39 17.5 74t38.5 71t38.5 75.5t17.5 89.5zM82 320q0 -60 -17.5 -105.5t-38.5 -81.5l-38.5 -65t-17.5 -56q0 -30 24 -40t62 -10q26 0 77.5 2t113.5 8.5
t127 20t118 36.5t87 57.5t34 83.5q0 33 -21.5 50.5t-47.5 30.5t-47.5 29t-21.5 46q0 18 8.5 30t21.5 21.5t28.5 17.5t28.5 19t21.5 27t8.5 40q0 47 -31.5 80t-80.5 55t-110 34.5t-119.5 18.5t-108.5 7.5t-78 1.5q-15 0 -31.5 -1t-30 -5.5t-22.5 -15t-9 -28.5q0 -26 17.5 -55
l38 -65.5t38 -82t17.5 -105.5zM292 285q16 0 33 -5.5t31 -15.5t23 -23t9 -29q0 -18 -10.5 -31.5t-26 -22.5t-33 -13.5t-30.5 -4.5q-30 0 -48.5 21t-18.5 51q0 31 19.5 52t51.5 21zM289 506q15 0 29.5 -5t26 -14.5t18.5 -22.5t7 -29q0 -21 -11.5 -32.5t-28 -17t-35.5 -7
t-34 -1.5q-21 0 -33 15.5t-12 38.5q0 29 19.5 52t53.5 23zM329 196q-19 0 -19 -18q0 -7 3 -12t12 -5q4 0 11 1t14 3.5t12 5.5t5 7q0 8 -13.5 13t-24.5 5zM324 417q-11 0 -15 -7t-4 -12q14 0 29 0.5t15 2.5q0 8 -8.5 12t-16.5 4z" />
    <glyph glyph-name="C" unicode="C" horiz-adv-x="786" 
d="M349 157q14 0 22 8.5t15 22t14 28.5t19 28.5t31 22t50 8.5q37 0 76 -14t71.5 -40t53 -62.5t20.5 -81.5t-21 -81.5t-59 -63t-90.5 -41t-114.5 -14.5q-53 0 -107.5 11t-106.5 33t-97.5 55.5t-79.5 78.5t-54 101.5t-20 125.5q0 78 25.5 154t69.5 136t103 97.5t126 37.5
q33 0 56.5 -8.5t43 -18l37.5 -18t39 -8.5t36.5 8.5t31 18t33 18t41.5 8.5q31 0 54.5 -14t40 -35t25 -46.5t8.5 -48.5q0 -25 -10 -60.5t-28.5 -67.5t-46 -55t-62.5 -23q-33 0 -62 19t-54.5 41.5l-48.5 41.5t-44 19q-20 0 -36.5 -17t-28.5 -42t-19 -54t-7 -53q0 -20 1 -46.5
t6.5 -50.5t16.5 -41t31 -17zM329 136q-44 0 -68.5 24t-37 56t-15.5 65t-3 50q0 48 11 91t30.5 75.5t46 51t56.5 18.5q32 0 60 -19t54 -41.5l50 -41.5t48 -19q22 0 39 17t28.5 40.5t17.5 48.5t6 42q0 15 -5 31t-14 29.5t-23 22.5t-32 9t-33 -8.5t-30 -18t-32.5 -18
t-40.5 -8.5t-42 8.5l-39 18t-42.5 18t-51.5 8.5q-59 0 -109 -36.5t-87 -92.5t-58 -123t-21 -128q0 -84 38.5 -148t98.5 -106.5t132.5 -64.5t141.5 -22q49 0 91 11t72.5 30.5t48 47t17.5 60.5q0 34 -17.5 60.5t-42 44t-52 26.5t-47.5 9q-21 0 -32.5 -8.5t-19 -22t-13.5 -28.5
t-15 -28.5t-23.5 -22t-40.5 -8.5z" />
    <glyph glyph-name="D" unicode="D" horiz-adv-x="814" 
d="M65 724q78 0 159.5 -7t159 -25t146 -49t119.5 -78t81 -112t30 -152q0 -80 -30 -142t-81 -108.5t-118 -78.5t-141 -51.5t-150 -28t-144 -8.5q-29 0 -52.5 4.5t-40 16t-25.5 31t-9 50.5q0 32 11 59t26 58q19 38 37.5 88t18.5 117q0 54 -14.5 93.5t-32 74t-32 68t-14.5 77.5
q0 59 24.5 81t71.5 22zM62 -27q49 0 113.5 7t132.5 23t133.5 43t117 67t83 94t31.5 126q0 79 -28.5 137.5t-77 99.5t-113 67t-136 40.5t-145.5 20t-142 5.5q-4 0 -11 -2.5t-13.5 -8t-11.5 -14.5t-5 -23q0 -24 14.5 -52.5l32 -65t32 -84.5t14.5 -111t-14.5 -111t-32 -86.5
l-32 -68.5t-14.5 -56q0 -29 19.5 -38t52.5 -9zM323 541q39 0 65 -16.5t42 -43.5t23 -62t7 -72q0 -40 -8 -76.5t-25 -64t-43 -44t-62 -16.5q-40 0 -63.5 20t-35.5 51t-15 66.5t-3 67.5q0 35 4 69t16.5 61t36 43.5t61.5 16.5zM357 452q-20 0 -32.5 -11.5t-19.5 -30.5t-9 -43.5
t-2 -49.5q0 -23 1.5 -49t8 -48.5t19 -37.5t33.5 -15t37 12t26 32t15 46.5t5 55.5q0 26 -4 51t-13.5 44.5t-25.5 31.5t-39 12z" />
    <glyph glyph-name="E" unicode="E" horiz-adv-x="758" 
d="M83 296q0 51 -18 85.5t-39.5 64.5t-39.5 59.5t-18 69.5q0 47 30.5 79t80 51t113.5 27t131 8q68 0 134 -9t117.5 -31.5t83.5 -62.5t32 -101q0 -29 -5 -53t-18.5 -41t-36.5 -26.5t-59 -9.5q-29 0 -53.5 8.5t-48.5 19t-49 19.5t-56 9q-11 0 -15 -13.5t-5 -25.5q14 7 31 12.5
t36 5.5q28 0 48.5 -13t33.5 -32.5t19 -42t6 -41.5q0 -20 -6.5 -42.5t-20 -42t-34.5 -32.5t-49 -13q-17 0 -33.5 5.5l-42.5 14.5q1 -20 9.5 -31.5t21 -17.5t26 -7.5t24.5 -1.5q25 0 42 11.5t30 29.5t24.5 38t25.5 38t33.5 29.5t48.5 11.5q51 0 83 -31.5t32 -87.5
q0 -73 -26 -124t-67.5 -85.5t-93.5 -54.5t-103.5 -30t-98 -13t-77.5 -3q-41 0 -92.5 3t-97.5 18t-77.5 48t-31.5 93q0 41 18 69t40 55t40 58t18 79zM104 330q0 -43 -8.5 -72.5t-21.5 -51.5t-28 -38l-28 -30.5t-21.5 -30.5t-8.5 -38q0 -40 25.5 -61.5t63 -31.5t80 -12
t75.5 -2q26 0 67 2t86.5 10t91.5 24.5t83 44.5t60 70.5t23 103.5q0 30 -17 47t-43 17q-19 0 -31.5 -11.5t-22.5 -29.5l-21 -38t-27 -38t-40.5 -29.5t-61.5 -11.5q-15 0 -37.5 2t-43.5 12t-36 31.5t-15 61.5q0 38 13 50.5t30 12.5q12 0 22.5 -3.5t21 -7.5l20.5 -7.5t20 -3.5
q14 0 24.5 7.5t17 18.5t10 24.5t3.5 24.5t-3 24t-9 24t-16 18.5t-24 7.5q-11 0 -22 -4t-21.5 -9t-21 -9t-20.5 -4q-19 0 -28 15t-9 41q0 13 3 30.5t11 33.5t23 26.5t38 10.5q22 0 47 -9l52 -19.5t54.5 -19t53.5 -8.5q38 0 51 20.5t13 54.5q0 45 -27 74t-71 45.5t-100 23
t-114 6.5q-57 0 -111 -5.5t-96 -18t-67.5 -34t-25.5 -52.5q0 -32 18 -56l39.5 -52t39.5 -67.5t18 -103.5z" />
    <glyph glyph-name="F" unicode="F" horiz-adv-x="741" 
d="M80 228q0 51 -21 93.5t-46 81t-46 74.5t-21 75q0 45 24 76t63 51t87 30.5t96 15.5t91 6t71 1q64 0 123 -7.5t104.5 -35.5t72.5 -82.5t27 -148.5q0 -67 -21 -105t-83 -38q-34 0 -62 20t-53.5 43.5t-50 43.5t-49.5 20q-21 0 -34 -11t-20.5 -25t-10 -27.5t-3.5 -19.5
q18 6 38 11t41 5q30 0 50.5 -13.5t33 -33.5t18 -42t5.5 -38q0 -19 -7 -41.5t-20.5 -42t-34.5 -32.5t-49 -13q-14 0 -25 3l-22 6q18 -19 33.5 -31t27 -23t18.5 -24.5t7 -35.5q0 -49 -29 -83.5t-71 -56t-88.5 -31.5t-82.5 -10q-30 0 -64.5 7.5t-63.5 24t-48.5 43.5t-19.5 66
q0 34 18 60t39.5 53t39.5 60t18 81zM101 262q0 -57 -18 -94.5t-39.5 -64.5l-39.5 -48.5t-18 -47.5q0 -24 13.5 -40t34.5 -26t46 -14.5t48 -4.5q28 0 65.5 7t70.5 22t56 39t23 58q0 28 -16 46t-35.5 32t-35.5 27.5t-16 32.5t14.5 29.5t31.5 10.5q18 0 37.5 -9t36.5 -9
q14 0 24.5 7.5t17 18.5t10 24t3.5 24q0 9 -2.5 21.5t-9 24t-16.5 19t-25 7.5q-17 0 -40 -8t-44 -8q-14 0 -23 5t-14 13t-7 19t-2 22q0 32 11 57t29 42t40 26t44 9q23 0 42 -9.5t35 -23.5t30.5 -30.5t30 -30.5t32.5 -23.5t38 -9.5q32 0 42 22.5t10 63.5q0 76 -22 120
t-60 66.5t-88 28.5t-105 6q-23 0 -59.5 -1t-78 -5t-84 -12t-76 -21.5t-55 -34t-21.5 -49.5t21 -60.5l46 -70t46 -86t21 -109.5z" />
    <glyph glyph-name="G" unicode="G" horiz-adv-x="857" 
d="M585 -126q-33 0 -54 7.5t-34.5 19.5t-20.5 26t-10 28q-23 -18 -55.5 -36t-85.5 -18q-65 0 -128 31.5t-112.5 85t-79.5 124t-30 148.5q0 76 29 151t78.5 135t114.5 97.5t137 37.5q31 0 54 -7.5t43 -16t39.5 -16t43.5 -7.5q16 0 31.5 7.5t31.5 16.5t33.5 16.5t38.5 7.5
q32 0 56.5 -13.5t41 -34.5t25 -46t8.5 -49q0 -23 -8.5 -57.5t-26.5 -66.5t-46 -54.5t-67 -22.5q-35 0 -62 17.5t-51.5 39t-49 39t-53.5 17.5q-22 0 -44 -16.5t-40 -43.5t-29 -62t-11 -72q0 -21 4 -47.5t14.5 -49t28 -38t43.5 -15.5l35 18l-8 3q-15 5 -29 11t-25 14.5
t-17.5 21t-6.5 32.5q0 37 27 58.5t75.5 32t117 13t151.5 2.5q39 0 59.5 -28.5t30.5 -69.5t11.5 -86.5t1.5 -79.5q0 -49 -18.5 -87t-49.5 -64.5t-70.5 -40t-81.5 -13.5zM555 -37q30 0 58.5 10t51.5 29.5t37 47t14 63.5q0 27 -1 63t-5.5 68.5t-14 55t-27.5 22.5q-69 0 -127 -1
t-100 -6t-65.5 -15t-23.5 -27q0 -15 16 -24t35.5 -16.5t36 -16t16.5 -24.5q0 -14 -13.5 -27.5t-33 -24.5t-41 -17.5t-38.5 -6.5q-31 0 -54.5 21t-39.5 53t-24.5 68.5t-8.5 68.5q0 44 15.5 87.5t40.5 78t57.5 56t66.5 21.5q36 0 65 -17.5t54 -39t48.5 -39t49.5 -17.5
q24 0 41 16.5t28 39t16.5 47t5.5 40.5q0 15 -5 31.5t-14.5 29.5t-23.5 21.5t-32 8.5t-33 -7.5t-30 -16.5t-32.5 -16.5t-39.5 -7.5t-41 7.5l-39.5 16t-45 16t-56.5 7.5q-61 0 -116 -32.5t-96.5 -85t-66 -118t-24.5 -130.5q0 -67 25.5 -127.5t67 -106.5t94 -73t106.5 -27
q36 0 59.5 11t40.5 24l31 24t32 11q14 0 19.5 -7t8.5 -18t5 -23.5t9 -23.5t21 -18t40 -7z" />
    <glyph glyph-name="H" unicode="H" horiz-adv-x="880" 
d="M69 285q0 32 -6 59t-16 50.5t-23 45l-26 41.5q-18 28 -30 52t-12 56q0 39 21 65.5t51.5 42.5t65 23t62.5 7t62.5 -6.5t68 -20.5t62 -36t43.5 -53q15 31 43 53t61 36t67.5 20.5t62.5 6.5q27 0 61.5 -6.5t66 -22t53 -42t21.5 -66.5q0 -30 -12.5 -56t-35.5 -61l-22.5 -36.5
t-21.5 -42.5t-16 -50t-6 -59t6 -56t15 -43t20 -34t22 -27q21 -26 36 -50.5t15 -59.5q0 -40 -20 -66t-49.5 -41.5t-63 -22t-59.5 -6.5q-28 0 -63 6.5t-69.5 20.5t-64.5 36t-47 53q-17 -31 -47 -53t-64.5 -36t-69.5 -20.5t-63 -6.5q-27 0 -60.5 6.5t-62.5 22.5t-49 42t-20 65
q0 36 17.5 64t39 56.5t39 63.5t17.5 86zM90 319q0 -63 -17.5 -103.5t-39 -69l-39 -50.5t-17.5 -48q0 -23 14 -38.5t35 -24.5t45 -13t44 -4q27 0 62.5 7t67 22.5t53.5 39.5t22 58q0 24 -10 42t-22.5 34t-22.5 31t-10 33t11.5 31.5t27.5 22t34 12.5t31 4q12 0 30 -4t34.5 -12
t28.5 -21.5t12 -31.5t-10.5 -33.5t-23.5 -31.5t-23.5 -34.5t-10.5 -42.5q0 -34 22 -58t54 -39t67 -22t62 -7q19 0 43 4t45 13t35.5 24.5t14.5 38.5q0 18 -8.5 33t-21 31l-27.5 34.5t-27.5 42.5t-21 55.5t-8.5 73.5q0 63 18 109t39 81l39 62.5t18 53.5q0 24 -15.5 40
t-38.5 25t-48.5 13t-44.5 4q-26 0 -59 -6.5t-62.5 -20.5t-50 -36.5t-20.5 -55.5q0 -23 9.5 -43.5t20.5 -40l20.5 -37t9.5 -34.5q0 -18 -11 -31t-26.5 -22t-33 -13t-30.5 -4q-12 0 -29.5 4t-33 12t-26.5 21.5t-11 31.5q0 17 9 35l19.5 37.5t19.5 40t9 42.5q0 33 -20.5 55.5
t-50.5 37t-63.5 21t-59.5 6.5q-20 0 -45.5 -4t-47.5 -14t-37 -25.5t-15 -39.5q0 -26 17.5 -53.5l39 -62t39 -80t17.5 -108.5zM433 398q0 11 -4.5 22t-11.5 22.5l-14 22.5t-11 22q-5 -13 -12 -25l-13 -23q-8 -14 -13.5 -25t-5.5 -16q0 -8 16 -11.5t28 -3.5q14 0 27.5 3.5
t13.5 11.5zM362 174q4 -5 14.5 -19.5t15.5 -25.5q11 20 33 47q8 9 13 16t5 10q0 4 -5.5 6.5t-13.5 4t-16.5 2.5t-14.5 1t-14.5 -1t-16 -3t-13 -4.5t-5.5 -6.5q0 -3 5 -10.5t13 -16.5z" />
    <glyph glyph-name="I" unicode="I" horiz-adv-x="483" 
d="M67 280q0 52 -18 90.5t-39.5 71.5t-39.5 66t-18 76q0 31 13 54t34 39.5t47.5 27t53.5 16.5t51.5 8.5t42.5 2.5q27 0 68.5 -7t80 -24t66 -45.5t27.5 -72.5q0 -35 -17.5 -67.5l-38 -68t-38 -75.5t-17.5 -91q0 -52 17.5 -85t38.5 -60t38.5 -55t17.5 -70q0 -44 -28 -72.5
t-66.5 -45t-79.5 -23t-68 -6.5t-68 6.5t-80 23t-67 45t-28 73.5q0 35 18 62t39.5 56t39.5 64t18 86zM88 314q0 -62 -18 -102.5t-39.5 -69.5t-39.5 -51t-18 -47q0 -27 21.5 -44.5t51.5 -28t62 -14.5t53 -4t52.5 4t61.5 14.5t51.5 28t21.5 44.5q0 25 -17.5 47t-38.5 51
t-38.5 69.5t-17.5 103.5q0 62 17.5 108t38 81t38 62t17.5 52q0 27 -21.5 45t-51 28.5t-61.5 15t-53 4.5t-53 -4.5t-61.5 -15t-51 -28t-21.5 -44.5q0 -26 18 -53.5l39.5 -62.5t39.5 -81t18 -108z" />
    <glyph glyph-name="J" unicode="J" horiz-adv-x="577" 
d="M181 303q0 45 -8.5 73.5t-21.5 48t-27.5 33.5t-27.5 29.5t-21.5 36t-8.5 53.5q0 49 27.5 80t65.5 47.5t79.5 22.5t68.5 6t68 -6t79.5 -22.5t66 -47.5t27.5 -80q0 -38 -17.5 -63.5t-38 -51.5t-38 -58.5t-17.5 -84.5q0 -20 1.5 -45t3.5 -51t3.5 -52t1.5 -47
q0 -73 -33.5 -125t-83.5 -85.5t-107.5 -49.5t-104.5 -16q-36 0 -66.5 9t-53 26.5t-35 43.5t-12.5 61q0 45 17 67t42.5 34.5t55.5 22t55.5 29.5t42.5 57t17 105zM202 337q0 -75 -17 -119.5t-42.5 -70.5t-55.5 -38.5l-55.5 -23t-42.5 -24.5t-17 -42q0 -40 32.5 -61t83.5 -21
q38 0 85 13t88 40.5t69 70.5t28 104q0 15 -1.5 39.5t-3.5 52.5t-3.5 54.5t-1.5 45.5q0 42 8 72t20.5 52t27 38l27 30.5t20.5 29.5t8 34q0 31 -21.5 50.5t-51 30t-61 14.5t-52.5 4t-52.5 -4t-61.5 -14.5t-51 -30t-21 -50.5q0 -20 8.5 -33t21.5 -26t27.5 -29t27.5 -40
t21.5 -59.5t8.5 -88.5z" />
    <glyph glyph-name="K" unicode="K" horiz-adv-x="857" 
d="M148 725q25 0 60 -6t70 -18.5t66.5 -33t50.5 -49.5q10 27 31 46t47 30.5t54.5 17t53.5 5.5q40 0 83 -12.5t79 -36.5t59.5 -59.5t23.5 -81.5q0 -40 -18.5 -64t-46 -39.5t-60 -25t-60 -19.5t-46 -23.5t-18.5 -37.5q0 -27 17.5 -48.5t43 -41.5t56 -39.5t56 -41.5t43 -48
t17.5 -58q0 -48 -29.5 -84t-72.5 -60t-91.5 -35.5t-87.5 -11.5q-21 0 -42 4t-39.5 13.5t-32.5 26t-21 42.5q-16 -26 -42.5 -43t-56.5 -27t-60 -14.5t-53 -4.5q-27 0 -65.5 6.5t-73.5 22t-60 43t-25 69.5q0 34 17.5 65.5t39 66t39 75t17.5 92.5q0 43 -17.5 82t-39 75.5
t-39 72.5t-17.5 74t19.5 64t48.5 41.5t62 22t60 6.5zM408 604q0 -15 4.5 -27t10.5 -23.5t10.5 -23.5t4.5 -28q0 -23 -11 -46.5t-29.5 -42t-42 -30.5t-47.5 -12q-8 0 -18.5 1.5t-19.5 6t-15.5 11.5t-6.5 19q0 16 12.5 36.5l27.5 43t27.5 46.5t12.5 48q0 33 -23.5 56
t-57.5 37.5t-70.5 21t-61.5 6.5q-19 0 -42.5 -4t-44.5 -13t-35 -24t-14 -37q0 -26 17.5 -53l39 -62t39 -81t17.5 -109t-17.5 -108t-39 -79.5l-39 -61t-17.5 -51.5t18.5 -41.5t45 -26t55.5 -13.5t49 -4q22 0 52 4.5t57.5 15t46.5 29t19 45.5q0 19 -9 32t-20 24t-20 22.5
t-9 27.5q0 15 8.5 26t21 18t27 10.5t26.5 3.5q10 0 24 -2.5t26.5 -9.5t21.5 -19t9 -31q0 -12 -3 -23t-7 -23t-7 -26.5t-3 -32.5q0 -26 7 -43t19.5 -27t29 -14t35.5 -4q30 0 68 8.5t72.5 25.5t58 41.5t23.5 57.5q0 28 -17.5 50t-43 42t-56 39.5t-56 41.5t-43 48.5t-17.5 60.5
q0 35 18.5 56t46 34t60 21.5t60 20.5t46 30t18.5 49t-18 55.5t-46 41t-61.5 25.5t-64.5 9q-21 0 -45.5 -5t-45.5 -15.5t-34.5 -28.5t-13.5 -43zM415 471q0 7 -3 12l-7 17q-10 -27 -26.5 -53.5t-34.5 -49.5q13 1 26 8t23 18t16 23.5t6 24.5zM355 102q2 -6 7 -12.5t11 -13.5
t12.5 -12.5t10.5 -8.5q2 11 6.5 21t4.5 21q0 6 -9.5 7t-11.5 1q-14 0 -21 -1t-10 -2z" />
    <glyph glyph-name="L" unicode="L" horiz-adv-x="694" 
d="M68 278q0 46 -18 84t-39 73t-39 70.5t-18 78.5q0 42 27 70.5t65.5 45.5t81 24t73.5 7q38 0 80 -9.5t77.5 -27.5t58.5 -44t23 -60q0 -39 -22.5 -82t-50 -89t-50 -94t-22.5 -99q0 -18 4 -36t12.5 -32.5t21.5 -23.5t31 -9q21 0 34 11.5t22 29.5t17 38t20 38t30 29.5t47 11.5
q57 0 89.5 -43.5t32.5 -119.5q0 -61 -20.5 -105t-54.5 -74.5t-77.5 -49.5t-89 -29t-89.5 -13.5t-78 -3.5q-47 0 -100 6.5t-98 25t-74.5 52t-29.5 88.5q0 29 9 50t23 38.5t29.5 33.5t29.5 35.5t23 44t9 59.5zM89 311q0 -44 -9 -74t-23 -51.5t-29.5 -37l-29.5 -30t-23 -30.5
t-9 -38q0 -37 24 -59.5t60.5 -35t79.5 -17t82 -4.5q31 0 69 3t77.5 11t77 23t66.5 40t47 60.5t18 84.5q0 50 -18 78t-47 28q-20 0 -31.5 -11.5t-20 -29.5t-16.5 -38t-20.5 -38t-32 -29.5t-50.5 -11.5q-34 0 -57.5 14t-38.5 36.5t-22 50t-7 54.5q0 55 22.5 109.5t50 103.5
l50 88.5t22.5 63.5q0 21 -18 37t-45 27t-59.5 16.5t-61.5 5.5q-24 0 -57 -4.5t-63 -15t-51 -28t-21 -43.5q0 -25 18 -52.5t39 -63t39 -82.5t18 -110z" />
    <glyph glyph-name="M" unicode="M" horiz-adv-x="1067" 
d="M67 305q0 48 -17 85.5t-38 71t-38 66t-17 70.5q0 39 18 64.5t45 39.5t59.5 19.5t62.5 5.5q44 0 99 -11t106 -35t91 -62.5t54 -94.5q15 55 54 93t89 61.5t104.5 34t99.5 10.5q31 0 63 -5.5t57.5 -20t41.5 -39.5t16 -65q0 -36 -16 -65.5t-35.5 -58.5t-35.5 -61t-16 -74
q0 -33 8 -63t20.5 -57t27 -50t28.5 -43q22 -33 37.5 -61.5t15.5 -58.5q0 -26 -13.5 -50.5t-41.5 -43.5t-71 -30.5t-101 -11.5q-14 0 -45.5 2t-65.5 12.5t-62 32t-35 59.5q-23 -20 -58.5 -31t-88.5 -11q-63 0 -99 16t-54 42q-14 -35 -39.5 -56.5t-56.5 -34.5t-62.5 -17.5
t-56.5 -4.5q-75 0 -112 32t-37 85q0 39 18 74.5t39.5 72.5t39.5 77t18 90zM88 338q0 -60 -18 -105.5t-39.5 -82l-39.5 -66.5t-18 -57q0 -29 24 -46.5t72 -17.5q22 0 51.5 5t55.5 18.5t44.5 37.5t18.5 63q0 30 -10.5 67t-23.5 75t-23.5 76t-10.5 70q0 34 13.5 47.5t39.5 13.5
q27 0 42.5 -14t23.5 -46t11 -84t6 -128q1 -29 4 -55.5t15.5 -46.5t38 -32t70.5 -12q54 0 84.5 17t46 45.5t19 65.5t3.5 78q0 28 1 67.5t5 75.5t13 61t25 25q13 0 27.5 -17t26.5 -42.5t19.5 -56.5t7.5 -58q0 -35 -12 -71t-27 -69.5l-27 -62t-12 -49.5q0 -27 20 -41.5
t46.5 -21.5t51.5 -8.5t35 -1.5q90 0 132 25t42 55q0 24 -21.5 55t-47 71.5t-47 91.5t-21.5 116q0 56 16 92.5t35.5 64l35.5 50.5t16 52q0 23 -11 37.5t-29 23t-40 11.5t-44 3q-42 0 -94 -10.5t-97 -34t-76 -62.5t-31 -96q0 -23 3.5 -55.5t3.5 -58.5q0 -15 -2 -28.5t-8 -24
t-17 -16.5t-28 -6q-19 0 -30 7.5t-17 19.5t-8 26.5t-2 28.5q0 32 4.5 60.5t4.5 52.5q0 56 -31.5 94.5t-77.5 62t-98.5 34t-93.5 10.5q-21 0 -44.5 -3t-42.5 -11.5t-31.5 -23t-12.5 -37.5q0 -28 17 -55.5l38 -60.5t38 -76t17 -101zM677 174q7 19 11 36.5t4 38.5q0 16 -2.5 35
t-6 36.5t-8 29.5t-8.5 14l10 -124v-66zM260 341q1 -12 2 -21.5t3 -20t6 -24l10 -33.5q-2 56 -5.5 79.5t-17.5 25.5q1 -2 1.5 -2.5t0.5 -3.5z" />
    <glyph glyph-name="N" unicode="N" horiz-adv-x="880" 
d="M52 343q0 27 -4 47.5t-11 36t-16 27.5l-18 24q-23 29 -35.5 53.5t-12.5 59.5q0 38 13.5 61.5t35.5 37t49 18.5t54 5q39 0 85 -6t91 -19.5t85.5 -36t67.5 -55.5q5 27 24.5 49.5t48 38.5t63 24.5t70.5 8.5q26 0 61 -5.5t66 -21.5t52.5 -43.5t21.5 -70.5q0 -31 -14 -54.5
t-30.5 -45t-30 -45t-13.5 -53.5q0 -36 10.5 -70t23 -68.5t23 -69.5t10.5 -72q0 -52 -23 -89.5t-61 -62t-86.5 -36.5t-99.5 -12q-83 0 -135.5 28t-81.5 75q-21 -34 -57 -58.5t-76 -40t-79.5 -22.5t-67.5 -7q-50 0 -81 24t-31 80q0 49 17 91.5t37.5 85t37.5 88t17 101.5z
M73 377q0 -63 -17 -116.5t-37.5 -98.5l-37.5 -82t-17 -67q0 -28 16.5 -39.5t45.5 -11.5q25 0 66 8t80 26t67.5 46t28.5 68q0 29 -14 64t-30.5 71t-30.5 70t-14 62q0 19 7 33.5t18 23.5t23.5 13.5t23.5 4.5q24 0 35 -20t15 -52.5t4.5 -74.5t4 -85.5t13.5 -85.5t33.5 -74.5
t63 -52.5t102.5 -20q39 0 77 8.5t67.5 26.5t48 46t18.5 67q0 31 -10.5 65t-23 70t-23 72.5t-10.5 71.5q0 40 13.5 66t30 46.5l30.5 39t14 44.5q0 27 -15.5 43.5t-38 26t-48 13t-44.5 3.5q-29 0 -56 -6t-48.5 -17t-34.5 -26.5t-13 -34.5q0 -21 15.5 -59l34 -83t34 -91.5
t15.5 -85.5q0 -24 -6.5 -49.5t-16 -46t-19.5 -33.5t-17 -13q-10 0 -18 27t-16 69l-17.5 94.5t-22.5 103.5t-31 94.5t-43 69.5q-21 22 -55.5 37.5t-73 25.5t-76.5 15t-66 5q-19 0 -37 -2.5t-32.5 -10t-23 -21t-8.5 -34.5q0 -20 7 -35t18 -29l23.5 -29.5t23.5 -36.5t18 -49.5
t7 -67.5zM268 342q0 -10 4 -24t11 -31q-1 17 -1.5 31t-0.5 25q0 16 2 20q-5 -1 -10 -5.5t-5 -15.5z" />
    <glyph glyph-name="O" unicode="O" horiz-adv-x="833" 
d="M375 -114q-71 0 -145.5 25.5t-135.5 75t-100 123t-39 168.5q0 91 31 166.5t86 129.5t131 83.5t165 29.5q71 0 146 -25.5t136.5 -75t101 -123t39.5 -169.5q0 -92 -36.5 -167.5t-95 -129t-133.5 -82.5t-151 -29zM341 -25q66 0 131 27t116 74.5t82.5 111.5t31.5 139
q0 78 -34.5 141t-87.5 107t-118.5 67.5t-126.5 23.5q-67 0 -131.5 -29t-115 -78t-81.5 -113t-31 -133q0 -73 33.5 -135t86.5 -107t118 -70.5t127 -25.5zM477 324q0 -37 -7.5 -77t-24 -73t-41.5 -54t-60 -21q-33 0 -59 18.5t-44 49t-28 70t-10 80.5q0 32 7.5 71.5t23.5 74
t40.5 57.5t58.5 23q31 0 57.5 -19.5t46 -50.5t30 -70.5t10.5 -78.5zM456 289q0 23 -6.5 52t-18 54t-27.5 42t-35 17q-20 0 -34.5 -19t-24 -46t-14 -56t-4.5 -48q0 -23 6 -52t17 -54t26.5 -42t35.5 -17q21 0 36 19.5t24.5 46.5t14 56t4.5 47z" />
    <glyph glyph-name="P" unicode="P" horiz-adv-x="691" 
d="M68 329q0 54 -17.5 91t-38 69t-38 64.5t-17.5 76.5q0 48 30 74.5t81 26.5q63 0 132.5 -1.5t136 -11t127 -29t106 -56t72.5 -93t27 -138.5q0 -27 -5 -62t-21 -65.5t-46.5 -51.5t-82.5 -21q-36 0 -70.5 10.5t-71.5 10.5q-12 0 -16.5 -7t-4.5 -19q0 -20 12.5 -38t28 -38
t28 -42.5t12.5 -51.5q0 -48 -26 -78t-62.5 -46.5t-75.5 -22.5t-65 -6q-29 0 -71.5 6.5t-81.5 23t-67 44.5t-28 72q0 34 17.5 67.5t39 70.5t39 78.5t17.5 92.5zM89 362q0 -63 -17.5 -109.5t-39 -82l-39 -63t-17.5 -52.5q0 -27 21.5 -45t51.5 -28.5t62.5 -14.5t55.5 -4
q20 0 50 3.5t58 14t48 29.5t20 50q0 25 -12.5 41.5t-28 34t-28 39t-12.5 56.5t16.5 58t57.5 23q16 0 34 -3.5l36.5 -7l36.5 -7t35 -3.5q34 0 54.5 15t31 37t13.5 46.5t3 44.5q0 69 -24.5 116t-65.5 77.5t-95.5 47.5t-115.5 24.5t-124 9t-121 1.5q-26 0 -41 -12t-15 -34
q0 -25 17.5 -51.5t38 -61t38 -80.5t17.5 -109zM393 462q0 -23 -10 -38.5t-24 -24.5t-29.5 -12.5t-25.5 -3.5q-18 0 -31.5 8t-22.5 20.5t-13.5 28t-4.5 31.5q0 23 10.5 40t35.5 17q18 0 38 -1t37 -7.5t28.5 -20t11.5 -37.5zM372 425q0 10 -15 12t-41 2q2 -20 5 -27.5t20 -7.5
q7 0 19 5.5t12 15.5z" />
    <glyph glyph-name="Q" unicode="Q" horiz-adv-x="880" 
d="M811 341q0 -29 -8 -58t-21.5 -56.5t-30 -53t-34.5 -47.5q-41 -52 -94 -98q0 -1 8 -2t18.5 -2t20 -2t13.5 -1q27 -3 52.5 -7t45 -13.5t31.5 -27t12 -47.5q0 -40 -19.5 -62t-43.5 -32t-45.5 -11.5t-24.5 -1.5q-180 0 -315 27t-225 83.5t-135 145t-45 211.5q0 99 38 179
t98 136t134.5 86t148.5 30q91 0 168 -23.5t133.5 -70.5t88 -117.5t31.5 -164.5zM534 62q0 5 14 16t35 29.5t45 43.5t45 58.5t35 75.5t14 93q0 66 -27 123.5t-76 101t-116 68.5t-147 25q-64 0 -129 -30t-117 -81.5t-85 -119.5t-33 -144q0 -108 49 -186t136.5 -128.5
t210 -74.5t269.5 -24q1 0 13 0.5t26.5 5t26.5 14t12 27.5q0 19 -15 27.5t-37 12.5t-48.5 5.5t-48.5 7.5t-37 18t-15 36zM356 571q34 0 59.5 -22t42.5 -56.5t26 -78t9 -85.5q0 -38 -8.5 -75.5t-26 -67t-43 -48t-59.5 -18.5t-59.5 21.5t-42.5 53.5t-25.5 68t-8.5 66
q0 37 8.5 79.5t25.5 78.5t42.5 60t59.5 24zM390 482q-20 0 -35.5 -18.5t-25.5 -46t-15 -60.5t-5 -62q0 -20 5 -46.5t15 -50.5t25.5 -40.5t35.5 -16.5t35.5 16.5t26 40t15.5 50t5 47.5q0 24 -5 56.5t-15.5 61.5t-26 49t-35.5 20z" />
    <glyph glyph-name="R" unicode="R" horiz-adv-x="835" 
d="M66 325q0 51 -18 90.5t-39.5 73.5t-39.5 66t-18 70q0 31 11.5 51.5t31 32.5t44.5 17t53 5q16 0 52 -1.5t84 -6.5t104 -13.5t112 -22t107.5 -32.5t91.5 -45t64 -59.5t24 -75.5q0 -30 -11.5 -52.5t-29.5 -39t-40 -28t-43 -18.5q13 -24 33.5 -51.5l44.5 -57l48 -60.5
t43.5 -62.5t32 -62t12.5 -59.5t-13.5 -50t-37 -34t-54.5 -19t-65 -6q-62 0 -99.5 15.5t-60 41.5t-34.5 59.5t-22.5 69.5t-25 71.5t-40.5 65.5q7 -20 15.5 -40.5l16.5 -41.5t13.5 -43t5.5 -45q0 -37 -21.5 -64.5t-55.5 -46t-74.5 -27.5t-78.5 -9q-29 0 -69.5 6.5t-78 22.5
t-63.5 44t-26 71q0 36 18 68l39 67t39 74.5t18 90.5zM87 359q0 -64 -18 -109t-39 -79t-39 -60.5t-18 -51.5q0 -27 20 -44t48.5 -27t60 -14t53.5 -4q29 0 60 6t56.5 17.5t42 29.5t16.5 42q0 20 -10.5 51.5t-23.5 64.5t-23.5 63t-10.5 47q0 12 7 12q51 0 82 -14.5t49.5 -38.5
t28 -54.5t17 -62t17 -62t28 -54.5t49.5 -38.5t81 -14.5q22 0 42 3t35 10t24 18t9 27q0 21 -16 51t-40 64.5t-52 70l-52 68t-40 59t-16 42.5q0 18 19.5 30t43.5 24.5t43.5 31t19.5 50.5t-22 57.5t-58 45.5t-83.5 34.5t-98 25t-101.5 17t-94.5 10.5t-76.5 5.5t-47 1.5
q-38 0 -63 -11t-25 -43q0 -28 18 -54l39.5 -58.5t39.5 -76.5t18 -108zM291 532q8 0 27.5 -1.5t40 -7.5t36 -17.5t15.5 -30.5q0 -20 -16 -31t-37.5 -16.5t-44.5 -6.5t-36 -1q-22 0 -32 18t-10 42q0 9 2 18t8 16.5t17 12.5t30 5z" />
    <glyph glyph-name="S" unicode="S" horiz-adv-x="765" 
d="M-32 36q0 38 8 71t28 57t53.5 38t84.5 14q65 0 110 -28.5t86 -77.5q15 0 31.5 16t16.5 39q0 6 -11 12t-29.5 12.5t-42.5 13.5l-49 14q-46 13 -91.5 28t-81.5 37.5t-58.5 54.5t-22.5 80q0 57 29.5 112t74 98t96 69.5t96.5 26.5q25 0 48.5 -8t45 -17.5l41 -17.5t36.5 -8
q16 0 31 8.5l31 18t33.5 18t38.5 8.5q36 0 60 -18.5t38.5 -45.5t20.5 -58t6 -55q0 -36 -10 -68t-32 -56t-56.5 -38t-82.5 -14q-42 0 -71.5 9.5t-51.5 24.5t-38 33.5l-31 36.5q-3 -2 -10.5 -6.5t-14.5 -11.5t-12.5 -16t-5.5 -19q0 -5 11 -10.5t29.5 -12t42 -13.5l48.5 -14
q46 -13 93 -28.5t85 -39.5t62 -58.5t24 -85.5q0 -44 -24.5 -94.5t-65.5 -94t-95 -72.5t-114 -29q-35 0 -59 8.5t-43 18l-37 18t-41 8.5q-17 0 -32 -9l-31.5 -19.5t-35 -19.5t-40.5 -9q-36 0 -59.5 17t-36.5 42t-18 54.5t-5 55.5zM-11 70q0 -17 2.5 -37t10 -37t19.5 -28.5
t32 -11.5q18 0 33 9t30.5 19.5t33.5 19.5t42 9q23 0 40 -8.5l35.5 -18t43 -18t61.5 -8.5q49 0 93 23.5t77.5 58.5t53.5 76t20 77q0 44 -29.5 72t-73 47t-95 32.5t-95 27.5t-73 33t-29.5 50q0 22 14.5 42t32.5 35t34 23.5t19 8.5q18 0 32.5 -16.5t34 -36t48 -36t75.5 -16.5
q34 0 58 9.5t39 26t22 38.5t7 47q0 17 -3.5 38t-11.5 40t-21.5 31.5t-33.5 12.5q-17 0 -31.5 -8.5l-30 -18t-33 -18t-39.5 -8.5t-42 8t-40 17.5t-42 17.5t-47 8q-36 0 -78.5 -25.5t-78.5 -63t-60 -81.5t-24 -81q0 -40 28.5 -66t71.5 -44t93 -31t93 -27.5t71.5 -34
t28.5 -49.5q0 -23 -10 -43t-25.5 -35t-33.5 -23.5t-34 -8.5q-19 0 -34 16.5t-35.5 36.5t-49.5 36.5t-77 16.5q-35 0 -57.5 -9.5t-36.5 -26.5t-19.5 -40t-5.5 -49z" />
    <glyph glyph-name="T" unicode="T" horiz-adv-x="837" 
d="M65 370q-54 0 -82.5 29.5t-28.5 90.5q0 57 22.5 96t59 64.5t82.5 39t91.5 20t87 7.5t69.5 1q38 0 84.5 -1.5t94 -8.5t92.5 -21.5t80 -39.5t56 -63t21 -92q0 -64 -29.5 -93t-81.5 -29q-36 0 -55.5 12.5t-32 27l-24 27t-32.5 12.5q-15 0 -25.5 -17t-16.5 -42.5t-8.5 -55
t-2.5 -54.5q0 -38 6.5 -63.5t17 -44.5t22 -34t22 -31.5t17 -36.5t6.5 -50q0 -47 -21.5 -75.5t-53 -44t-66.5 -21t-62 -5.5t-62 5t-66.5 21t-53.5 44.5t-22 75.5q0 32 7 52t17 34.5t22 27.5t22 31.5t17 44.5t7 68q0 25 -2.5 55t-8.5 55.5t-16.5 43t-26.5 17.5
q-21 0 -32.5 -12.5l-24 -27t-31.5 -27t-55 -12.5zM31 459q27 0 42 12.5t28 27t28.5 27t43.5 12.5q33 0 54.5 -22.5t33.5 -56.5t17 -74t5 -75q0 -48 -7 -80.5t-17 -54.5t-22 -36.5l-22 -27t-17 -25.5t-7 -32q0 -29 16 -47t39 -28t48.5 -13t45.5 -3t45.5 3.5t48.5 13t38.5 27
t15.5 46.5q0 19 -6.5 32.5t-17 26.5l-22 28t-22 37.5t-17 55t-6.5 79.5q0 35 5 74.5t17 73.5t33 56t54 22q28 0 43.5 -12.5t29 -27t28.5 -27t42 -12.5q26 0 41 16t15 52q0 41 -18.5 69.5t-49.5 47t-70 29.5t-80.5 16t-81 6.5t-71.5 1.5q-24 0 -60 -1t-76 -6t-79.5 -15.5
t-71.5 -29.5t-52 -48t-20 -71q0 -67 56 -67z" />
    <glyph glyph-name="U" unicode="U" horiz-adv-x="812" 
d="M27 140q0 22 3 53.5l6.5 65.5t6.5 66t3 56q0 33 -12.5 57t-28 46t-28 47t-12.5 61q0 26 6.5 49t24 40.5t49 27.5t82.5 10q73 0 118.5 -21.5t71 -57.5t34.5 -83.5t9 -100.5q0 -36 -4 -82.5l-8.5 -95.5l-9 -96t-5.5 -85q15 0 29 14t25.5 37t20.5 51t15.5 55.5t10 52
t3.5 39.5q0 32 -13 59t-28 53.5t-28 54.5t-13 62q0 44 23 71.5t58 43t78 21t82 5.5q19 0 49.5 -3.5t58.5 -17.5t48.5 -42.5t20.5 -78.5q0 -35 -10 -50.5t-26 -29.5q-4 -3 -7 -7.5t-5.5 -14t-4.5 -25t-3 -41.5q-3 -55 -7.5 -115.5t-17 -119.5t-35 -113t-62 -94.5t-98 -64.5
t-142.5 -24q-82 0 -143.5 19t-102.5 54t-61.5 83.5t-20.5 108.5zM48 176q0 -96 68 -154t203 -58q73 0 123.5 21.5t84.5 58.5t53 85t29 101.5t13.5 108t5.5 103.5q2 59 11 84t19 35.5t18 17.5t8 30q0 30 -14 47.5t-34.5 26t-42 10.5t-36.5 2q-29 0 -61 -4t-58.5 -14.5
t-44 -28t-17.5 -44.5q0 -24 13 -46l28 -47.5t28 -55.5t13 -69q0 -23 -3 -55t-10.5 -66.5t-19.5 -68t-29.5 -60.5t-42 -43.5t-55.5 -16.5q-17 0 -27 6.5t-15 17t-6.5 24.5t-1.5 28q0 34 3.5 75.5t8 85.5t8 88.5t3.5 83.5q0 44 -7 82.5t-26.5 67.5t-54.5 46t-91 17
q-33 0 -53.5 -6t-32.5 -16t-16 -23.5t-4 -28.5q0 -22 6 -36.5t15 -26.5t19.5 -24t19.5 -27.5t15 -37.5t6 -55q0 -24 -3 -56.5t-6.5 -66l-6.5 -65t-3 -53.5z" />
    <glyph glyph-name="V" unicode="V" horiz-adv-x="880" 
d="M378 -127q-72 0 -132 23.5t-108 63t-84.5 92t-60.5 110.5t-36 118.5t-12 115.5q0 82 24.5 135.5t64 84.5t90 43t101.5 12q26 0 51 -3t47.5 -10t41 -19.5t30.5 -30.5q23 32 66 44.5t92 12.5q51 0 99.5 -12.5t86.5 -43t61.5 -81.5t23.5 -129q0 -56 -13 -116.5t-38.5 -119
t-63.5 -111.5t-87.5 -92.5t-110.5 -63t-133 -23.5zM344 -38q63 0 116.5 21t97 57t76.5 83t55.5 98.5t34 105t11.5 101.5q0 64 -18.5 106t-49 66.5t-69.5 34t-79 9.5q-24 0 -46 -3t-39 -11t-27.5 -21.5t-10.5 -34.5q0 -26 14.5 -47.5l32.5 -50t32.5 -68.5t14.5 -103
q0 -33 -6 -69.5t-21 -67t-40.5 -50.5t-65.5 -20q-39 0 -64.5 19t-40 48.5t-20 64t-5.5 65.5q0 61 15 103.5t33 74.5l33 56.5t15 50.5q0 21 -11.5 34.5t-30 21.5t-42 11t-47.5 3q-42 0 -82.5 -9.5t-72.5 -34.5t-51.5 -68.5t-19.5 -111.5q0 -48 10.5 -101t31.5 -104.5
t52.5 -98.5t73.5 -82.5t94.5 -56.5t115.5 -21zM469 270q0 33 -6 58t-16.5 48t-24.5 46l-30 51q-12 -25 -25.5 -48.5t-25 -49t-18.5 -53.5t-7 -62q0 -22 3 -46.5t11.5 -45.5t23 -35t37.5 -14t38 14.5t24 37t12.5 49t3.5 50.5z" />
    <glyph glyph-name="W" unicode="W" horiz-adv-x="1307" 
d="M607 101q0 -45 -9.5 -85t-31 -69.5t-56 -46.5t-84.5 -17q-51 0 -105.5 25.5t-106.5 68t-98 98t-80.5 115t-54.5 118.5t-20 110q0 50 19 88.5t50.5 67.5t71 49.5t81 33t80.5 18t69 5.5q58 0 96 -21t46 -70q52 40 149 40q102 0 155 -46q4 25 16 42t29.5 27t39.5 14.5
t45 4.5q24 0 59.5 -5t74.5 -16t77.5 -30t69 -46.5t49.5 -65.5t19 -87t-20 -108.5t-54 -119t-80 -115.5t-98 -99t-107 -69t-107 -26q-42 0 -74.5 17t-55 47t-34 70.5t-11.5 88.5q0 32 3.5 65t3.5 68q0 13 -2 23t-10 10t-10 -9.5t-2 -23.5q0 -34 4 -67.5t4 -71.5zM479 8
q23 23 31 55.5t8 68.5t-4 73t-4 68q0 19 2.5 35t10 28t20.5 19t34 7q41 0 54 -25.5t13 -64.5q0 -15 -1 -32t-2.5 -35t-2.5 -35t-1 -31q0 -35 8 -65.5t24 -53t39.5 -35t55.5 -12.5q43 0 90 23.5t92 62t85.5 88.5t70.5 103t48 104.5t18 94.5q0 40 -16 71t-41.5 53t-57.5 37
t-64.5 24t-61.5 12.5t-49 3.5q-38 0 -59.5 -13t-21.5 -44q0 -29 17 -55t38 -52t38 -53t17 -58q0 -24 -11 -55t-29.5 -59.5t-42 -48t-47.5 -19.5q-15 0 -21.5 12t-6.5 49q0 35 3.5 77t3.5 81q0 100 -38 148t-129 48q-92 0 -130.5 -48t-38.5 -149q0 -39 3.5 -81t3.5 -76
q0 -37 -6.5 -49t-21.5 -12q-24 0 -47 19.5t-41 47.5t-29.5 59.5t-11.5 56.5q0 33 18.5 60t40 53t40 52.5t18.5 56.5q0 34 -25 47.5t-68 13.5q-25 0 -57.5 -4.5t-67.5 -14t-68.5 -26t-60 -40t-42.5 -55.5t-16 -73q0 -43 18 -95t48.5 -104.5t71 -102t85.5 -88t91.5 -61.5
t90.5 -23q25 0 48.5 8.5t43.5 27.5zM406 227q0 38 -3.5 76.5t-3.5 78.5v16q0 8 1 16q-19 -23 -30 -39.5t-11 -36.5q0 -11 3.5 -26t10 -30.5t15 -30t18.5 -24.5zM886 338q0 17 -11 34.5t-31 43.5q1 -10 1.5 -19.5t0.5 -19.5q0 -36 -3.5 -72.5t-4.5 -77.5q10 9 18.5 23.5
t15 30.5t10.5 31t4 26z" />
    <glyph glyph-name="X" unicode="X" horiz-adv-x="835" 
d="M150 305q0 24 -14 41.5t-35 32t-46 28.5t-46 30t-35 36t-14 48q0 46 28 80t68.5 56t86 33t79.5 11q19 0 40.5 -3.5t42 -11t39.5 -18.5t34 -27q28 28 68.5 40.5t75.5 12.5q33 0 76.5 -10.5t83 -32t66.5 -54.5t27 -77q0 -27 -14 -47.5t-34.5 -38.5t-44.5 -33.5t-44.5 -32.5
t-34.5 -35t-14 -41q0 -14 7.5 -27.5t20 -26t28.5 -24.5l32 -24q18 -13 39 -26.5t38.5 -31t29.5 -39t12 -51.5q0 -49 -31 -84.5t-76 -59t-94 -34.5t-85 -11q-18 0 -40 3t-43.5 10.5t-42 19t-35.5 29.5q-27 -28 -66.5 -40t-74.5 -12q-34 0 -80.5 11t-88.5 33.5t-71 56.5
t-29 79q0 38 15.5 65t39 48t51 37.5t51 33t39 35t15.5 43.5zM171 324q0 -31 -15.5 -55t-39 -43.5t-51 -37t-51 -35t-39 -37t-15.5 -43.5q0 -30 23.5 -52.5t56.5 -37.5t70 -23t64 -8q19 0 40 2.5t39 10t29.5 21.5t11.5 37q0 21 -8.5 34.5t-18.5 26.5t-18.5 27.5t-8.5 36.5
q0 15 4.5 34.5t14.5 37t26 29.5t38 12t38 -12.5t26 -30t14.5 -37.5t4.5 -35q0 -24 -10 -39.5t-21.5 -28t-21.5 -26.5t-10 -36q0 -26 14 -40.5t34.5 -22t44 -9.5t41.5 -2q29 0 68.5 8t75.5 24.5t61 41t25 57.5q0 26 -15.5 46t-38.5 38t-49.5 35t-49.5 36.5t-38.5 43
t-15.5 54.5q0 29 14 51t34.5 39.5t44.5 33t44.5 31t34.5 33.5t14 42q0 29 -21.5 51t-52 36.5t-64.5 22t-59 7.5q-20 0 -41.5 -4.5t-40.5 -15t-31 -26.5t-12 -40q0 -20 8 -31t17.5 -21t17.5 -22t8 -33q0 -13 -4 -31t-12 -34.5t-22 -28t-33 -11.5q-20 0 -33.5 11.5t-21.5 28
t-12 34.5t-4 31q0 21 7.5 33t17 22t17 21.5t7.5 31.5q0 25 -13 42.5t-33.5 28.5t-44 16t-44.5 5q-27 0 -62.5 -7.5t-67.5 -23t-54 -38.5t-22 -54q0 -25 14 -43.5t35 -35t46 -31.5t46 -32.5t35 -39.5t14 -51zM355 69l23.5 27.5t6.5 18.5q0 6 -1.5 16t-5 19t-9 15.5t-12.5 6.5
q-8 0 -13 -6t-8.5 -15t-5 -18t-1.5 -15q0 -12 6 -21.5t20 -27.5zM377 475q-9 -13 -12 -18.5t-3 -13.5q0 -5 1 -12.5t2.5 -15.5t4.5 -13.5t8 -5.5q4 0 7.5 5.5t5 13.5t2.5 15.5t1 12.5q0 11 -4 16t-10 14z" />
    <glyph glyph-name="Y" unicode="Y" horiz-adv-x="786" 
d="M211 198q0 29 -19.5 55.5t-49 52.5t-63.5 51t-63.5 51t-49 54t-19.5 60q0 29 14.5 54.5t38.5 46.5t54 37t61 27t60.5 16.5t51.5 5.5q21 0 43.5 -5.5t43 -16t37.5 -26.5t27 -38q10 20 26 34.5t35 24.5t39.5 14.5t40.5 4.5q33 0 73.5 -13t76.5 -36t60 -55.5t24 -72.5
q0 -30 -16.5 -57.5t-41.5 -53.5t-54.5 -51.5t-54.5 -51.5t-41.5 -52.5t-16.5 -55.5q0 -23 11 -42.5l23.5 -40t23.5 -43t11 -50.5q0 -45 -22 -78t-56 -54.5t-73.5 -31.5t-75.5 -10t-75.5 10t-73.5 31.5t-56 54.5t-22 78q0 29 10.5 52t23.5 43t23.5 38.5t10.5 38.5zM232 231
q0 -28 -10.5 -48.5t-23.5 -39.5t-23.5 -39t-10.5 -45q0 -30 16.5 -52.5t42 -37t56 -21.5t57.5 -7t57 7t55.5 21.5t42.5 37t17 52.5q0 25 -11 45t-23.5 39.5t-23.5 41t-11 50.5q0 35 16.5 66t41.5 59t54.5 53.5t54.5 49.5t41.5 48t16.5 49q0 26 -18.5 48t-45.5 38t-57.5 25
t-55.5 9q-17 0 -34.5 -4.5t-32 -14t-23.5 -24t-9 -33.5q0 -17 6 -36.5t13.5 -39l14 -37.5t6.5 -31q0 -15 -8.5 -26.5t-21.5 -19t-28 -11t-28 -3.5t-27.5 3.5t-27 10.5t-20.5 18.5t-8 26.5q0 14 6.5 32.5l14 38.5t14 40t6.5 37q0 21 -10 36t-26 25t-35.5 15t-37.5 5
q-26 0 -64 -9t-73.5 -26t-60.5 -40.5t-25 -53.5q0 -26 19.5 -50t49 -48.5t63.5 -50t63.5 -53t49 -59t19.5 -67.5zM392 472q-1 3 -5.5 14.5t-8.5 24.5l-15 -40q-6 -15 -10.5 -27.5t-4.5 -18.5q0 -2 9.5 -3t17.5 -1q11 0 19 6t8 8t-1.5 10t-8.5 27z" />
    <glyph glyph-name="Z" unicode="Z" horiz-adv-x="763" 
d="M64 309q-23 0 -42 7t-32.5 23.5t-21 43.5t-7.5 68q0 71 37.5 126t97.5 92t134.5 56t148.5 19q62 0 118.5 -13.5t100 -41t69 -69.5t25.5 -99q0 -71 -30.5 -125t-80 -97t-112.5 -77.5t-128 -66.5q21 -8 37 -8q33 0 62.5 19.5t59 43t59.5 43t64 19.5q21 0 39.5 -6.5
t32.5 -23t22 -44t8 -69.5q0 -73 -39 -129.5t-101 -95t-138.5 -58.5t-152.5 -20q-62 0 -119 13.5t-100 40.5t-68.5 69t-25.5 99q0 74 30.5 129.5t80 99t112.5 77t129 63.5q-40 0 -67 -8t-47.5 -20t-36.5 -26t-33 -26t-37 -20t-48 -8zM30 398q23 0 42 17t45 37t65 37t102 17
q39 0 64.5 -15t25.5 -35q0 -19 -27.5 -37t-69 -39.5l-89.5 -47.5t-89.5 -61.5t-69 -81.5t-27.5 -107q0 -43 21 -74.5t56.5 -52t82.5 -30.5t98 -10q66 0 133 16t121 47.5t88 78t34 106.5q0 52 -13.5 70t-33.5 18q-23 0 -44 -18l-47.5 -40t-62 -40t-85.5 -18q-14 0 -34.5 3.5
t-39 10t-32 16.5t-13.5 22q0 18 27.5 35t69 37.5l89.5 46t89.5 60.5t69 81.5t27.5 107.5q0 43 -21 74.5t-57 52.5t-82.5 31t-97.5 10q-64 0 -129 -15.5t-117 -45.5t-84.5 -74.5t-32.5 -102.5q0 -50 13 -68.5t35 -18.5z" />
    <glyph glyph-name="bracketleft" unicode="[" horiz-adv-x="867" 
d="M29 229q0 160 30.5 279t97 197t171.5 116.5t254 38.5q37 0 66 -6t49.5 -20.5t31 -38t10.5 -59.5q0 -52 -17.5 -79t-45 -39.5t-61.5 -16t-67 -8.5t-62 -17t-46 -41q-9 -15 -17.5 -42.5t-15.5 -63t-11.5 -77.5t-4.5 -85q0 -39 3.5 -77.5t10 -72t15.5 -60.5t19 -43
q9 -11 22.5 -19.5t30.5 -15t35 -11t36 -7.5q35 -7 67 -15t56.5 -24t39 -42.5t14.5 -70.5q0 -35 -10 -59t-29.5 -38t-48.5 -20t-68 -6q-44 0 -98.5 9t-109.5 24t-105 35t-86 42q-40 24 -69.5 57.5t-48.5 84t-28.5 121.5t-9.5 170zM548 839q-139 0 -234 -34t-153.5 -104.5
t-84.5 -179t-26 -258.5q0 -93 7 -157.5t22.5 -109t39.5 -73t59 -49.5q33 -20 79.5 -38t97.5 -31.5t102 -21.5t93 -8q51 0 76 14.5t25 53.5q0 33 -16.5 51t-43 28t-59 15.5t-65 14t-61.5 23.5t-47 43q-12 19 -22.5 49.5t-18 68t-12 80t-4.5 85.5q0 46 5 92t13.5 85.5
t18.5 70.5t20 48q17 28 45 43t60.5 23.5t65.5 14t59.5 15t43.5 27t17 50.5q0 40 -27 54.5t-75 14.5z" />
    <glyph glyph-name="backslash" unicode="\" horiz-adv-x="702" 
d="M701 -30q0 -27 -14 -51t-40 -42t-63.5 -28.5t-84.5 -10.5q-75 0 -121.5 26t-75 68t-43 95t-26.5 107l-13 55.5t-9 35t-7.5 21.5l-6.5 15q-14 29 -37 58l-61 74q-53 63 -87.5 112t-34.5 95q0 28 14 52t40.5 42t63.5 28.5t83 10.5q77 0 124 -28t75 -71.5t41.5 -95.5
t24.5 -101q8 -37 17 -70.5t20 -55.5q14 -28 41 -62l56 -68l46 -55t39.5 -53.5t28 -52.5t10.5 -50zM612 5q0 19 -12.5 42.5t-32 50t-44 55.5l-48.5 57.5t-45 56.5t-33 53q-17 33 -26.5 75.5l-19.5 86t-22.5 85t-35.5 74t-59.5 52t-93.5 19.5q-63 0 -102.5 -23t-39.5 -56
q0 -18 12.5 -41.5t32 -50t43.5 -54.5l48 -57t44.5 -57t33.5 -53q17 -34 27 -76.5l19.5 -86t22.5 -85t36 -74t59.5 -52t94.5 -19.5q64 0 102.5 23t38.5 55z" />
    <glyph glyph-name="asciicircum" unicode="^" horiz-adv-x="814" 
d="M407 635q34 0 75 -13t82.5 -36t81 -53.5t70 -65t49 -71.5t18.5 -73q0 -34 -12.5 -58.5t-31 -40.5t-41.5 -23.5t-44 -7.5q-28 0 -51 13.5t-42.5 34t-37.5 44.5t-36 44.5t-38 34t-44 13.5t-44.5 -13.5t-39 -34.5t-37 -44.5t-38.5 -44.5t-43.5 -34.5t-51.5 -13.5
q-21 0 -44 7.5t-42.5 23.5t-32 41t-12.5 59q0 36 18.5 73t49 72t70.5 65t83 53t86 36t80 13zM377 615q-29 0 -65.5 -11t-74 -30t-73 -44.5t-63 -54.5t-44.5 -60.5t-17 -61.5q0 -21 8 -36.5t20 -25t26 -14.5t27 -5q23 0 43 13.5t38.5 34.5t36.5 44.5t38.5 44.5t44 34.5
t53.5 13.5q29 0 52.5 -13.5t43.5 -34t37.5 -44.5t35.5 -44.5t37 -34t43 -13.5q13 0 27 4.5t25.5 14.5t19 25t7.5 36q0 30 -16 61t-42.5 60t-60.5 55t-70.5 45t-72 30t-64.5 11z" />
    <glyph glyph-name="underscore" unicode="_" horiz-adv-x="711" 
d="M108 -185q-20 0 -38.5 2.5t-32.5 13.5t-22.5 32.5t-8.5 59.5q0 37 8.5 59t22.5 33t33 14t40 3q30 0 60 -5.5t59.5 -11.5t59.5 -11.5t61 -5.5q30 0 59 5.5l58.5 11.5l59 11.5t60.5 5.5q55 0 82.5 -23t27.5 -87q0 -37 -8 -58t-22 -32t-33 -14t-41 -3q-30 0 -60 5.5
l-60 11.5t-60.5 11.5t-61.5 5.5q-30 0 -60 -5.5l-60 -11.5t-60.5 -11.5t-62.5 -5.5zM78 -105q30 0 60.5 5.5l61 11.5l61 11.5t60.5 5.5t60.5 -5.5l61 -11.5l61 -11.5t59.5 -5.5q11 0 21 1.5t17.5 7.5t11.5 17t4 31q0 35 -15 47.5t-45 12.5q-24 0 -53.5 -5.5l-60.5 -11.5
t-62.5 -11.5t-60.5 -5.5t-59.5 5.5l-61 11.5l-60.5 11.5t-59 5.5q-11 0 -20.5 -1.5t-17 -7.5t-12 -18t-4.5 -32t4.5 -31.5t11.5 -17.5t16.5 -7.5t19.5 -1.5z" />
    <glyph glyph-name="quoteleft" unicode="&#x2018;" horiz-adv-x="406" 
d="M374 508q0 -33 -12.5 -56.5t-32 -38t-43.5 -21.5t-47 -7q-25 0 -57.5 9.5t-67 26t-67.5 39t-59 48.5t-42 55t-16 59q0 33 15 58t38 42.5t51 26.5t55 9q28 0 60 -10.5t63.5 -29t61 -43t51.5 -52t35.5 -57.5t13.5 -58zM294 538q0 34 -24 69.5t-59 64.5t-76.5 47.5
t-75.5 18.5q-18 0 -37.5 -5.5t-35.5 -16.5t-26 -27t-10 -37q0 -35 28.5 -68.5t69.5 -60t85 -42.5t76 -16q15 0 30 4t27 13t20 22.5t8 33.5z" />
    <glyph glyph-name="a" unicode="a" horiz-adv-x="712" 
d="M212 171q0 14 11 23t26 14t30.5 6.5t23.5 1.5t11.5 -2.5t3.5 -10.5q0 -9 -4 -22t-11.5 -25.5t-18 -21t-24.5 -8.5q-18 0 -33 14t-15 31zM-6 355q0 -20 19 -33.5t40 -13.5q17 0 35 8.5t36.5 19t36.5 19t35 8.5t32.5 -8.5t27 -20.5t18.5 -25.5t7 -22.5q0 -7 -4 -11t-9 -5.5
t-9 -2t-5 -0.5q-42 0 -68 6t-50 6q-27 0 -52 -10.5t-45 -29.5t-32 -44.5t-12 -55.5q0 -37 17.5 -60t42.5 -36t52 -17.5t46 -4.5q34 0 55.5 10t36.5 22l26.5 22t24.5 10q9 0 13.5 -4t6.5 -9t2.5 -9.5t0.5 -5.5q0 -30 13.5 -49.5t34 -30.5t43.5 -15t41 -4q19 0 41 4t40.5 14.5
t30.5 27t12 42.5q0 22 -8.5 41t-19.5 39.5t-20.5 44t-10.5 53.5q-2 46 -7 90.5t-21.5 79.5t-49 56.5t-90.5 21.5q-13 0 -44 -2.5t-70 -8t-81.5 -15t-78 -22.5t-58 -30t-22.5 -39zM375 486q78 0 122 -23.5t66 -63.5t28 -93t9 -112q1 -20 10 -42.5t19 -40.5q12 -24 21 -46.5
t9 -51.5q0 -40 -17 -67t-43.5 -43t-57.5 -22.5t-58 -6.5q-22 0 -48.5 4.5t-52 16t-46.5 31.5t-30 52q-20 -16 -48.5 -28.5t-71.5 -12.5q-26 0 -62.5 7t-69.5 25.5t-56 51t-23 84.5q0 42 15 75t40 59q-26 16 -41.5 41.5t-15.5 52.5q0 34 26 59t66.5 42t89 27t93 15.5
t79.5 7.5t48 2z" />
    <glyph glyph-name="b" unicode="b" horiz-adv-x="758" 
d="M37 291q0 41 -12 75t-27 66t-27 64t-12 69q0 34 13 59t34.5 41.5t50 24.5t60.5 8q37 0 77 -10.5t73.5 -31t55 -49.5t21.5 -65q0 -21 -7 -43t-19 -52q21 14 45.5 26.5t64.5 12.5q48 0 95.5 -20.5t86 -57.5t62.5 -87t24 -108q0 -61 -26 -111.5t-65.5 -87t-87.5 -56.5
t-93 -20q-37 0 -63.5 12t-46.5 26q-8 -25 -26 -44t-42 -31.5t-52 -18.5t-57 -6q-34 0 -66 8.5t-56.5 25.5t-39.5 42.5t-15 58.5q0 48 12 78t26.5 58t26.5 60.5t12 83.5zM-21 598q0 -30 12 -65t27 -72.5t27 -74t12 -69.5q0 -40 -12 -79t-26.5 -75l-26.5 -67t-12 -53
q0 -21 10.5 -36.5t28 -26t40 -15.5t46.5 -5t47 5t41 15.5t29.5 26t12.5 35.5q1 17 3.5 29.5t16.5 12.5q12 0 24.5 -9.5l28 -21.5t36.5 -21.5t50 -9.5q35 0 73.5 16.5t70.5 45.5t53 70t21 91q0 47 -19.5 87.5t-50 70t-69 46.5t-76.5 17q-26 0 -42.5 -7t-29.5 -15.5
l-24.5 -15.5t-26.5 -7q-21 0 -32.5 13t-11.5 29q0 10 4.5 24t10.5 28.5t10.5 29.5t4.5 29q0 24 -17 43.5t-42.5 33t-55.5 20.5t-57 7q-22 0 -42 -5t-35 -15t-23.5 -25t-8.5 -35zM322 344q18 0 31.5 -9.5t22 -24t12.5 -32t4 -34.5q0 -19 -5 -36.5t-14 -31t-22.5 -22
t-30.5 -8.5q-19 0 -32 9.5t-21.5 23.5t-12.5 31.5t-4 34.5q0 19 5 36.5t14 31.5t22.5 22.5t30.5 8.5zM354 260q-10 0 -15 -14.5t-5 -32.5q0 -16 4 -31.5t14 -15.5t15 14.5t5 32.5q0 16 -4 31.5t-14 15.5z" />
    <glyph glyph-name="c" unicode="c" horiz-adv-x="687" 
d="M323 116q20 0 43 11.5t48 26t51.5 26t53.5 11.5q21 0 41 -10.5t35.5 -27t24.5 -37t9 -41.5q0 -39 -34.5 -71.5t-85.5 -55t-110 -35t-108 -12.5q-60 0 -119 23t-106 63.5t-76 95t-29 117.5q0 54 22.5 107t61 95.5t89.5 68.5t107 26q19 0 37.5 -4t36.5 -9.5t36.5 -10.5
t38.5 -8q18 2 33 10.5l30.5 17.5t32 16.5t36.5 7.5q28 0 49.5 -13.5t36.5 -34.5t22.5 -46.5t7.5 -49.5q0 -32 -13 -63.5t-35.5 -56t-54 -40t-67.5 -15.5q-28 0 -51.5 12t-44.5 26t-41 26t-42 12q-1 0 -1 -14v-26q0 -12 2 -32t6 -39t11 -33t16 -14zM291 96q-23 0 -39.5 20
t-27 47t-15.5 56t-5 47q0 14 3 30.5t9.5 30t16.5 22.5t24 9q22 0 42.5 -12t41.5 -26t44.5 -26t50.5 -12q25 0 46.5 11t37.5 28t25 39t9 45q0 15 -4 31.5t-12.5 30t-20.5 22t-27 8.5q-16 0 -31.5 -8t-31.5 -18t-33.5 -18t-36.5 -8q-23 1 -40 6.5l-33 11t-33.5 10t-41.5 4.5
q-46 0 -87 -21.5t-72.5 -56.5t-50 -78.5t-18.5 -88.5q0 -52 24.5 -97t64 -78.5t89.5 -52.5t100 -19q42 0 91.5 8.5t93 24t72.5 38t29 51.5q0 12 -5 23.5t-13 20.5t-18.5 14.5t-21.5 5.5q-18 0 -42.5 -11.5t-51.5 -26t-53.5 -26t-48.5 -11.5z" />
    <glyph glyph-name="d" unicode="d" horiz-adv-x="758" 
d="M276 555q0 30 13.5 53.5t36 40t52 25.5t61.5 9q42 0 90 -15t89 -43t68.5 -67t27.5 -88q0 -37 -10.5 -72t-23 -70t-23 -70.5t-10.5 -73.5q0 -26 9 -47t20 -40.5t20 -39.5t9 -45q0 -34 -14.5 -59.5t-38.5 -42t-55.5 -25t-64.5 -8.5q-27 0 -55 5.5t-52 18t-42.5 32
t-27.5 47.5q-20 -16 -47.5 -29t-65.5 -13q-44 0 -91.5 20t-86.5 56t-64.5 86.5t-25.5 111.5q0 58 23.5 107.5t61 86.5t85 58t95.5 21q20 0 35.5 -3.5t29.5 -8.5q-12 18 -20 38.5t-8 43.5zM296 588q0 -20 11 -39.5t24.5 -37.5l24.5 -34t11 -28t-11 -21.5t-28 -9.5
q-15 0 -26 7.5l-23.5 16t-29 16t-43.5 7.5q-38 0 -76 -17t-68 -46.5t-49 -70t-19 -87.5q0 -49 20.5 -90t52 -70t69 -45.5t71.5 -16.5q28 0 48.5 10t36.5 22l28.5 22t25.5 10q15 0 18.5 -13.5t4.5 -26.5q2 -23 14.5 -39.5t31 -26.5t40.5 -14.5t44 -4.5q24 0 46 5t39 15.5
t27 25.5t10 35t-9 37l-20 36.5t-20 43t-9 56.5q0 35 10.5 74.5t23 77.5t23 73t10.5 61q0 39 -24 69t-59 51t-73.5 31.5t-68.5 10.5q-21 0 -40.5 -5.5t-35 -15t-24.5 -23.5t-9 -31zM355 244q0 -18 -4.5 -36t-13 -32.5t-21.5 -23.5t-31 -9t-31 9t-21 23.5t-12 32.5t-4 36
q0 19 4.5 37t13 32t21.5 22.5t31 8.5q17 0 29.5 -8.5t21 -22.5t12.5 -32t5 -37zM317 163q8 0 12.5 15t5.5 32q-1 17 -4.5 33.5t-12.5 16.5q-8 0 -12.5 -15.5t-4.5 -33.5q0 -17 4 -32.5t12 -15.5z" />
    <glyph glyph-name="e" unicode="e" horiz-adv-x="683" 
d="M628 261q0 -53 -21 -80.5t-58 -37.5q14 -11 18 -27.5t4 -39.5q0 -52 -18.5 -88.5t-50.5 -59t-75.5 -32.5t-92.5 -10q-36 0 -78 8t-84.5 23.5t-82.5 40t-70.5 57.5t-49 75t-18.5 94q0 69 31 124.5t80 94.5t110 59.5t120 20.5q43 0 100.5 -11t110 -36.5t89 -68t36.5 -106.5
zM544 293q0 49 -31 81.5t-75 52t-93 28t-85 8.5q-50 0 -101.5 -18t-93 -50.5t-68 -78t-26.5 -100.5q0 -64 34.5 -110.5t85 -76.5t108 -44.5t103.5 -14.5q39 0 72.5 7.5t58.5 24t39.5 42.5t14.5 64q0 12 -3 19.5t-15 7.5q-14 0 -36 -9l-49 -19.5t-57 -19.5t-59 -9
q-27 0 -45.5 12t-30 28.5t-16 34t-4.5 29.5t4.5 25t13.5 23t21 16.5t27 6.5q23 0 50 -5t55.5 -11.5t57.5 -11.5t56 -5q39 0 63 15.5t24 57.5zM322 337q0 -12 -8.5 -18.5t-20 -10t-24 -4.5t-19.5 -1q-9 0 -19.5 1t-19.5 5t-15 10.5t-6 18.5q0 22 19.5 37.5t41.5 15.5
q12 0 24.5 -4.5t23 -12t17 -17.5t6.5 -20zM300 98q18 0 35.5 4.5t34 11l33 13.5t34.5 12q-20 3 -39 7t-38 9l-48.5 9.5t-41.5 4.5q-6 0 -10 -6t-4 -13q0 -6 2 -15t7.5 -17t14 -14t20.5 -6z" />
    <glyph glyph-name="f" unicode="f" horiz-adv-x="486" 
d="M-57 408q0 32 19 51t45 22q3 29 21.5 53.5t45.5 43t60 32.5t66.5 23t63.5 13.5t51 4.5q37 0 64 -12.5t43.5 -32t24.5 -44.5t8 -50q0 -26 -8.5 -49t-27.5 -37q8 -13 12.5 -30t4.5 -36q0 -31 -12 -50.5t-30.5 -32t-39.5 -18t-39.5 -8t-30.5 -3.5t-12 -2q0 -20 10.5 -45
t24.5 -51q19 -37 33.5 -73.5t14.5 -74.5q0 -69 -52 -105.5t-137 -36.5q-40 0 -74 8.5t-58.5 27.5t-38 48t-13.5 70q0 31 7 62.5t17 66.5l14 54.5t6 46.5q0 27 -13 47t-28.5 37.5t-28.5 36t-13 43.5zM29 470q0 -6 -3.5 -11t-9.5 -5q-7 0 -15 4t-16 4q-9 0 -15.5 -5.5
t-6.5 -14.5q0 -14 13 -26.5t28.5 -30t28.5 -43.5t13 -65q0 -29 -7 -59t-15 -59.5t-15 -58t-7 -53.5q0 -28 10 -47.5t27.5 -32t42 -18t53.5 -5.5q61 0 98.5 23t37.5 69q0 28 -13 59t-28.5 62.5t-28.5 62t-13 58.5q0 18 6 28t16 15t23.5 7t28.5 2q18 0 34 1.5t28.5 7t20 17.5
t7.5 34q0 31 -14 45t-32 14t-37 -8.5t-26 -8.5q-8 0 -10.5 11.5t-2.5 17.5q0 23 16 30t33 7q14 0 30 -2t24 -2q20 0 29 15.5t9 35.5q0 15 -5 30.5t-16 28t-28.5 20t-43.5 7.5q-15 0 -39.5 -3t-52.5 -10t-56.5 -17.5t-51.5 -26t-37.5 -36t-14.5 -46.5q0 -10 1.5 -13.5
t1.5 -8.5z" />
    <glyph glyph-name="g" unicode="g" horiz-adv-x="758" 
d="M-8 -48q0 14 1 28t6.5 25t17.5 18.5t33 9.5q-32 35 -51.5 80.5t-19.5 98.5q0 64 26.5 114.5t66.5 85t87.5 52.5t89.5 18q35 0 62 -12t47 -26q4 19 14.5 38t30 34t49 24t71.5 9q37 0 71 -8t60 -24.5t41 -42t15 -59.5q0 -24 -9.5 -43.5t-20.5 -39t-20.5 -40t-9.5 -44.5
q0 -35 10 -72t10 -81q0 -68 -33 -129.5t-88 -108.5t-125.5 -75t-145.5 -28q-50 0 -101 13t-92 38.5t-67 62t-26 84.5zM12 -16q0 -35 21 -62.5t55 -46t75 -28t82 -9.5q65 0 126.5 23.5t109 63.5t76.5 93t29 111q0 20 -3 39.5t-7 38t-7 37.5t-3 39q0 34 9.5 56t20.5 39
l20.5 32t9.5 36t-11 37t-29 26t-42 15t-50 5q-43 0 -67 -11.5t-35.5 -27.5t-14.5 -33t-4 -29q-1 -9 -4.5 -18.5t-16.5 -9.5q-12 0 -25 9.5l-28.5 21.5t-36 21.5t-48.5 9.5q-33 0 -70.5 -15.5t-70 -44t-53.5 -69t-21 -89.5q0 -46 19 -85.5t48.5 -69t65.5 -46t71 -16.5
q28 0 47.5 9.5t34.5 20.5l27.5 20.5t24.5 9.5q15 0 20 -12.5t5 -20.5q0 -7 -4.5 -23.5t-18 -33.5t-38.5 -30t-67 -13q-36 0 -67.5 9.5t-57.5 20.5t-46 20.5t-33 9.5q-14 0 -16 -9.5t-2 -20.5zM290 341q18 0 31 -9t21 -23t12 -31.5t4 -34.5q0 -18 -4.5 -35t-13 -30.5
t-21 -21.5t-29.5 -8t-30 8.5t-22 22.5t-13.5 31.5t-4.5 34.5q0 18 4.5 35t13.5 30.5t22 22t30 8.5zM321 257q-8 0 -12.5 -14t-4.5 -30t4.5 -30.5t13.5 -14.5q8 0 12 13t4 30t-4 31.5t-13 14.5z" />
    <glyph glyph-name="h" unicode="h" horiz-adv-x="758" 
d="M-42 551q0 39 15 65.5t38 42t51 22t54 6.5q33 0 70.5 -9t69.5 -27.5t53 -47t21 -67.5q0 -19 -4.5 -35.5t-10 -30.5l-10 -26.5t-4.5 -22.5q0 -13 7.5 -20.5t19 -12t25 -6t26.5 -1.5q32 0 62.5 5t64.5 5q73 0 117.5 -35t44.5 -108q0 -16 -2 -29l-4 -25t-4.5 -24.5
t-2.5 -26.5q0 -12 8.5 -29l18.5 -38t18.5 -44t8.5 -46q0 -22 -9.5 -42.5t-28 -36t-46 -24.5t-63.5 -9q-55 0 -104.5 22t-83.5 62q-9 -32 -33 -53.5t-54.5 -34.5t-63 -19t-59.5 -6t-61 6.5t-64.5 23t-51.5 45t-21 72.5q0 35 12 70t27 72q14 33 26 67.5t12 65.5
q0 32 -13.5 67.5t-28.5 69.5q-17 37 -30 73t-13 74zM-22 582q0 -30 13.5 -64l29 -70t29 -73.5t13.5 -75.5q0 -37 -12 -73t-26.5 -70.5t-26.5 -66.5t-12 -60q0 -31 15.5 -50.5t38 -30.5t47.5 -15t45 -4q23 0 51.5 5t53 16t41.5 29t17 45q0 19 -7.5 35t-17 33.5t-17 37.5
t-7.5 46q0 30 10.5 53t25.5 39t30.5 24t25.5 8q9 0 14.5 -7t5.5 -27q0 -13 -2.5 -34.5l-5 -42.5t-5 -37.5t-2.5 -19.5q0 -40 15.5 -72t42 -54.5t60 -35t69.5 -12.5q39 0 67 16t28 54q0 21 -8.5 37t-18.5 32t-18.5 34t-8.5 44t6.5 50t6.5 51q0 50 -30 72.5t-78 22.5
q-29 0 -64 -5t-64 -5q-22 0 -45 4.5t-42 15t-31.5 26.5t-12.5 40q0 15 4.5 29t10 28t10 29t4.5 30q0 28 -16 47.5t-40 32t-51.5 18.5t-51.5 6q-19 0 -38.5 -4t-35 -14t-25.5 -26t-10 -41z" />
    <glyph glyph-name="i" unicode="i" horiz-adv-x="434" 
d="M-35 401q0 35 18.5 62.5t50.5 41.5q-24 23 -38 54t-14 70q0 40 15 72t40.5 54t59 34t71.5 12q37 0 71 -11.5t59.5 -33.5t40.5 -54.5t15 -73.5q0 -54 -24.5 -91.5t-63.5 -57.5q43 -23 74.5 -62t31.5 -92q0 -21 -6 -37.5t-13 -32t-13 -32t-6 -37.5t7.5 -37.5t15.5 -30.5
q13 -21 23 -43t10 -52q0 -44 -22.5 -72.5t-55.5 -45.5t-69.5 -24t-64.5 -7t-64.5 7t-69.5 23.5t-55.5 45t-22.5 71.5q0 24 7 42.5t18 38.5q12 22 24.5 53.5t12.5 71.5q0 34 -10 55.5t-21.5 39t-21.5 35t-10 44.5zM-15 431q0 -21 10 -33l21.5 -27t21.5 -39t10 -69
q0 -44 -9.5 -75t-21.5 -54.5l-21.5 -42.5t-9.5 -40q0 -27 17 -45t41.5 -28.5t52.5 -15t49 -4.5t48.5 4.5t52.5 15.5t42 30t17 48q0 21 -9 38t-19.5 34.5t-19 38t-8.5 49.5q0 24 6 41.5t13 33t13 31t6 35.5q0 37 -22.5 64.5t-55 45t-68 26t-62.5 8.5q-42 0 -68.5 -18.5
t-26.5 -51.5zM270 660q0 29 -11 51.5t-29 38t-42.5 23.5t-51.5 8t-51.5 -8t-42.5 -23.5t-29 -38t-11 -50.5q0 -29 11 -51t29.5 -38t43 -24t51.5 -8t51 8t42 23t29 37.5t11 51.5z" />
    <glyph glyph-name="j" unicode="j" horiz-adv-x="410" 
d="M322 630q0 -51 -23 -88t-60 -58q44 -7 71.5 -33t42.5 -61.5t20 -76.5t5 -78q0 -83 -19 -147t-51.5 -111t-76.5 -79t-93.5 -51.5t-103 -28t-104.5 -8.5q-2 0 -15.5 1t-28.5 8.5t-27.5 22.5t-12.5 44q0 30 15.5 48t39 30t50.5 21t50.5 20.5t39 28.5t15.5 46
q0 28 -12.5 58.5t-27.5 63t-27.5 67.5t-12.5 73q0 51 24 83t61 47q-48 19 -80 59.5t-32 100.5q0 40 15.5 72.5t41.5 55t59.5 34.5t70.5 12q36 0 70 -12t59.5 -35t41 -55.5t15.5 -73.5zM-4 371q0 -31 12.5 -64t27.5 -66.5t27.5 -67.5t12.5 -67q0 -36 -15.5 -59.5t-39 -39.5
t-50.5 -26.5l-50.5 -19.5t-39 -19t-15.5 -25q0 -9 4.5 -13.5t10.5 -6.5t11 -2.5t6 -0.5q27 0 68 4.5t86.5 16.5t90 33t78.5 54q27 25 41.5 52.5t21.5 55t8.5 53t1.5 48.5q0 65 -5 114t-21 81.5t-47 48.5t-83 16q-24 0 -49 -4t-45.5 -15t-34 -30.5t-13.5 -50.5zM238 662
q0 29 -11 52t-29.5 39t-43 24.5t-50.5 8.5q-27 0 -51 -8.5t-43 -24.5t-30 -38.5t-11 -50.5t11 -50.5t29.5 -38t43.5 -24t52 -8.5t51 8t42 23.5t29 37.5t11 50z" />
    <glyph glyph-name="k" unicode="k" horiz-adv-x="807" 
d="M770 392q0 -32 -16.5 -53.5t-41.5 -36.5t-53.5 -24.5t-53.5 -19t-41.5 -20.5t-16.5 -27q0 -9 8.5 -18.5t22.5 -19t30.5 -18l33.5 -16.5l45 -23q23 -11 41.5 -26.5t30 -35t11.5 -45.5q0 -31 -16.5 -56t-42.5 -43t-58 -27.5t-62 -9.5q-46 0 -83.5 20.5t-68 51t-56 65.5
l-47.5 64q-4 0 -9 -1.5t-5 -5.5q0 -2 1 -7l3 -7q4 -13 7.5 -25.5t3.5 -29.5q0 -39 -21.5 -66.5t-54 -45t-69 -26t-66.5 -8.5q-26 0 -55 7t-53.5 23t-40.5 42.5t-16 66.5q0 36 12 69t27 68q20 45 31.5 76.5t11.5 61.5q0 34 -13 66.5t-28 65.5t-28 68t-13 74q0 36 11.5 60
t31 39t44.5 21.5t51 6.5q32 0 77 -9.5t86 -31.5t69.5 -58t28.5 -88q0 -8 -0.5 -13.5t-1.5 -10.5q16 24 41.5 41t53.5 28t57 16t53 5q32 0 68.5 -8.5t67 -27t51 -48t20.5 -70.5zM686 427q0 26 -15 44.5t-38.5 30.5t-50.5 18t-51 6q-25 0 -55.5 -6.5t-57 -20t-45 -35.5
t-18.5 -53q0 -33 -2.5 -63t-14 -53t-34.5 -36.5t-64 -13.5q-16 0 -23.5 4.5t-7.5 24.5q0 25 10.5 55t23 62t23 63t10.5 57q0 38 -23 64t-55 42t-67.5 23t-59.5 7q-37 0 -63.5 -17t-26.5 -60q0 -30 13 -63.5t28 -68t28 -71t13 -72.5t-13 -72t-28 -70.5l-28 -67t-13 -60.5
q0 -26 11 -43t28 -27t37 -14.5t39 -4.5q22 0 49 5.5t51 17t40.5 29t16.5 42.5q0 20 -7.5 36.5t-7.5 33.5q0 15 8 25.5t19 18t22.5 11t17.5 3.5q14 0 29.5 -15t33 -37l37.5 -48.5t44 -48.5t52 -37t61 -15q21 0 43 6t40 17t29.5 26t11.5 32q0 21 -16.5 36.5t-41.5 29t-53.5 27
t-53.5 29.5t-41.5 37t-16.5 49t16.5 45t41.5 28t53.5 19t53.5 18.5t41.5 27t16.5 43.5zM297 269q26 11 31.5 39t6.5 62l-25 -65t-13 -36z" />
    <glyph glyph-name="l" unicode="l" horiz-adv-x="434" 
d="M-38 25q0 38 14.5 71.5t32.5 68.5q21 40 36 74.5t15 63.5q0 69 -1 140.5t-1 152.5q0 33 10.5 56t28.5 38t42 22t51 7q45 0 81 -17.5t60.5 -47.5t37.5 -69t13 -82q0 -54 -18 -100t-42 -97q-14 -30 -25.5 -57.5t-11.5 -50.5t12.5 -39t30.5 -33l20 -20q10 -10 17.5 -22.5
t12.5 -28t5 -34.5q0 -42 -22 -70.5t-54 -45.5t-69 -24.5t-68 -7.5q-29 0 -65 6.5t-67.5 23.5t-53.5 46.5t-22 75.5zM-18 58q0 -30 16.5 -50t40.5 -31t51 -15.5t48 -4.5q24 0 52 5t52 16t40.5 29t16.5 45q0 26 -15.5 43t-33.5 34.5t-33.5 40t-15.5 59.5t15 72.5t33.5 73
t33.5 77t15 83.5q0 32 -9.5 62t-27.5 52.5t-43.5 36t-58.5 13.5q-34 0 -57.5 -16.5t-23.5 -54.5q0 -65 1 -141.5t1 -151.5q0 -37 -15.5 -73.5t-33.5 -71.5t-33.5 -68.5t-15.5 -63.5z" />
    <glyph glyph-name="m" unicode="m" horiz-adv-x="1037" 
d="M143 541q24 0 52 -6t54.5 -19t46.5 -33.5t27 -49.5q22 17 48 31.5t58 14.5q25 0 45 -9t37 -19.5l32.5 -19.5t30.5 -9t30.5 9l33 19.5t39 19.5t48.5 9q38 0 77.5 -19.5t71.5 -50.5t52.5 -68.5t20.5 -73.5q0 -20 -6 -37t-13.5 -31.5l-13.5 -27t-6 -23.5q0 -15 12 -30
l26.5 -32t26.5 -38.5t12 -51.5q0 -29 -12.5 -51.5t-33.5 -38.5t-48.5 -24t-56.5 -8q-25 0 -55.5 6t-61 18.5t-58 31t-45.5 42.5q-22 -35 -60.5 -53.5t-77.5 -18.5q-32 0 -64 12.5t-56 37.5q-10 -23 -29 -41t-43 -30.5t-52.5 -19.5t-58.5 -7q-28 0 -63.5 7t-67 23.5t-53 43
t-21.5 66.5q0 26 8.5 47.5t19.5 43.5t22.5 50.5t11.5 71.5q0 40 -10.5 68t-21.5 50l-2 3q-11 20 -18.5 39.5t-7.5 42.5q0 34 16.5 59t41.5 41.5t55.5 24.5t59.5 8zM112 521q-20 0 -41.5 -5t-39.5 -14.5t-29.5 -24.5t-11.5 -35q0 -19 9.5 -37t20.5 -41.5t20.5 -53.5t9.5 -73
q0 -44 -9.5 -74.5t-21.5 -54l-21.5 -43t-9.5 -39.5q0 -26 16 -43t39.5 -27.5t50 -15t47.5 -4.5q27 0 52.5 6.5t45 19t31.5 29.5t12 38q0 20 -10 41.5t-22 43t-22 44t-10 44.5q0 20 8.5 42t20.5 40t25.5 29.5t23.5 11.5q9 0 22.5 -10.5t25.5 -26.5t20.5 -34.5t8.5 -33.5
q0 -13 -5.5 -30.5t-12.5 -36t-12.5 -38t-5.5 -37.5q0 -23 10 -40.5t25.5 -29.5t34.5 -18t38 -6q18 0 37 6t34.5 18t25 29t9.5 39q0 18 -6 37.5t-12.5 38l-12.5 35.5t-6 29q0 15 8.5 33.5t21 35t26.5 27.5t24 11q9 0 20.5 -9.5t21 -23.5t16.5 -30.5t7 -30.5q0 -16 -8 -34
l-17.5 -37.5t-17.5 -39t-8 -38.5q0 -30 20.5 -53t50.5 -38.5t63.5 -23t58.5 -7.5q39 0 69.5 18.5t30.5 54.5q0 22 -12 39t-26.5 32.5t-26.5 33.5t-12 42q0 17 6 31t13.5 27.5t13.5 28t6 32.5q0 28 -15.5 57t-40.5 52.5t-55 38t-60 14.5q-24 0 -42.5 -9t-35 -19.5
t-33.5 -19.5t-38 -9t-39 9t-34.5 19.5t-33 19.5t-36.5 9q-22 0 -41 -10.5t-35.5 -23.5l-31 -23.5t-27.5 -10.5q-9 0 -13.5 6t-6 15t-2 19t-1.5 18q-3 19 -17.5 33t-33.5 22.5t-40.5 12.5t-38.5 4zM302 174q0 -15 7 -30.5t18 -35.5q4 19 15 39t11 40q0 9 -3 18.5t-6.5 17.5
t-8 13t-7.5 5t-7.5 -7t-8.5 -17t-7 -22t-3 -21zM610 148q8 3 13.5 10t9 15.5t5 15t1.5 8.5q0 6 -1 13t-3 13.5t-4.5 11t-5.5 4.5t-7.5 -5.5t-9 -14t-7.5 -18t-3 -17.5q0 -1 0.5 -7t2 -12.5t4 -11.5t5.5 -5z" />
    <glyph glyph-name="n" unicode="n" horiz-adv-x="758" 
d="M413 478q45 0 91 -17.5t83 -47.5t60 -69.5t23 -83.5q0 -21 -4.5 -38t-10.5 -31.5t-10.5 -26.5t-4.5 -21q0 -15 12 -29l27 -31t27 -38.5t12 -51.5q0 -28 -11.5 -50t-31 -37.5t-45 -24t-53.5 -8.5q-22 0 -48.5 5.5t-53.5 16t-53 27t-47 39.5q-9 -31 -32 -52.5t-52.5 -35
t-61 -19.5t-57.5 -6q-30 0 -65.5 8t-66 25t-50.5 44t-20 65q0 23 7 43.5t16 42.5q16 35 26.5 64t10.5 55q0 22 -7.5 45t-16.5 46q-10 25 -17.5 48.5t-7.5 52.5t8.5 48t21.5 30t28.5 15.5t29.5 4.5q28 0 50 -12.5t39.5 -28l33 -28t32.5 -12.5q10 0 18.5 5t22.5 15
q27 19 63 36.5t85 17.5zM382 458q-35 0 -61 -11.5t-46.5 -25.5l-39 -25.5t-38.5 -11.5q-21 0 -39.5 12.5t-36.5 28t-37 28t-41 12.5q-16 0 -29 -9.5t-13 -36.5q0 -21 7.5 -43t17 -46t17 -49.5t7.5 -53.5q0 -32 -9.5 -60.5t-20.5 -54.5l-20.5 -49t-9.5 -42q0 -24 15 -40.5
t37.5 -27.5t49 -16t49.5 -5q22 0 49 5t51 16.5t40 30.5t16 46q0 18 -6.5 34t-14 32.5t-14 35.5t-6.5 42q0 18 4.5 44t13.5 51t22.5 42.5t32.5 17.5q13 0 20.5 -8.5t11 -20.5t4 -24.5t0.5 -21.5q0 -50 -7.5 -84.5t-7.5 -61.5q0 -39 21 -67.5t51 -47t63.5 -27.5t58.5 -9
q36 0 63 18t27 52q0 23 -12 39.5t-27 32t-27 33t-12 43.5q0 16 4.5 28.5t10.5 24.5t10.5 26t4.5 33q0 36 -18.5 67t-47.5 54t-65.5 36.5t-72.5 13.5z" />
    <glyph glyph-name="o" unicode="o" horiz-adv-x="703" 
d="M320 -104q-57 0 -118.5 18t-112.5 54t-84 89t-33 124q0 73 30 131.5t78.5 99.5t109 63.5t120.5 22.5q57 0 120.5 -23.5t116 -65.5t87 -101t34.5 -130q0 -69 -33 -122t-84 -88.5t-112.5 -53.5t-118.5 -18zM288 -20q49 0 101 15t95.5 44t71.5 72t28 100q0 58 -29.5 107
t-74.5 84.5t-98.5 55.5t-102.5 20q-50 0 -101 -20t-92 -55.5t-67.5 -83.5t-26.5 -104q0 -58 28 -102t71.5 -73.5t95.5 -44.5t101 -15zM361 213q0 -15 -4.5 -34t-13.5 -35.5t-23 -28t-33 -11.5q-21 0 -35.5 13t-23.5 32.5t-13 41t-4 38.5t4 39.5t12 42t20.5 33t30.5 13.5
q19 0 34.5 -15.5t26 -38t16.5 -47.5t6 -43zM341 182q0 10 -2.5 26t-6 30t-9 24.5t-11.5 10.5q-5 0 -8.5 -8.5t-5.5 -20t-2.5 -24t-0.5 -20.5q0 -11 1 -24t4 -24.5t7.5 -19.5t11.5 -8q6 0 10 6t6.5 15t4 19t1.5 18z" />
    <glyph glyph-name="p" unicode="p" horiz-adv-x="758" 
d="M133 562q24 0 53 -5.5t55 -18.5t46 -33t28 -49q23 15 52.5 28.5t74.5 13.5q43 0 88 -15.5t82 -47t60.5 -80.5t23.5 -116q0 -69 -25 -122.5t-64 -90t-86.5 -56t-93.5 -19.5q-41 0 -66.5 13t-46.5 29l22 -62t8 -45q0 -41 -24.5 -71t-60 -49.5t-75.5 -29.5t-71 -10
q-26 0 -53 7t-49.5 23t-37 41.5t-14.5 62.5q0 39 14.5 76.5t32.5 74.5q17 35 30.5 68t13.5 66q0 34 -14 67t-31.5 66.5t-31.5 68.5t-14 73q0 41 17.5 68.5t44 44t56.5 23t56 6.5zM103 542q-18 0 -40 -4t-40.5 -14.5t-31 -28t-12.5 -43.5q0 -29 14 -62.5t31.5 -69t31.5 -72.5
t14 -74t-14 -74t-31.5 -72.5t-31.5 -69.5t-14 -64q0 -24 9.5 -40t24.5 -25.5t33.5 -14t36.5 -4.5q23 0 53.5 6.5t58 20t46.5 34t19 47.5q0 15 -5.5 32t-12 33.5t-12 32t-5.5 28.5q0 20 13.5 30t30.5 10t29 -7.5t25 -17t30 -17t44 -7.5q36 0 74 16t69.5 46t51.5 73.5t20 99.5
q0 54 -19 93t-48 64.5t-64.5 38t-69.5 12.5q-33 0 -55.5 -9.5t-39.5 -20.5l-30.5 -20.5t-27.5 -9.5q-10 0 -14.5 5t-6 12.5t-1.5 16.5t-1 17q-3 20 -17.5 34t-34 22.5t-41 12.5t-39.5 4zM317 355q19 0 32 -10t21 -25t12 -32.5t4 -32.5q0 -17 -4.5 -34.5t-13 -31.5t-22 -23
t-31.5 -9q-19 0 -32 9.5t-21.5 24t-12 31t-3.5 31.5t4 33t12 33t21.5 25.5t33.5 10.5zM348 271q-5 0 -8.5 -5t-5.5 -12.5t-3 -16.5t-1 -16q0 -14 3.5 -29t13.5 -15t14.5 14.5t4.5 31.5q0 16 -4 32t-14 16z" />
    <glyph glyph-name="q" unicode="q" horiz-adv-x="758" 
d="M555 -272q-32 0 -72 10t-75 29.5t-58.5 49.5t-23.5 70q0 26 9 51t20 50q-13 -10 -23.5 -17t-21.5 -11.5t-24 -7t-30 -2.5q-55 0 -106 21t-90.5 57.5t-63.5 86.5t-24 108q0 61 26 111.5t65.5 87t87.5 56.5t93 20q39 0 67 -13t49 -29q9 26 28.5 45.5t45 32t53.5 18.5t54 6
q25 0 54.5 -6.5t54.5 -22t42 -42.5t17 -67q0 -36 -13 -70.5t-31 -73.5q-16 -34 -29.5 -68t-13.5 -66t13 -65.5t29 -67.5q23 -51 34 -83t11 -63q0 -39 -14.5 -64.5t-37 -41.5t-50 -22.5t-52.5 -6.5zM521 -188q18 0 36.5 4t33.5 14t24.5 26t9.5 40q0 30 -13.5 63t-30 68
t-30 72t-13.5 75q0 37 13.5 74t30 72.5t30 68.5t13.5 62q0 26 -11.5 43t-29 26.5t-38 13.5t-38.5 4q-20 0 -41.5 -4t-40.5 -13t-32.5 -22t-17.5 -31q-2 -9 -2.5 -18t-2.5 -17t-6.5 -13t-13.5 -5q-14 0 -26.5 10t-28.5 21.5t-36.5 21.5t-49.5 10q-35 0 -73.5 -16.5
t-70.5 -45.5t-53 -70t-21 -90q0 -47 20 -87.5t51.5 -70.5t70.5 -47t77 -17q25 0 41.5 6.5t29 15t23.5 15t27 6.5q18 0 32 -10.5t14 -32.5q0 -13 -5 -27.5t-11 -29.5t-11 -30t-5 -29q0 -27 18.5 -46.5t45.5 -33t57 -20t54 -6.5zM287 354q18 0 31 -9.5t21.5 -24t12 -31.5
t3.5 -32t-3.5 -32.5t-11.5 -32t-20.5 -24.5t-30.5 -10q-16 0 -29.5 8t-23.5 21t-15.5 29.5t-5.5 34.5q0 13 3.5 31t12 34t22.5 27t34 11zM319 270q-6 0 -9.5 -5.5t-6 -14t-3.5 -17t-1 -14.5q0 -18 7 -29.5t14 -11.5q4 0 7 5t5 12t2.5 15.5t0.5 14.5q0 14 -3.5 29.5
t-12.5 15.5z" />
    <glyph glyph-name="r" unicode="r" horiz-adv-x="550" 
d="M135 542q22 0 46.5 -5t48 -16t42.5 -30t29 -46q16 14 38.5 24t54.5 10q33 0 56 -10.5t37.5 -27.5t21 -39t6.5 -45t-6 -46t-19 -42t-33.5 -30.5t-49.5 -11.5q-14 0 -31 2t-29 2q-15 0 -23.5 -5t-12.5 -15t-4.5 -25.5t-0.5 -36.5q0 -24 8.5 -38.5t18.5 -28.5t18.5 -32.5
t8.5 -50.5q0 -40 -16 -66.5t-40.5 -42.5t-54 -22.5t-56.5 -6.5q-29 0 -67 7t-72.5 24t-58 45.5t-23.5 70.5q0 29 10 52t22.5 46t22.5 48.5t10 59.5q0 37 -12.5 64t-25.5 47q-14 22 -23.5 43t-9.5 46q0 31 15.5 55t39.5 40t54 24.5t60 8.5zM103 522q-21 0 -42 -5t-37.5 -14.5
t-27 -23.5t-10.5 -32q0 -20 11 -38l24.5 -41t24.5 -53t11 -73t-10 -72t-22.5 -50.5l-22.5 -39.5t-10 -40q0 -27 18 -45.5t44 -29.5t54.5 -15.5t50.5 -4.5q20 0 40.5 4t37.5 14t28 27.5t11 44.5q0 25 -8.5 38.5t-18.5 26t-18.5 30t-8.5 51.5q0 31 1.5 55.5t10 42t26.5 27
t51 9.5q19 0 36.5 -2t27.5 -2q15 0 25.5 7t17.5 18t10 24.5t3 26.5q0 29 -15.5 50.5t-53.5 21.5q-27 0 -44 -11t-29 -23.5t-21.5 -23.5t-21.5 -11q-8 0 -12 4.5t-5.5 10.5t-2 12.5t-0.5 9.5q-1 27 -13 45t-30 29.5t-39.5 16t-40.5 4.5z" />
    <glyph glyph-name="s" unicode="s" horiz-adv-x="680" 
d="M-59 25q0 17 5 40t16.5 45.5t28.5 41.5t41 28q-29 19 -46.5 46t-17.5 71t23.5 81t59 63.5t78 41t81.5 14.5q32 0 52.5 -6.5t37 -15t32.5 -15t37 -6.5q16 0 31 7t30 16t31.5 16t35.5 7q28 0 49.5 -13t36.5 -33t23 -43.5t8 -44.5q0 -15 -5 -35.5t-14.5 -41.5t-23.5 -40.5
t-32 -31.5q25 -17 40 -41.5t15 -59.5q0 -21 -11 -58.5t-33.5 -74t-57 -63.5t-80.5 -27q-25 0 -49 6t-48 13t-48.5 13t-49.5 6q-20 0 -38.5 -7t-37 -16t-38 -16t-40.5 -7q-30 0 -53 13t-38 33.5t-23 45.5t-8 48zM-39 57q0 -15 4.5 -30.5t13.5 -28t22 -21t30 -8.5t34 7
t35.5 16t39 16t45.5 7q22 0 47.5 -6t51.5 -13l50.5 -13t45.5 -6q33 0 57.5 20.5t40.5 48.5t24 57t8 45q0 28 -20.5 46.5t-51 32t-66.5 23.5t-66.5 19.5t-51 21.5t-20.5 29q0 9 2.5 19.5t9 19.5t17 15t25.5 6q20 0 43 -14.5t46 -32t45 -32t40 -14.5q16 0 29 12.5t21.5 30
t13 36.5t4.5 32t-4.5 27.5t-12.5 26.5t-20.5 20t-27.5 8t-29 -7t-29 -16t-32 -16t-38 -7q-20 0 -35.5 6.5t-32 15t-37.5 15t-54 6.5q-30 0 -63.5 -11t-61.5 -30.5t-46.5 -46.5t-18.5 -60q0 -34 19.5 -54t48.5 -35t62.5 -28t62.5 -31t48.5 -45.5t19.5 -71.5q-13 0 -42 16
l-62 35l-63.5 35t-45.5 16q-20 0 -34.5 -12t-23.5 -29t-13 -36t-4 -32z" />
    <glyph glyph-name="t" unicode="t" horiz-adv-x="469" 
d="M6 503q0 39 18.5 65.5t45.5 43t58 23.5t56 7q21 0 45 -7t44.5 -21.5t34.5 -36t14 -51.5q0 -15 -3 -26.5t-7 -22.5q10 3 22 3q25 0 43.5 -12.5t31.5 -30.5t19.5 -39t6.5 -39t-6.5 -39t-19.5 -39.5t-31 -30.5t-41 -12q-4 0 -13 0.5t-18 1.5t-16.5 3t-8.5 4q0 -26 10.5 -44
t26 -32t34 -26.5t34 -29t26 -40t10.5 -58.5q0 -32 -10 -58.5t-27 -45.5t-39.5 -29t-47.5 -10q-51 0 -106 4.5t-100.5 22.5t-75.5 54t-30 99q0 18 2.5 44l5 53t5 50.5t2.5 37.5q0 31 -12 56.5t-26.5 47t-26.5 41t-12 39.5q0 14 8.5 24.5t21 17t27 10t27.5 3.5q-1 6 -1.5 12.5
t-0.5 12.5zM26 536q0 -16 7 -31t7 -29q0 -12 -7.5 -19t-18.5 -7q-10 0 -19.5 4t-19.5 4t-18 -6.5t-8 -17.5q0 -13 11 -25.5t24.5 -29.5t25 -41.5t11.5 -60.5q0 -17 -2.5 -42.5l-5 -53l-5 -52.5t-2.5 -40q0 -46 24.5 -72t62 -39t83.5 -16.5t90 -3.5q29 0 50.5 25t21.5 63
q0 26 -10.5 43.5t-26 30.5t-33.5 24.5t-33.5 26t-26 35t-10.5 51.5q0 39 15.5 58t35.5 19q14 0 26.5 -6t26.5 -6q12 0 21 7t15.5 17.5t9.5 22.5t3 22t-3 22t-9.5 22.5t-15.5 17.5t-21 7q-14 0 -26.5 -6t-25.5 -6t-22.5 9t-9.5 24q0 17 10 37.5t10 40.5q0 16 -8.5 28
t-21.5 19.5t-28.5 11.5t-28.5 4q-17 0 -38.5 -6t-41 -17.5t-32.5 -27.5t-13 -35z" />
    <glyph glyph-name="u" unicode="u" horiz-adv-x="734" 
d="M-48 355q0 31 13 53.5t33.5 37.5t46.5 22t52 7q21 0 48.5 -5t55 -15.5t53.5 -26t45 -37.5q14 18 33 31t40.5 21.5t43 13t39.5 4.5q28 0 65.5 -10.5t71 -32.5t56.5 -55.5t23 -78.5q0 -24 -6.5 -47.5t-14 -46t-13.5 -44.5t-6 -43q0 -25 8.5 -43.5t19 -35.5t19.5 -35.5
t9 -44.5q0 -35 -17.5 -60t-44.5 -41t-58 -23.5t-58 -7.5q-21 0 -46.5 4.5t-50 15t-44.5 27t-30 40.5q-17 -11 -41 -18t-59 -7q-55 0 -100 19t-77.5 50.5t-50 72t-17.5 84.5q0 19 3 35t7 28.5t7 23.5t3 21q0 18 -9.5 33t-21 31t-21 35.5t-9.5 47.5zM-28 384q0 -21 9.5 -36.5
t21 -30.5t21 -32.5t9.5 -41.5q0 -14 -3 -25.5t-7 -23t-7 -25t-3 -31.5q0 -36 14 -69t39.5 -57.5t60.5 -39t78 -14.5q36 0 56.5 9.5t33 20.5t21 20.5t20.5 9.5q10 0 12.5 -6.5t2.5 -16.5q0 -7 -0.5 -12t-0.5 -10q0 -22 13 -36.5t32.5 -23.5t41.5 -13t40 -4q19 0 41 4.5t41 14
t31.5 25.5t12.5 39q0 20 -9 35.5l-19.5 32t-19 36t-8.5 47.5q0 24 6 48t13.5 48l14 46.5t6.5 42.5q0 33 -17.5 56.5t-43 39t-53.5 23t-50 7.5q-18 0 -40.5 -5.5t-42 -16t-32.5 -27.5t-13 -39q0 -20 10 -42t21.5 -43.5l21.5 -41.5t10 -36q0 -14 -8 -24t-20 -16t-26.5 -9
t-27.5 -3q-10 0 -21.5 2t-21.5 8t-16.5 16t-6.5 26t6 35t13 38.5t13 39t6 36.5q0 30 -20 52t-48.5 36.5t-60 21t-53.5 6.5q-17 0 -34 -4t-30.5 -12.5t-21.5 -22t-8 -32.5zM310 214l-11 -32t-5 -24h44q0 6 -7.5 20t-20.5 36z" />
    <glyph glyph-name="v" unicode="v" horiz-adv-x="704" 
d="M-44 284q0 97 42 147t143 50q66 0 111 -23.5t62 -78.5q20 53 65.5 75t108.5 22q95 0 135 -46t40 -140q0 -80 -26 -157.5t-73 -138t-112.5 -97.5t-144.5 -37q-78 0 -142.5 36t-111 95.5t-72 135.5t-25.5 157zM-24 313q0 -69 22 -135.5t61.5 -118t94.5 -83.5t121 -32
q67 0 123 32.5t96.5 85.5t62.5 120t22 136q0 71 -27.5 104.5t-96.5 33.5q-58 0 -95 -27t-37 -92q0 -35 7.5 -76.5t7.5 -79.5q0 -30 -11 -51.5t-45 -21.5t-44.5 21t-10.5 52q0 37 7 77.5t7 77.5q0 69 -35 97t-96 28q-74 0 -104 -37.5t-30 -110.5z" />
    <glyph glyph-name="w" unicode="w" horiz-adv-x="1060" 
d="M284 -127q-69 0 -129 32.5t-104 86t-69.5 122.5t-25.5 141q0 54 15 97.5t42 74t66 46.5t87 16q25 0 50.5 -5t47.5 -15t40 -26t30 -37q43 35 85 47t85 12q56 0 91 -14t55 -39q23 36 64.5 53.5t89.5 17.5q45 0 83.5 -15t66.5 -44.5t44 -72t16 -97.5q0 -71 -26.5 -139.5
t-73 -122t-110.5 -86.5t-138 -33q-73 0 -123.5 34.5t-61.5 105.5q-6 -35 -24.5 -61t-45.5 -43.5t-60 -26.5t-67 -9zM259 -43q62 0 101.5 33t39.5 108q0 14 -1 30.5t-1 34.5q0 13 1.5 27.5t6.5 26.5t15.5 20t28.5 8q32 0 42 -25t10 -58q0 -22 -2 -41t-2 -36q0 -66 38 -97
t100 -31t116 28.5t93.5 74.5t62 105t22.5 119q0 43 -12 76.5t-33 56.5t-50 34.5t-63 11.5q-24 0 -46 -6t-39 -18t-27.5 -30t-10.5 -42q0 -20 6 -42.5t13.5 -44.5t13.5 -42t6 -36q0 -13 -4.5 -22t-11.5 -14t-14 -7.5t-13 -2.5q-14 0 -21.5 10t-12 27t-6 39.5t-1.5 47.5
q-1 30 -3.5 59.5t-15 53t-38 38t-71.5 14.5q-75 0 -119.5 -38.5t-44.5 -106.5q0 -6 0.5 -15.5t0.5 -20t0.5 -19.5t0.5 -15q0 -10 -1.5 -22.5t-6 -24t-11.5 -19t-19 -7.5q-5 0 -13 2t-15 7.5t-12 15t-5 23.5q0 15 5.5 35t12.5 41.5t12.5 43.5t5.5 42q0 26 -11.5 45.5
t-30.5 32t-42.5 18.5t-48.5 6q-72 0 -115 -48.5t-43 -137.5q0 -61 21 -119.5t58.5 -104.5t89.5 -74t114 -28z" />
    <glyph glyph-name="x" unicode="x" horiz-adv-x="741" 
d="M164 506q23 0 48 -6t47.5 -18.5t39 -32t23.5 -45.5q7 24 23.5 42t37.5 30t44.5 17.5t44.5 5.5q28 0 62.5 -9.5t65.5 -28t52 -45t21 -60.5q0 -24 -10.5 -41.5t-26.5 -31t-34.5 -24.5t-34.5 -21.5t-26.5 -23t-10.5 -28.5q0 -17 11.5 -29t28.5 -22t37 -20t37 -23.5t28.5 -32
t11.5 -45.5q0 -39 -22.5 -67.5t-55.5 -47t-71 -28t-69 -9.5q-25 0 -53 6.5t-52 20t-42 35.5t-23 52q-6 -26 -21 -45.5t-36 -32t-45 -18.5t-47 -6q-29 0 -65 9.5t-67.5 28.5t-53 47.5t-21.5 67.5q0 28 11.5 46.5t28.5 31.5t37.5 22t37.5 18t28.5 20t11.5 27q0 23 -21.5 38.5
t-47.5 31.5t-47.5 38t-21.5 59q0 36 21 63t52.5 46t67.5 28.5t66 9.5zM337 400q0 -24 9.5 -40.5t9.5 -37.5q0 -14 -5.5 -27t-15 -23t-21.5 -16t-25 -6t-26 6.5t-23 16.5t-16 23t-6 26q0 10 3.5 19t8 18.5t8.5 20t4 24.5q0 22 -10.5 37.5t-26.5 25.5t-35.5 14.5t-38.5 4.5
q-22 0 -48.5 -6t-50 -18.5t-39.5 -30.5t-16 -42q0 -29 21.5 -45.5t47.5 -32t47.5 -35.5t21.5 -55q0 -25 -11.5 -42t-28.5 -29.5t-37.5 -22t-37.5 -20t-28.5 -23.5t-11.5 -32q0 -23 16 -40.5t40 -29.5t50.5 -18t47.5 -6q18 0 36 3.5t32.5 12t23.5 22.5t9 35q0 24 -9 43t-9 40
q0 14 5.5 27t15 23t22 16t25.5 6t26 -6t23.5 -16.5t16.5 -23.5t6 -27q0 -11 -3.5 -20.5t-8 -19.5t-8 -21t-3.5 -25q0 -24 11.5 -39.5t29.5 -25t39.5 -13t41.5 -3.5q23 0 51.5 6t53.5 18.5t42 32t17 45.5q0 21 -11.5 35.5t-28.5 25.5t-37 20.5t-37 21t-28.5 27.5t-11.5 40
q0 22 10.5 38.5t26.5 29t34.5 22.5t34.5 21.5t26.5 24.5t10.5 32q0 22 -15.5 39.5t-38.5 29.5t-48.5 18t-45.5 6q-17 0 -35.5 -4.5t-33.5 -14t-25 -24.5t-10 -36zM281 85q0 -14 6.5 -28.5t9.5 -29.5q3 13 11.5 28t8.5 29q0 5 -6 11.5t-14 6.5q-7 0 -11.5 -6t-4.5 -11z
M336 288q0 12 -6 25t-10 27q-2 -12 -10 -24.5t-8 -25.5q0 -8 6.5 -14t12.5 -6t10.5 5.5t4.5 12.5z" />
    <glyph glyph-name="y" unicode="y" horiz-adv-x="712" 
d="M-51 350q0 39 25 68t61.5 48.5t77 29.5t71.5 10q36 0 73 -14t57 -47q18 30 52 43t75 13q42 0 84.5 -12.5t77 -37t56.5 -60.5t22 -82q0 -43 -19 -91.5t-52.5 -99t-78 -101t-95 -96.5t-104.5 -85.5t-107 -69t-101 -46t-87 -16.5q-46 0 -61.5 22t-15.5 57q0 43 15 70
t37.5 44.5t48.5 28.5t48.5 22.5t37.5 26t15 39.5t-16 51.5t-39.5 53.5t-51 55t-51 56.5t-39.5 58.5t-16 61zM-31 378q0 -25 16 -50.5t39.5 -52.5t51 -54.5t51 -57t39.5 -60t16 -62.5q0 -31 -15 -52.5t-37.5 -37t-48.5 -28t-48.5 -27t-37.5 -33t-15 -45.5q0 -16 7 -23t28 -7
q43 0 103.5 26.5t125 71t128 101.5t113.5 117.5t81 120t31 109.5q0 37 -17 64.5t-44 46t-60 27.5t-65 9q-39 0 -66 -15.5t-27 -55.5q0 -21 6.5 -32.5t15 -23.5t15 -29.5t6.5 -50.5q0 -18 -3 -40t-11.5 -41t-23 -31.5t-37.5 -12.5q-24 0 -39 13.5t-23.5 33.5t-11.5 42t-3 40
q0 30 6 47t13.5 29t13.5 23.5t6 30.5q0 22 -8.5 37t-22.5 24t-31.5 13t-35.5 4q-23 0 -54.5 -6.5t-59.5 -20t-47.5 -33.5t-19.5 -48zM341 238q0 25 -6 39t-20 36q-11 -15 -16.5 -31t-5.5 -39q0 -9 1 -21.5t3.5 -24t7.5 -20t13 -8.5q7 0 11.5 7.5t7 18t3.5 22.5t1 21z" />
    <glyph glyph-name="z" unicode="z" horiz-adv-x="680" 
d="M-35 283q0 53 16 89t43 60t62 37t73.5 19.5t77.5 7.5t73 1h19q52 0 105 -3t95 -20.5t68.5 -55.5t26.5 -108q0 -42 -14.5 -70t-37.5 -51q16 -1 30 -5t23.5 -15t15 -30.5t5.5 -50.5q0 -49 -16 -84.5t-43 -59.5t-62.5 -38t-74.5 -21.5t-78.5 -9.5t-74.5 -2h-82
q-46 0 -89.5 4.5t-77 22.5t-54 53t-20.5 96q0 59 27 96.5t68 60.5q-5 -1 -9 -1h-8q-39 0 -63 16.5t-24 61.5zM-15 315q0 -15 9.5 -20.5t25.5 -5.5q14 0 42 6.5l61 14.5t68.5 14.5t64.5 6.5q32 0 52 -10.5t20 -37.5q0 -14 -24.5 -22t-62 -15.5t-80.5 -18t-80.5 -28t-62 -46
t-24.5 -72.5q0 -42 15 -66.5t40 -37.5t57.5 -16.5t68.5 -3.5q20 0 41.5 0.5t41.5 0.5q45 0 98 3t99 18t76.5 48t30.5 93q0 34 -11 42t-28 8q-5 0 -33 -11.5l-66 -26t-79 -26t-73 -11.5q-26 0 -42.5 10.5t-16.5 36.5q0 14 24 22.5t60.5 16l79 17t79 27t60.5 45.5t24 72
q0 50 -23 77.5t-58.5 40t-78 15t-81.5 2.5h-5q-29 0 -63 -1t-68.5 -5.5t-66.5 -14t-56.5 -27.5t-39.5 -46t-15 -68z" />
    <glyph glyph-name="braceleft" unicode="{" horiz-adv-x="688" 
d="M557 -247q-40 0 -86 5t-91 17t-86.5 31t-73 47t-50.5 66t-19 88q0 10 1 19.5t1 20.5q0 19 -1.5 38.5t-6 34.5t-13 24.5t-23.5 9.5q-27 0 -46 10.5t-32 26.5t-19 35.5t-6 38.5q0 26 7.5 50.5t23.5 43.5t40.5 30.5t57.5 11.5q12 0 15 16.5t3 35.5q0 16 -1 32t-1 35
q0 73 38.5 125t97 85.5t127.5 49.5t130 16q26 0 46 -10t33.5 -26t20.5 -35t7 -38q0 -64 -35 -112.5t-87 -70.5q-18 -8 -33.5 -18.5t-15.5 -34.5q0 -15 2 -30.5t2 -35.5q0 -47 -13.5 -72.5t-33.5 -39.5q21 -14 34.5 -39.5t13.5 -72.5v-12q0 -6 -0.5 -15t-1.5 -22t-2 -33
q5 -17 18.5 -25.5t29.5 -15.5q54 -26 89 -75t35 -114q0 -46 -28.5 -71t-67.5 -25zM523 -158q17 0 29 10.5t12 30.5q0 19 -7.5 41t-17.5 45q-7 17 -21 27.5t-30.5 18.5l-33.5 15.5t-31 19.5t-23 29.5t-9 46.5q0 17 2.5 34.5t2.5 34.5q0 30 -10.5 45.5t-25.5 23t-33.5 9
t-33.5 4t-25.5 8t-10.5 20.5t10 21t25.5 8.5t33.5 4.5t33.5 10t25.5 24t10 46q0 16 -2 32.5t-2 33.5q0 43 19 63.5t44 32.5l49.5 23.5t35.5 37.5q8 19 15.5 39.5t7.5 39.5t-13 36.5t-39 17.5q-53 0 -112 -12.5t-109.5 -39.5t-83.5 -69t-33 -100q0 -14 1 -31t1 -36
q0 -20 -2.5 -39t-10.5 -34t-22 -24.5t-38 -9.5q-38 0 -56 -25t-18 -56q0 -19 11.5 -37.5t36.5 -18.5q34 0 53.5 -14t29.5 -37t13 -52t3 -59q0 -11 -1 -20t-1 -20q0 -39 16.5 -68.5t44 -52t63 -37.5t74.5 -24t78.5 -13t74.5 -4z" />
    <glyph glyph-name="bar" unicode="|" horiz-adv-x="468" 
d="M191 680q36 0 71 -8.5t62.5 -28t45 -53t17.5 -82.5q0 -40 -10 -77t-22.5 -73.5t-22.5 -73.5t-10 -76t10 -76.5t22.5 -74t22.5 -74t10 -77.5q0 -51 -17.5 -84.5t-46 -54t-64 -28.5t-70.5 -8t-70.5 8.5t-64 28t-46 52.5t-17.5 82q0 39 10 77t24 80q11 35 21.5 74.5
t10.5 72.5t-10.5 72t-21.5 74q-14 45 -24 82t-10 74q0 49 17.5 82t46 53t64.5 28.5t72 8.5zM157 659q-26 0 -52 -6t-46.5 -19.5t-33.5 -36.5t-13 -57q0 -32 10.5 -68.5l22.5 -75t22.5 -78t10.5 -78.5t-10.5 -78.5t-22.5 -78l-22.5 -75t-10.5 -69.5q0 -35 13 -57.5t33 -36.5
t45.5 -19.5t51.5 -5.5q25 0 51 5.5t46 19.5t33 37t13 58q0 32 -10 68.5t-22.5 75t-22.5 78t-10 78.5t10 78.5t22.5 77.5t22.5 74.5t10 69.5q0 34 -12.5 57t-32.5 37t-45.5 19.5t-50.5 5.5z" />
    <glyph glyph-name="braceright" unicode="}" horiz-adv-x="625" 
d="M72 -247q-39 0 -67.5 25t-28.5 71q0 26 9 53.5t20 54.5q13 30 37.5 46.5t48 28.5t41 24.5t17.5 35.5q0 15 -2.5 29.5t-2.5 39.5q0 47 13.5 72.5t34.5 39.5q-21 14 -34 39.5t-13 72.5q0 22 2 38.5t2 27.5q0 12 -4.5 20.5t-11 14.5t-15 10l-17.5 8l-28 12.5t-26.5 16
t-23 22.5t-17.5 31q-10 23 -19 49t-9 52q0 19 7 38t20.5 35t33.5 26t46 10q61 0 130 -16t127.5 -49.5t97 -85.5t38.5 -125q0 -16 -1 -34t-1 -33q0 -19 3 -35.5t15 -16.5q33 0 57.5 -11.5t40.5 -30.5t23.5 -43.5t7.5 -50.5q0 -19 -6 -38.5t-19 -35.5t-32 -26.5t-46 -10.5
q-15 0 -24 -9.5t-13.5 -24.5t-5.5 -34.5t-1 -38.5q0 -10 1 -20t1 -20q0 -49 -19 -87.5t-50.5 -66.5t-73 -47t-86.5 -31t-91 -17t-86 -5zM38 -158q35 0 74.5 4t78.5 13t74.5 24t63 37.5t44 52t16.5 68.5q0 11 -1 20t-1 20q0 30 3 59t13 52t29.5 37t53.5 14q25 0 36.5 18.5
t11.5 37.5q0 31 -18 56t-56 25q-24 0 -38 9.5t-22 24.5t-10.5 34t-2.5 39q0 19 1 36t1 31q0 39 -15.5 70.5t-41 56t-60 42.5t-72 29.5t-76 17t-73.5 5.5q-26 0 -39 -17.5t-13 -36.5t7.5 -39.5t15.5 -39.5q11 -26 35.5 -37.5l49.5 -23.5t44 -32.5t19 -63.5q0 -17 -2 -33.5
t-2 -32.5q0 -30 10 -46t25.5 -24t33.5 -10t33.5 -4.5t25.5 -8.5t10 -21t-10.5 -20.5t-25.5 -8t-33.5 -4t-33.5 -9t-25.5 -23t-10.5 -45.5q0 -17 2.5 -34.5t2.5 -34.5q0 -28 -9 -46t-23 -30t-31 -19.5l-33.5 -15.5t-30.5 -18.5t-21 -27.5q-10 -23 -17.5 -45t-7.5 -41
q0 -20 12 -30.5t29 -10.5z" />
    <glyph glyph-name="asciitilde" unicode="~" horiz-adv-x="814" 
d="M624 459q29 0 52.5 -13.5t40.5 -35t26 -48t9 -52.5q0 -34 -11 -57t-30.5 -37t-45 -20t-54.5 -6q-38 0 -73.5 10.5t-71 23t-70.5 23t-72 10.5q-19 0 -33 -11.5t-28 -25.5t-31.5 -25.5t-43.5 -11.5t-49 12t-40.5 33t-28 48.5t-10.5 58.5q0 71 41 101t106 30q44 0 90.5 -13
t88.5 -27l57 -17.5t48 -9.5q18 0 32 9.5t28.5 20.5t31.5 20.5t41 9.5zM594 439q-19 0 -32 -9.5l-27 -20.5t-31 -20.5t-43 -9.5q-27 0 -61 10.5l-71 23t-76 23t-76 10.5q-43 0 -70 -18t-27 -63q0 -21 6.5 -39.5t17 -32.5t24.5 -22t30 -8q20 0 32.5 11.5t25 25.5t30.5 25.5
t48 11.5q29 0 63.5 -10.5l72 -23t76 -23t75.5 -10.5q38 0 64.5 15t26.5 55q0 17 -5.5 34.5t-16 32t-24.5 23.5t-32 9z" />
    <glyph glyph-name="cent" unicode="&#xa2;" horiz-adv-x="696" 
d="M648 510q0 -21 -10.5 -54t-31.5 -59q17 -17 21 -41t4 -44q0 -42 -9 -69.5t-24 -44.5t-35.5 -26t-43.5 -13.5t-47 -7t-46 -6.5q0 -17 0.5 -25t0.5 -13q0 -22 -4 -42.5t-16.5 -36t-36 -25t-62.5 -9.5q-67 0 -103.5 31.5t-36.5 81.5q0 34 -14 57t-35 41t-45.5 34t-45.5 35.5
t-35 46t-14 65.5q0 34 10.5 57.5t27.5 41t39 30.5t45 25l26.5 14.5t23.5 16.5t16.5 19t6.5 23q0 9 -1 18.5t-1 26.5q0 21 4 40.5t16 34.5t34 24t58 9q25 0 54 -7.5t54 -21t42 -31.5t17 -40q0 -9 -4 -17.5t-8.5 -16.5t-8.5 -16.5t-4 -17.5q0 -5 5 -5q3 0 5 1q14 4 27 10.5
l26 12.5t27 10.5t30 4.5q28 0 47.5 -13.5t31.5 -32.5t17.5 -40t5.5 -36zM221 413q0 17 8.5 37t23 37t32.5 28t37 11q22 0 46 -14t47.5 -30.5t45.5 -30.5t40 -14q17 0 29.5 11.5t21 28t12.5 34t4 29.5q0 9 -2.5 21.5t-8.5 23.5t-16 19t-25 8q-13 0 -26 -6t-26.5 -13t-28 -13
t-30.5 -6q-15 0 -23 6t-12 18t-5 29.5t-1 40.5q0 19 -10 33.5t-26 24.5t-35.5 15t-38.5 5q-20 0 -32 -5t-19 -13t-9 -18.5t-2 -21.5t1 -23t1 -22q0 -31 -14.5 -52t-36 -36t-47 -27.5t-47 -27.5t-36 -34.5t-14.5 -49.5q0 -29 13 -48t33 -34t43.5 -27.5t45 -28t38 -35
t21.5 -48.5q0 -14 -2.5 -28t-2.5 -30q0 -28 23.5 -45.5t66.5 -17.5q23 0 36.5 5t21 14t9.5 20.5t2 23.5q0 9 -0.5 20.5t-0.5 17.5q0 28 15 39t38 15t49.5 5.5t49.5 10.5t38 31t15 66q0 8 -1 17.5t-4 18t-8.5 14t-15.5 5.5q-17 0 -41.5 -15t-51.5 -33.5t-54.5 -33.5
t-51.5 -15q-20 0 -38 11t-32.5 28t-23 36.5t-8.5 37.5zM301 383q0 -10 4.5 -21t11.5 -20.5t16.5 -15.5t19.5 -6q14 0 40.5 16.5l66.5 43.5q-10 6 -24 17l-28.5 22t-29 19t-26.5 8q-10 0 -19 -6t-16 -15.5t-11.5 -20.5t-4.5 -21z" />
    <glyph glyph-name="sterling" unicode="&#xa3;" horiz-adv-x="796" 
d="M253 728q36 0 76.5 -9.5t74 -29.5t55.5 -50.5t22 -72.5q0 -21 -5.5 -39t-13.5 -34q16 -1 31.5 -8t28 -21.5t20.5 -37.5t8 -55q0 -41 -12.5 -65.5t-33 -38t-46 -19t-50.5 -8.5q-17 -2 -27.5 -5t-10.5 -11q0 -11 1.5 -29.5t5 -35.5t8.5 -29.5t11 -12.5q4 0 15 12t40 50
l30.5 39t32.5 34t36 24t40 9q17 0 38.5 -7t40.5 -24.5t32 -48t13 -76.5q0 -59 -22 -104t-58.5 -79t-84.5 -57t-99 -37t-101.5 -20t-93.5 -6q-27 0 -58.5 2.5t-63 9.5t-61.5 18.5t-52.5 29.5t-36.5 43.5t-14 59.5t13 62.5t32 52.5q-23 11 -37 34.5t-14 65.5q0 38 11.5 62
t30.5 38t41.5 20t45.5 9q-7 25 -24.5 47l-35.5 45.5t-31.5 50.5t-13.5 63q0 48 26.5 83.5t66.5 59t86.5 35t86.5 11.5zM225 707q-27 0 -64.5 -8t-71.5 -24.5t-57.5 -42t-23.5 -59.5q0 -29 16.5 -56.5t36.5 -53.5t36.5 -51t16.5 -49q0 -18 -9.5 -27t-24 -14.5t-31.5 -9.5
t-31.5 -12t-24 -22.5t-9.5 -40.5t10 -39t24 -13q10 0 18 5.5t15.5 12t16 12t20.5 5.5t16 -6q2 -3 2 -6q0 -14 -18.5 -33.5l-40 -43t-39.5 -51t-18 -57.5q0 -34 24 -55t59 -33t74.5 -16t71.5 -4q38 0 83 5t90 16.5t87 30.5t74.5 46.5t52 64.5t19.5 85q0 30 -7 49.5t-17.5 31
t-22 16t-20.5 4.5q-17 0 -33 -12.5t-32 -31t-32 -40.5t-32 -40.5t-32.5 -31t-33.5 -12.5q-21 0 -36 18.5t-25.5 44.5t-15.5 53.5t-5 45.5q0 31 13.5 44.5t33.5 19t43 7t43 8t33.5 22t13.5 49.5t-12 49t-25 15q-12 0 -23.5 -9.5t-23.5 -20.5t-24.5 -20.5t-24.5 -9.5
q-10 0 -22 7t-12 19q0 13 15.5 30l33.5 37.5t33.5 44t15.5 50.5t-17 47.5t-42 33.5t-54 19.5t-54 6.5z" />
    <glyph glyph-name="fraction" unicode="&#x2044;" horiz-adv-x="217" 
d="M-111 1q-56 0 -81 21.5t-25 48.5q0 16 9 35t24 39.5t34 42l39 42.5l47.5 53t34.5 47q15 26 23 59t14.5 67t15.5 67t27.5 59t48.5 41.5t79 15.5q30 0 50.5 -7t33 -17.5t17.5 -23t5 -24.5q0 -15 -9 -33.5t-24 -38.5t-34 -41.5l-38 -42.5l-47.5 -53.5t-34.5 -47.5
q-11 -20 -18 -49.5l-14 -59.5q-8 -37 -17.5 -73t-28.5 -64t-50 -45.5t-81 -17.5zM-124 35q42 0 69 15t43.5 39.5t25.5 56t16 65t15 65t22 57.5q16 28 46.5 62l61 67.5t53.5 64.5t23 53q0 8 -4 17t-14 16.5t-26.5 12.5t-40.5 5q-42 0 -68.5 -15t-43 -39.5t-25 -56t-16 -64.5
l-15.5 -65t-22 -58q-11 -18 -28.5 -39.5l-38 -44.5l-41.5 -46t-38 -44.5t-28 -40.5t-11 -34q0 -19 20 -34t65 -15z" />
    <glyph glyph-name="yen" unicode="&#xa5;" horiz-adv-x="820" 
d="M178 728q20 0 44 -3.5t48.5 -11t47 -20t39.5 -30.5q15 15 34.5 25.5t40.5 17t42 9.5t39 3q33 0 74 -9t77 -28t60.5 -48.5t24.5 -70.5q0 -22 -7 -41.5t-18.5 -36.5t-26.5 -32.5t-31 -28.5q33 -9 50 -38t17 -58q0 -12 -3.5 -30.5t-13.5 -36.5q7 -14 9.5 -29.5t2.5 -29.5
q0 -18 -4.5 -39t-15.5 -39t-30 -30t-48 -12q-31 0 -58.5 12l-53.5 23q11 -17 24 -30t23.5 -27.5t17.5 -32t7 -42.5q0 -45 -28 -73.5t-67.5 -44.5t-82 -22t-70.5 -6q-26 0 -66.5 5.5t-79 22t-66.5 47t-28 81.5q0 40 19 66.5t52 56.5l-54.5 -24.5t-57.5 -11.5q-30 0 -50 12
t-31 30t-15.5 38.5t-4.5 37.5q0 16 3 32t10 30q-10 17 -14 35t-4 31q0 15 4.5 30t13.5 28t21.5 23t28.5 15q-27 26 -51 61t-24 81q0 43 23 74t57.5 50.5t74.5 29t75 9.5zM239 479q0 26 9.5 42.5t20.5 30t20.5 27.5t9.5 35q0 27 -16.5 45t-40 28.5t-50 15t-47.5 4.5
q-26 0 -57 -6t-57.5 -19t-44 -33.5t-17.5 -48.5q0 -32 20.5 -58.5t45 -49l45 -41t20.5 -32.5q0 -6 -4.5 -11t-10.5 -8t-12.5 -4.5t-10.5 -1.5q-10 0 -24.5 5.5t-25.5 5.5q-17 0 -26.5 -14.5t-9.5 -30.5q0 -7 2 -17t7 -19.5t13.5 -16.5t21.5 -7q10 0 21 4l23 8.5l23.5 8.5
t21.5 4q12 0 23 -6t19.5 -15.5t13.5 -20.5t5 -21q0 -3 -1 -5q-2 -4 -10 -4q-16 0 -33 6t-33.5 13t-33 12.5t-31.5 5.5q-28 0 -37.5 -18.5t-9.5 -38.5q0 -9 2 -20t7 -20.5t14.5 -16t23.5 -6.5q15 0 33.5 7t37.5 16t37.5 16t33.5 7q20 0 26.5 -12.5t6.5 -28.5q0 -29 -12.5 -47
t-27.5 -33t-27.5 -31t-12.5 -40q0 -31 21.5 -50t52 -29.5t62.5 -14t53 -3.5t53 3.5t62 14t52 29.5t22 50q0 24 -12.5 39.5t-28 30t-28 32.5t-12.5 48q0 17 6 29t26 12q15 0 33 -7t37 -15.5t37.5 -15.5t33.5 -7q14 0 23 6.5t14 16t7 20.5t2 21q0 19 -9 37.5t-36 18.5
q-15 0 -31.5 -6t-33.5 -13t-34 -13t-32 -6q-7 0 -10 5q-2 3 -2 6q0 10 4.5 21t13 20.5t19 15.5t22.5 6q10 0 22 -4t24 -9.5t23.5 -9.5t21.5 -4q13 0 21.5 7t13 17t6.5 20.5t2 16.5q0 16 -9 30.5t-26 14.5q-13 0 -28 -6t-26 -6q-9 0 -23 7t-14 19q0 14 22 32.5l49 40.5t49 48
t22 56q0 27 -19 46t-46.5 31t-59 18t-55.5 6q-20 0 -44 -4t-45 -14.5t-35 -27.5t-14 -42q0 -21 9 -34t19.5 -26t19.5 -29t9 -41q0 -14 -3.5 -34.5t-12.5 -39.5t-24.5 -32.5t-39.5 -13.5t-39.5 13.5t-24.5 33t-12.5 39.5t-3.5 34zM328 442q0 -6 1 -16.5t4 -20.5t7.5 -17.5
t12.5 -7.5q7 0 12 7.5t8 17.5t4 21t1 17q0 12 -5 20.5t-21 27.5q-24 -24 -24 -49z" />
    <glyph glyph-name="florin" unicode="&#x192;" horiz-adv-x="635" 
d="M150 533q18 1 29 6t18 13t11.5 18t7.5 21q9 27 21 54t35.5 48t62.5 34.5t103 13.5q30 0 60 -4.5t54 -19t39 -41t15 -70.5q0 -84 -56 -113q10 -16 14.5 -34t4.5 -34q0 -21 -8 -44.5t-23 -44t-36.5 -33.5t-49.5 -13l-16 2q-6 1 -12 1.5t-8 1.5q-2 0 -2 0.5t-2 0.5
q-10 0 -17 -15t-11.5 -39t-6.5 -54.5t-3.5 -62t-1.5 -61.5v-50q0 -48 -12.5 -79t-35 -48t-53 -23.5t-65.5 -6.5q-22 0 -60 3t-75 14t-64 31.5t-27 55.5q0 34 24.5 65.5t54 65t54 71t24.5 82.5q0 30 -10.5 55t-23.5 49.5t-23.5 51t-10.5 58.5q0 27 8 41.5t20 22t26 9t27 1.5z
M135 515q-29 0 -37 -8.5t-8 -19.5q0 -17 10.5 -38.5l23.5 -47.5t23.5 -56.5t10.5 -65.5q0 -54 -24.5 -98t-54 -79.5t-54 -62t-24.5 -44.5q0 -17 20.5 -26.5t48 -14.5t55 -6.5t41.5 -1.5q25 0 46.5 4t37.5 15t24.5 31t8.5 52q0 25 0.5 60t3 72.5t8 74t15.5 65.5t25.5 47
t38.5 18q11 0 22 -3t22 -3q15 0 26.5 8t19.5 20t12 26t4 26q0 9 -2 18.5t-6.5 17.5t-12 13.5t-17.5 5.5q-15 0 -31.5 -8t-27.5 -8t-14 7.5t-3 14.5t2 16t7.5 17.5t14 14.5t21.5 6q8 0 21.5 -2t24.5 -2q30 0 45 18.5t15 50.5q0 27 -10 43t-26 24.5t-36 11t-40 2.5
q-62 0 -95 -15t-50.5 -38t-24.5 -49.5t-16.5 -49.5t-27.5 -38t-56 -15z" />
    <glyph glyph-name="section" unicode="&#xa7;" horiz-adv-x="646" 
d="M-26 48q0 20 8.5 39.5t23 35t34 25.5t40.5 12q-24 11 -44 24t-35 30t-23.5 38t-8.5 48q0 38 15.5 59.5t34.5 35t34.5 23t15.5 23.5q0 12 -12 21l-27 20.5t-27 30t-12 50.5q0 35 16 62t41.5 47t58.5 33.5t66.5 22t65 12t55.5 3.5q23 0 55.5 -3.5t67.5 -12t69.5 -22.5
t61.5 -34.5t44 -48.5t17 -64q0 -17 -4 -34.5t-13.5 -33.5t-24 -28.5t-35.5 -17.5q43 -22 68.5 -53t25.5 -71q0 -33 -15 -52.5t-33.5 -33l-33.5 -25t-15 -26.5q0 -14 11.5 -24t25.5 -23.5t25.5 -32.5t11.5 -50q0 -36 -16.5 -63t-42.5 -47t-59 -33.5t-65 -21.5t-61 -11.5
t-47 -3.5q-23 0 -57 4.5t-71.5 14t-75 24t-67.5 34t-48.5 44t-18.5 54.5zM-5 81q0 -20 16 -37t41 -30t56.5 -23t63 -16.5t59.5 -9.5t47 -3q15 0 38.5 2.5t49.5 8t52.5 15t47.5 24t34.5 34t13.5 46.5q0 25 -11.5 40.5t-25.5 27.5t-25.5 24.5t-11.5 33.5q0 24 15 38t33.5 27
t33.5 28t15 39q0 30 -24.5 51.5t-61 37.5t-79.5 28.5t-79.5 25t-61 26t-24.5 32.5q0 9 6 17.5t15.5 15.5t22 11t25.5 4q22 0 47.5 -11t51.5 -23.5l50.5 -23.5t44.5 -11q14 0 23.5 6t15.5 15t8.5 20t2.5 21q0 26 -14 45.5t-36.5 33.5t-50.5 24t-57 16t-56 8.5t-47 2.5
q-29 0 -71 -5.5t-81 -20.5t-67 -40t-28 -64q0 -26 12 -41.5t27 -28t27 -25.5t12 -34q0 -24 -15.5 -38t-34.5 -27t-34.5 -27.5t-15.5 -39.5q0 -30 25 -52t62 -38t80.5 -29l80.5 -25t62 -25t25 -30q0 -11 -10.5 -22.5t-26.5 -21t-33.5 -15.5t-31.5 -6q-20 0 -41.5 11t-44 24.5
t-44 25t-40.5 11.5q-23 0 -40.5 -18t-17.5 -40zM280 270q-14 0 -29.5 7t-29 19t-22.5 27.5t-9 32.5q0 20 13.5 39t37.5 19q14 0 30.5 -7.5t31 -20t24 -28t9.5 -31.5q0 -20 -16 -38.5t-40 -18.5zM198 117q25 -15 38 -22t24 -7q6 0 16 2t18 4q-23 0 -44.5 7.5t-39.5 12.5z
M314 291q0 14 -12 23t-26 11q1 -3 2.5 -8t6 -10.5t11.5 -10t18 -5.5z" />
    <glyph glyph-name="currency" unicode="&#xa4;" horiz-adv-x="665" 
d="M612 470q0 -23 -6 -37.5t-16 -25t-23 -17.5l-27 -14q0 -6 5.5 -16.5l12.5 -24t12.5 -29t5.5 -31.5q0 -28 -8 -45.5t-17 -31.5q-5 -9 -8.5 -17t-3.5 -13q0 -6 11 -12.5t24.5 -16.5t24.5 -25t11 -38q0 -24 -11 -47t-29 -40.5t-41 -28t-47 -10.5q-14 0 -30.5 5t-31 14
t-24 22.5t-10.5 30.5q-14 -3 -25.5 -9l-23.5 -12t-25.5 -11t-30.5 -5q-25 0 -43 7.5t-35 16.5q-9 5 -17.5 9t-13.5 4l-2 -4q-1 -2 -2 -3.5t-2 -3.5l-14 -22q-7 -11 -17 -19t-24 -13t-34 -5q-23 0 -45.5 10t-40.5 27.5t-29.5 40t-11.5 47.5q0 21 5.5 35.5t15 24.5t23 17
l29.5 15q-3 13 -9.5 25.5l-13 24.5t-11 25.5t-4.5 29.5q0 18 4.5 31t11 24.5l13 22.5t9.5 25q-15 7 -28 15t-22.5 18.5t-15 25t-5.5 34.5q0 25 11.5 47.5t29.5 40t40.5 28t45.5 10.5q22 0 37 -11.5t25.5 -25t18 -24.5t14.5 -11q10 0 22 6l25.5 12.5t28.5 12.5t32 6
q14 0 30 -6t30 -12.5l26 -12.5t19 -6q8 15 16 28.5t18.5 23t25.5 15t36 5.5q23 0 46 -10.5t41.5 -28t30 -40t11.5 -47.5zM532 500q0 15 -7 28.5t-18.5 24t-25.5 17t-28 6.5q-20 0 -30 -11.5t-17.5 -25t-17.5 -24.5t-31 -11q-15 0 -28 6t-25 12.5t-24.5 12.5t-27.5 6
q-16 0 -29 -6t-25.5 -12.5t-25.5 -12.5t-28 -6q-21 0 -31 11t-17.5 24.5t-17 25t-29.5 11.5q-14 0 -27.5 -6.5t-24.5 -17t-18 -24t-7 -28.5q0 -20 11 -29t24.5 -16t24.5 -16.5t11 -30.5q0 -15 -6 -27.5t-13 -24.5t-13 -24.5t-6 -27.5t6 -28t13 -25t13 -24.5t6 -27.5
q0 -20 -11.5 -29.5t-25 -17t-25 -16.5t-11.5 -29q0 -15 7 -28.5t18 -24t24.5 -16.5t27.5 -6q20 0 29.5 11t17 24t17.5 24t31 11q15 0 28.5 -6t26 -12.5t26 -12.5t28.5 -6t28 6t25.5 12.5l25 12.5t27.5 6q21 0 30.5 -11.5t17 -25t17.5 -24.5t30 -11q15 0 29 6.5t25 17
t17.5 24t6.5 28.5q0 19 -11 28t-24.5 16.5t-24.5 17t-11 30.5q0 15 6 28t12.5 25.5t12.5 25.5t6 28t-5.5 27.5t-12.5 24t-12.5 23.5t-5.5 27q0 21 11 30.5t24.5 17t25 16.5t11.5 29zM251 175q-27 0 -50.5 10t-41 27.5t-28 41t-10.5 50.5t10.5 50.5t28.5 40.5t41.5 27
t49.5 10q27 0 50.5 -10t41 -27.5t27.5 -41t10 -49.5q0 -27 -10 -50.5t-27.5 -41t-41 -27.5t-50.5 -10zM281 195q32 0 55.5 23.5t23.5 55.5t-23 55t-56 23q-32 0 -56 -22.5t-24 -55.5t23.5 -56t56.5 -23z" />
    <glyph glyph-name="quotesingle" unicode="'" horiz-adv-x="312" 
d="M187 383q-9 -32 -29 -48t-41 -16q-23 0 -42 15.5t-30 47.5l-37.5 122.5t-20 70t-8 33t-1.5 13.5q0 27 13 47t33 33t45.5 19t49.5 6q27 0 50.5 -7t41.5 -20t28.5 -31.5t10.5 -42.5q0 -5 -1.5 -13.5t-7.5 -33t-18.5 -70.5zM109 427l34.5 121.5l18.5 67t7 29.5t1 10
q0 24 -24 37.5t-57 13.5q-16 0 -32 -3.5t-29 -10t-21.5 -17t-8.5 -24.5q0 -3 1.5 -10t7.5 -29.5t19 -66l37 -118.5q9 -28 24 -28q6 0 12 7t10 21z" />
    <glyph glyph-name="quotedblleft" unicode="&#x201c;" horiz-adv-x="747" 
d="M66 708q20 0 45.5 -6.5t53.5 -17.5t56.5 -27.5t54.5 -35.5q7 26 23.5 46t38 33.5t46.5 20.5t49 7q42 0 91 -23.5t91.5 -59.5t71 -80.5t28.5 -86.5q0 -32 -12 -55.5t-31 -38.5t-43.5 -22t-48.5 -7q-20 0 -45.5 6t-53.5 17.5t-56 27t-53 34.5q-7 -26 -23.5 -45.5t-38.5 -33
t-46.5 -20t-47.5 -6.5q-41 0 -91 23t-93.5 59.5t-72.5 81t-29 86.5q0 32 12.5 55.5t32 38.5t43.5 22t48 7zM36 688q-15 0 -30.5 -4t-27.5 -13t-20 -23t-8 -33q0 -34 24 -69.5t60 -64.5t77 -47.5t75 -18.5q18 0 37.5 5.5t35.5 16.5t26.5 27t10.5 37q0 35 -29 68.5t-70 60
t-85.5 42.5t-75.5 16zM550 435q15 0 30.5 4t27.5 13t19.5 23t7.5 33q0 34 -23.5 69.5t-58.5 64.5t-75.5 47.5t-74.5 18.5q-18 0 -38 -5.5t-36 -17t-26.5 -27.5t-10.5 -37q0 -23 13.5 -46t35 -44t49.5 -38.5t56.5 -30t55.5 -20t48 -7.5z" />
    <glyph glyph-name="guillemotleft" unicode="&#xab;" horiz-adv-x="648" 
d="M-27 329q0 46 23.5 86t59 70t78 47t80.5 17t64 -14.5t40 -34.5q33 23 69 36t69 13q30 0 52.5 -9t37.5 -23t22.5 -31.5t7.5 -34.5q0 -26 -17 -42.5t-38 -29.5l-38 -24.5t-17 -25.5q0 -13 17 -24l38 -24t38 -30t17 -42q0 -16 -7 -33.5t-21.5 -31.5t-37 -23.5t-53.5 -9.5
q-33 0 -69.5 12.5t-69.5 35.5q-14 -20 -39.5 -34t-63.5 -14t-80.5 17t-78.5 46.5t-59.5 69t-23.5 85.5zM235 359q0 -35 18.5 -66t47 -53.5t62.5 -35.5t64 -13q36 0 52.5 16t16.5 32q0 18 -17 30t-38 24.5t-38 27.5t-17 38t17 38t38 28t38 25.5t17 30.5q0 17 -17.5 32.5
t-52.5 15.5q-30 0 -63.5 -13.5t-62 -36.5t-47 -54t-18.5 -66zM-7 359q0 -35 19 -66t47.5 -53.5t62 -35.5t63.5 -13q36 0 52.5 16t16.5 32q0 18 -17 30t-38 24.5t-38 27.5t-17 38t17 38t38 28t38 25.5t17 30.5q0 17 -17.5 32.5t-52.5 15.5q-30 0 -63.5 -13.5t-62 -36.5
t-47 -54t-18.5 -66z" />
    <glyph glyph-name="guilsinglleft" unicode="&#x2039;" horiz-adv-x="399" 
d="M-16 330q0 46 23 85.5t58.5 69t77 46.5t79.5 17q30 0 52.5 -9t37.5 -23t22 -31.5t7 -34.5q0 -21 -12.5 -37t-28 -30t-28 -26.5t-12.5 -26.5q0 -15 12.5 -27l27.5 -25.5t27.5 -29.5t12.5 -37q0 -16 -6.5 -33t-20.5 -31.5t-36 -23.5t-53 -9q-38 0 -80 16.5t-77.5 45.5
t-59 68.5t-23.5 85.5zM4 360q0 -35 18.5 -65.5t47 -53t61.5 -35t63 -12.5q35 0 50.5 15.5t15.5 31.5t-12.5 29t-27.5 26.5t-27.5 28.5t-12.5 35t12.5 35.5t28 29t28 26.5t12.5 29q0 17 -17 32.5t-52 15.5q-30 0 -63 -13t-60.5 -35.5t-46 -53.5t-18.5 -66z" />
    <glyph glyph-name="guilsinglright" unicode="&#x203a;" horiz-adv-x="399" 
d="M380.999 330q0 46 -22.999 85.5q-22.998 39.5 -58.4961 69t-76.9951 46.5t-79.4951 17q-29.998 0 -52.4971 -9q-22.498 -9 -37.4971 -23q-15 -14 -21.999 -31.5q-7 -17.5 -7 -34.5q0 -21 12.5 -37q12.499 -16 27.998 -30t27.998 -26.5t12.499 -26.5q0 -15 -12.499 -27
l-27.498 -25.5t-27.499 -29.5q-12.499 -16 -12.499 -37q0 -16 6.5 -33q6.49902 -17 20.499 -31.5q13.999 -14.5 35.9971 -23.5q21.999 -9 52.9971 -9q37.998 0 79.9951 16.5t77.4951 45.5t58.9961 68.5q23.499 39.5 23.499 85.5zM361 360q0 -35 -18.499 -65.5
q-18.498 -30.5 -46.9971 -53q-28.498 -22.5 -61.4961 -35t-62.9961 -12.5q-34.998 0 -50.4971 15.5t-15.499 31.5t12.499 29q12.5 13 27.499 26.5t27.498 28.5t12.499 35t-12.499 35.5t-27.998 29t-27.998 26.5q-12.5 13 -12.5 29q0 17 16.999 32.5t51.9971 15.5
q29.998 0 62.9961 -13t60.4961 -35.5q27.499 -22.5 45.9971 -53.5q18.499 -31 18.499 -66z" />
    <glyph glyph-name="dagger" unicode="&#x2020;" horiz-adv-x="719" 
d="M41 539q24 0 45 -9t46 -18q-8 20 -12 36t-4 33q0 34 17.5 60.5t43.5 43.5t56 26t56 9q25 0 55 -8.5t56 -25.5t44 -43t18 -61q0 -20 -5 -35t-13 -36q31 13 52.5 20.5t42.5 7.5q22 0 40 -8.5t30 -22t18.5 -30t6.5 -33.5q0 -20 -9 -35t-24 -26t-34 -19.5t-40 -16.5l-39 -16
t-34 -18.5t-24 -24.5t-9 -32q0 -23 13 -59t28 -73q17 -42 31.5 -83t14.5 -80q0 -48 -23 -80.5t-56.5 -52t-71.5 -27.5t-68 -8q-31 0 -69 8.5t-71.5 28t-56 52t-22.5 80.5q0 38 13.5 77.5t31.5 83.5q15 37 28 73.5t13 59.5q0 18 -9 31.5t-24 24t-34 19t-39 16.5
q-21 8 -40.5 17t-33.5 20t-22.5 25t-8.5 34q0 18 7 35t19.5 30.5t30.5 21.5t39 8zM112 488q-12 0 -25.5 4.5t-27 10.5t-26.5 10.5t-25 4.5q-20 0 -31 -12t-11 -24q0 -14 15.5 -23.5t39 -19l51 -20.5t51 -27.5t39 -40.5t15.5 -59q0 -33 -13.5 -72t-29.5 -78.5t-29.5 -77
t-13.5 -67.5q0 -33 17 -54.5t42 -35t53.5 -19t51.5 -5.5t51.5 5.5t53.5 18.5t42 35.5t17 55.5q0 30 -13.5 67.5t-30 76.5t-30 78t-13.5 73q0 35 16 59t39.5 40.5t51 27l51 20t39.5 19.5t16 24q0 11 -10.5 23t-30.5 12q-12 0 -26 -5t-27.5 -10.5t-27.5 -10.5t-26 -5
q-20 0 -32.5 13.5t-12.5 32.5q0 20 10.5 41t10.5 43q0 21 -12 36t-29.5 25.5t-38 15.5t-37.5 5q-18 0 -38.5 -5t-38.5 -15.5t-30 -26t-12 -36.5t9.5 -41.5t9.5 -40.5q0 -18 -12 -32t-32 -14z" />
    <glyph glyph-name="daggerdbl" unicode="&#x2021;" horiz-adv-x="750" 
d="M297 720q24 0 54.5 -8.5t57.5 -25.5t45 -43t18 -60q0 -18 -5 -36t-12 -35q32 14 52 21t40 7q42 0 70 -28t28 -67q0 -22 -9.5 -36.5t-24.5 -23.5t-34 -14t-39 -9q-17 -3 -33.5 -8t-30.5 -13t-22.5 -21.5t-8.5 -34.5q0 -28 15 -42t37.5 -21.5t48.5 -12t48.5 -13t37.5 -24
t15 -44.5q0 -41 -28.5 -68t-73.5 -27q-18 0 -36.5 4.5t-33.5 9.5t-24.5 9.5t-9.5 3.5q0 -18 6 -34.5t13.5 -33t13.5 -34.5t6 -39q0 -36 -18.5 -62t-46 -43.5t-59 -26t-57.5 -8.5t-57.5 8.5t-58.5 26.5t-45 45t-18 64q0 24 7 46t16 44q7 16 11.5 28.5t4.5 20.5
q-13 0 -25.5 -4.5t-25.5 -10t-27 -10t-30 -4.5q-18 0 -35.5 7t-31 19.5t-21.5 30.5t-8 40q0 29 14.5 44.5t37 24t48 13t48 12t37 21.5t14.5 42q0 21 -9 34.5t-23 21.5t-30 12t-31 7q-18 3 -37 7.5t-34 13.5t-25 23.5t-10 38.5q0 21 8 38t21 30t30.5 20t37.5 7q19 0 39 -6.5
t52 -20.5q-8 14 -11.5 32t-3.5 34q0 36 17.5 63t43.5 44t56 25.5t54 8.5zM264 699q-17 0 -37.5 -5t-38 -15.5t-29.5 -26t-12 -36.5t9 -41.5t9 -40.5q0 -18 -11.5 -32t-32.5 -14q-12 0 -26 5t-27.5 10.5l-26.5 10.5t-25 5q-18 0 -30 -11t-12 -24q0 -14 14.5 -20.5t37 -11
l48 -10t48 -19t37 -37.5t14.5 -65t-14.5 -65t-37 -37t-48 -18.5l-48 -10t-37 -10.5t-14.5 -21q0 -14 12 -25.5t31 -11.5q12 0 25 4.5t26.5 10t27.5 10t27 4.5q23 0 39 -15t16 -41q0 -16 -6 -33.5t-13.5 -35.5t-13.5 -35.5t-6 -33.5q0 -23 12.5 -39.5t31.5 -27.5t41 -16.5
t40 -5.5t40 5t40.5 16t31.5 27.5t13 39.5q0 16 -6 34t-13.5 35.5t-13.5 35t-6 33.5q0 26 16.5 41.5t39.5 15.5q13 0 26.5 -4.5t27 -10t27 -10t25.5 -4.5q19 0 31.5 11t12.5 25q0 15 -15 21t-37.5 10.5l-48.5 10t-48.5 18.5t-37.5 37t-15 65t15 65t37.5 37.5t48.5 19.5
t48.5 10.5t37.5 11t15 20.5q0 13 -12 24t-31 11q-12 0 -25.5 -5l-27 -10.5l-27 -10.5t-25.5 -5q-21 0 -32.5 14t-11.5 32q0 20 9.5 41t9.5 42t-12.5 36t-30.5 25.5t-39 15.5t-37 5z" />
    <glyph glyph-name="periodcentered" unicode="&#xb7;" horiz-adv-x="350" 
d="M272.936 168.376q-19.7539 -21.2988 -44.8262 -31.5684q-25.0723 -10.2686 -51.6641 -10.2686t-50.5244 10.2686q-23.9326 10.2695 -42.167 28.1455t-28.8711 41.8379q-10.6367 23.9609 -10.6367 50.585t10.6367 50.2051t28.4912 41.457t41.7871 28.5254t50.5244 10.6494
q27.3516 0 51.2842 -10.6494t41.7871 -28.5254t28.1113 -41.457t10.2568 -50.2051q0 -24.3418 -8.35742 -47.543q-8.35742 -23.2002 -25.832 -41.457zM222.031 217.06q12.1562 12.9316 18.2344 29.2861t6.07812 33.8506q0 19.0166 -7.21777 35.752t-20.1338 29.2861
q-12.916 12.5518 -30.0107 20.1582t-36.0889 7.60645t-36.0889 -7.60645t-29.6309 -20.1582q-12.5361 -12.5508 -20.1338 -29.2861t-7.59766 -35.752t7.59766 -36.1328q7.59766 -17.1152 20.5137 -29.666q12.916 -12.5518 30.0107 -19.7773
q17.0947 -7.22656 36.0889 -7.22656t36.8486 7.22656q17.8545 7.22559 31.5303 22.4395z" />
    <glyph glyph-name="paragraph" unicode="&#xb6;" horiz-adv-x="932" 
d="M51 494q0 44 29 94t74.5 92t102 69.5t112.5 27.5q24 0 48 -6l44 14t73 20t85.5 17.5t82.5 7.5q29 0 54 -5t43 -16.5t28 -31t10 -47.5q0 -29 -12.5 -52.5t-27.5 -49t-27.5 -56t-12.5 -73.5q0 -69 23.5 -146t50.5 -152q25 -69 44 -131.5t19 -116.5q0 -41 -12 -74t-39.5 -57
t-72 -37t-109.5 -13q-35 0 -71.5 7t-66.5 25q-33 -19 -73.5 -26.5t-73.5 -7.5q-53 0 -89.5 14.5t-59 41t-32.5 64.5t-10 85q0 37 9 85t20 92q12 51 29 103q-91 29 -141.5 92.5t-50.5 146.5zM393 750q-20 6 -42 6q-46 0 -95 -20.5t-90 -53.5t-67.5 -73.5t-26.5 -80.5
q0 -38 15 -71t43 -59t66.5 -44.5t86.5 -26.5q-22 -53 -39 -108q-14 -48 -26 -103.5t-12 -106.5q0 -69 30 -109.5t106 -40.5q19 0 41 2.5t42.5 8.5t37.5 15.5t26 23.5q9 -13 24 -22t34 -15t39.5 -8.5t40.5 -2.5q49 0 83 9t55 25.5t30.5 40t9.5 51.5q0 51 -21.5 116l-47 137.5
t-47 147.5t-21.5 145q0 34 6.5 65.5t20.5 60.5q7 14 16 25.5t17 23.5t14 25t6 31q0 26 -22.5 35.5t-57.5 9.5q-40 0 -87.5 -9.5t-89.5 -20.5q-49 -13 -98 -29zM489 71q-17 58 -43.5 123l-52.5 129t-44.5 123t-18.5 106q0 57 37 85.5t122 28.5q86 0 122.5 -28.5t36.5 -85.5
q0 -47 -18.5 -106t-44.5 -123l-53 -129t-43 -123zM523 199q47 114 75.5 191.5t28.5 127.5q0 29 -23.5 44t-80.5 15q-56 0 -80 -15t-24 -44q0 -50 28.5 -127.5t75.5 -191.5z" />
    <glyph glyph-name="bullet" unicode="&#x2022;" horiz-adv-x="469" 
d="M241 513q36 0 70 -12.5t60 -35.5t41.5 -56t15.5 -75q0 -38 -13 -70.5t-37.5 -56.5t-58.5 -37.5t-76 -13.5q-46 0 -81.5 15.5t-60 41t-37 57.5t-12.5 64q0 35 14.5 67.5t40 57t60 39.5t74.5 15zM211 493q-30 0 -55 -10.5t-44 -28.5t-29.5 -41.5t-10.5 -48.5q0 -23 9.5 -46
t27.5 -41t44 -29.5t60 -11.5q31 0 56 10t42.5 27t27 40.5t9.5 50.5q0 30 -11.5 54t-30.5 40.5t-43.5 25.5t-51.5 9z" />
    <glyph glyph-name="quotesinglbase" unicode="&#x201a;" horiz-adv-x="515" 
d="M-8 -38q0 28 13.5 58t35.5 58t51.5 52.5t61 43t63.5 29t60 10.5q27 0 56 -9t52 -26.5t38 -43t15 -58.5q0 -29 -16 -58.5t-42 -56t-59.5 -49t-67.5 -39t-66.5 -26t-57.5 -9.5q-24 0 -48 7t-44 22t-32.5 38.5t-12.5 56.5zM12 -8q0 -20 8 -34t20.5 -23t28 -13t30.5 -4
q31 0 75.5 16.5t85 43t69.5 60t29 68.5q0 21 -10.5 37t-26.5 27t-35.5 17t-38.5 6q-35 0 -76 -18.5t-76 -48t-59 -65t-24 -69.5z" />
    <glyph glyph-name="quotedblbase" unicode="&#x201e;" horiz-adv-x="820" 
d="M-31 -38q0 29 14 59.5t37 58.5t53 53t62.5 43.5t65.5 29.5t61 11q24 0 48.5 -7.5t46.5 -21t38.5 -33t24.5 -43.5q26 19 54.5 34.5t56.5 26.5t53 17t45 6q25 0 50 -8t45 -24t32.5 -40t12.5 -56q0 -44 -30 -89.5t-74.5 -82.5t-96 -60.5t-93.5 -23.5q-24 0 -48.5 7
t-46.5 20.5t-38.5 33t-24.5 43.5q-26 -19 -54.5 -34t-56.5 -26t-53 -17t-44 -6q-26 0 -51 8t-44.5 24.5t-32 40.5t-12.5 56zM689 98q0 19 -8 34t-21 24.5t-29 14.5t-32 5q-31 0 -77 -16t-88.5 -43t-72.5 -61.5t-30 -71.5q0 -21 10.5 -38t27 -29t36.5 -18.5t40 -6.5
q35 0 77.5 19t79.5 49t62 66.5t25 71.5zM-11 -8q0 -20 8 -34.5t20.5 -24.5t28.5 -15t33 -5q20 0 48 7.5t57.5 20t58.5 30.5t52 39.5t37 45t14 48.5q0 21 -10.5 38.5t-27 29.5t-36.5 18.5t-40 6.5q-35 0 -77.5 -19t-79.5 -48.5t-61.5 -66t-24.5 -71.5z" />
    <glyph glyph-name="quotedblright" unicode="&#x201d;" horiz-adv-x="851" 
d="M698 708q24 0 48 -7t43.5 -22t32 -38.5t12.5 -55.5q0 -42 -29 -86.5t-72.5 -81t-93.5 -59.5t-91 -23q-23 0 -48 6.5t-47 20t-38.5 33t-22.5 45.5q-26 -19 -54 -34.5t-55.5 -27t-53 -17.5t-45.5 -6q-24 0 -48.5 7t-43.5 22t-31 38.5t-12 55.5q0 42 28.5 86.5t71 80.5
t91.5 59.5t91 23.5q23 0 48 -7t47 -20.5t38.5 -33.5t23.5 -46q25 19 53.5 35.5t56.5 27.5t54 17.5t46 6.5zM668 688q-31 0 -75.5 -16t-85.5 -42.5t-70 -60t-29 -68.5q0 -21 10.5 -37t26.5 -27t35.5 -16.5t37.5 -5.5q34 0 75 18.5t77 47.5t60 64.5t24 69.5q0 19 -8 33t-20 23
t-27.5 13t-30.5 4zM154 435q21 0 48 7t55.5 20t56.5 30.5t49.5 38.5t35 43.5t13.5 46.5q0 21 -10.5 37t-26.5 27.5t-36 17t-38 5.5q-34 0 -74.5 -18.5t-75.5 -47.5t-58.5 -64.5t-23.5 -69.5q0 -19 7.5 -33t19.5 -23t27.5 -13t30.5 -4z" />
    <glyph glyph-name="grave" unicode="`" 
d="M200 524q-30 0 -73 15t-82 41.5t-66.5 61.5t-27.5 74q0 30 11 50t29 32.5t40 17.5t43 5q34 0 75.5 -13.5t77.5 -38.5t60.5 -59.5t24.5 -76.5q0 -51 -29.5 -80t-82.5 -29zM170 604q29 0 45.5 16t16.5 43q0 31 -19.5 56.5t-48 43.5t-61 28t-59.5 10q-13 0 -26 -2.5
t-23.5 -9t-17 -17t-6.5 -26.5q0 -29 22 -55t53 -45.5t65.5 -30.5t58.5 -11z" />
    <glyph glyph-name="acute" unicode="&#xb4;" 
d="M0 631q0 42 24 76.5t59.5 59.5t76.5 38.5t76 13.5q21 0 43 -5t40 -17t29 -32t11 -50q0 -39 -27 -74t-65.5 -61.5t-81.5 -41.5t-74 -15q-54 0 -82.5 28.5t-28.5 79.5zM20 661q0 -27 16 -42.5t45 -15.5q25 0 59 11t65 30.5t52.5 45.5t21.5 55q0 16 -6.5 26.5t-17 16.5
t-23.5 8.5t-26 2.5q-27 0 -59.5 -10t-60.5 -28t-47 -43.5t-19 -56.5z" />
    <glyph glyph-name="circumflex" unicode="&#x2c6;" 
d="M36 524q-62 0 -90.5 30.5t-28.5 72.5q0 36 26.5 70.5t64 62.5t79 45t72.5 17t73 -17t80.5 -44.5t65.5 -62.5t27 -70q0 -17 -6 -35.5t-19.5 -33.5t-36.5 -25t-57 -10q-51 0 -79.5 20t-45.5 45q-16 -25 -44 -45t-81 -20zM6 604q36 0 55 15t30.5 32.5t19 32.5t20.5 15
q12 0 20 -15t20 -32.5t31 -32.5t54 -15q40 0 54.5 18t14.5 36q0 26 -21.5 52t-52 46.5t-64.5 33t-58 12.5t-57 -12.5t-63 -33t-51 -46.5t-21 -53q0 -22 16.5 -37.5t52.5 -15.5z" />
    <glyph glyph-name="tilde" unicode="&#x2dc;" 
d="M293 797q36 0 57 -7t31 -20t12.5 -30t2.5 -36q0 -30 -5.5 -61t-21.5 -55.5t-43.5 -40.5t-70.5 -16q-31 0 -58 9t-60 23q-4 -10 -11 -19t-19 -16.5t-31.5 -12t-47.5 -4.5q-31 0 -50.5 4.5t-30.5 15.5t-15 29.5t-4 46.5q0 73 35 114.5t108 41.5q30 0 57 -9l56 -19
q4 12 10.5 23t19 19.5t31.5 14t48 5.5zM263 777q-24 0 -36.5 -5t-18.5 -13t-8 -16.5l-4 -16.5t-6.5 -13t-15.5 -5q-12 0 -26 5.5l-30.5 12t-35.5 12t-41 5.5q-48 0 -70.5 -28t-22.5 -78q0 -27 9.5 -36.5t40.5 -9.5q36 0 49 9t17 19.5t6.5 19.5t19.5 9q13 0 28 -6l31.5 -12.5
t35.5 -12.5t40 -6q28 0 46 11t28 29t13.5 40t3.5 43q0 9 -1.5 17t-6.5 13.5t-15.5 9t-29.5 3.5z" />
    <glyph glyph-name="macron" unicode="&#xaf;" 
d="M390 643q0 -21 -5.5 -41.5t-18.5 -37t-33 -26.5t-48 -10q-15 0 -30 4t-30 8.5t-30.5 8.5t-31.5 4q-15 0 -30 -4t-30 -8.5t-30 -8.5t-31 -4q-31 0 -51.5 12.5t-32.5 31t-17 38.5t-5 35t5 35t17 38.5t32.5 31t51.5 12.5q6 0 19.5 -4l30 -9t35.5 -9t36 -4q15 0 30 4t30 9
t30 9t31 4q29 0 49.5 -11t33 -28.5t18 -38.5t5.5 -41zM310 673q0 12 -3 24t-9.5 22t-17.5 16.5t-26 6.5q-13 0 -27.5 -4t-30.5 -9t-32 -9t-31 -4t-31 4t-32 9t-30.5 9t-27.5 4q-17 0 -27.5 -7t-17 -17.5t-9 -22t-2.5 -20.5t2.5 -20.5t9 -22t17 -17.5t27.5 -7q13 0 27.5 4
l30.5 8.5t32 8.5t31 4t31 -4t32 -8.5l31 -8.5t28 -4q30 0 42.5 21t12.5 44z" />
    <glyph glyph-name="breve" unicode="&#x2d8;" 
d="M56 752q42 0 65.5 -15t40.5 -32q8 8 17.5 16.5t22 15t28.5 11t38 4.5q45 0 74.5 -21.5t29.5 -62.5q0 -27 -22.5 -52.5t-55.5 -45t-69.5 -31.5t-63.5 -12q-28 0 -64 12t-68.5 31.5t-54.5 45t-22 52.5q0 41 29.5 62.5t74.5 21.5zM133 676q-11 0 -20 8.5l-20 19t-26.5 19.5
t-40.5 9q-23 0 -38.5 -8.5t-15.5 -25.5q0 -18 17 -34t41.5 -29t52 -20.5t48.5 -7.5t49 7.5t52.5 20.5t42 29t17.5 34q0 17 -15.5 25.5t-38.5 8.5q-25 0 -40.5 -9t-26 -19.5l-18.5 -19t-20 -8.5z" />
    <glyph glyph-name="dotaccent" unicode="&#x2d9;" 
d="M297 634q0 -26 -10.5 -50.5t-28.5 -43t-42.5 -29.5t-51.5 -11q-29 0 -54 10.5t-43.5 29t-29 43t-10.5 51.5t10.5 51.5t29 43t43 29t52.5 10.5t52.5 -10.5t43 -29t29 -43t10.5 -51.5zM134 580q16 0 31.5 6.5t26.5 18t18 27t7 32.5t-6.5 32.5t-18 27t-27 18t-33.5 6.5
t-33.5 -6.5t-27 -18t-18 -27t-6.5 -32.5q0 -35 25 -59.5t62 -24.5z" />
    <glyph glyph-name="dieresis" unicode="&#xa8;" 
d="M364 647q0 -26 -10 -47.5t-27 -37t-38.5 -24.5t-45.5 -9q-23 0 -44 8.5t-38 22.5q-34 -31 -81 -31q-24 0 -46 9.5t-38.5 25.5t-26.5 37.5t-10 46.5t10 46.5t26.5 37.5t38.5 25t46 9q23 0 43.5 -8.5t37.5 -22.5q17 14 38 22.5t44 8.5q24 0 46 -9t38.5 -25t26.5 -38t10 -47
zM284 677q0 29 -21 49t-50 20t-50 -19.5t-21 -48.5t21 -49t50 -20q28 0 49.5 19.5t21.5 48.5zM120 677q0 29 -20.5 49t-49.5 20t-50 -19.5t-21 -48.5t21 -49t50 -20q28 0 49 19.5t21 48.5z" />
    <glyph glyph-name="ring" unicode="&#x2da;" 
d="M164 529q-31 0 -56.5 12t-44 31t-28.5 43t-10 48q0 25 10.5 48.5t29 41.5t44 28.5t55.5 10.5t55.5 -11t44 -29t29 -41.5t10.5 -48.5t-10.5 -49t-29 -42.5t-44 -30t-55.5 -11.5zM134 609q19 0 35.5 7t28.5 18.5t18.5 26.5t6.5 31q0 32 -25 56t-64 24t-64 -24t-25 -55
q0 -15 6.5 -30t18 -27t28 -19.5t36.5 -7.5zM109 692q0 11 7.5 18t17.5 7q11 0 18.5 -8t7.5 -17q0 -4 -1 -6q-7 -2 -12 -7t-7 -11q-2 -1 -6 -1q-9 0 -17 7t-8 18z" />
    <glyph glyph-name="cedilla" unicode="&#xb8;" 
d="M-2 -120q0 24 11 41q-2 8 -3.5 16t-1.5 19q0 25 15 50t38 44.5t49.5 32t49.5 12.5q38 0 59 -21.5t21 -50.5q0 -4 -0.5 -6.5t-0.5 -5.5q16 -5 30.5 -13t25.5 -21t18 -31.5t7 -44.5q0 -27 -9.5 -50.5t-28 -41.5t-46.5 -28.5t-64 -10.5q-27 0 -57 7.5t-55 22t-41.5 34.5
t-16.5 46zM128 -47q14 0 19 -8.5t5 -16.5q0 -17 -12 -24.5t-24 -7.5t-21.5 6t-18 13t-17 13t-17.5 6t-16.5 -6.5t-7.5 -17.5q0 -14 11.5 -25t29.5 -19t39 -12t40 -4q48 0 73 24t25 57q0 24 -11.5 37.5t-28 20.5t-34.5 9t-31 2q-7 0 -8 4q0 4 5 9.5t11.5 12t11.5 13t5 14.5
q0 9 -8 15.5t-22 6.5q-15 0 -33 -8t-33.5 -20.5t-25.5 -28.5t-10 -32q0 -23 19 -28.5t44 -5.5q12 0 24.5 0.5t16.5 0.5z" />
    <glyph glyph-name="hungarumlaut" unicode="&#x2dd;" 
d="M-123 639q0 34 21.5 65t53 54t68 37t65.5 14q32 0 57.5 -12t39.5 -35q31 21 64 33.5t60 12.5q46 0 79 -26.5t33 -75.5q0 -36 -24.5 -67t-59 -53t-71 -34.5t-60.5 -12.5q-31 0 -54 12.5t-36 34.5q-35 -23 -72 -35t-61 -12q-47 0 -75 28t-28 72zM-103 669q0 -22 14.5 -36
t38.5 -14q18 0 46.5 8.5t55.5 24t46.5 37t19.5 47.5t-18.5 39.5t-44.5 13.5q-22 0 -49.5 -10t-51.5 -26.5t-40.5 -38t-16.5 -45.5zM119 669q0 -22 15 -36t39 -14q18 0 46.5 8.5t54.5 24.5t45 37t19 47q0 25 -18 38.5t-44 13.5q-22 0 -49 -9.5t-51 -26t-40.5 -38t-16.5 -45.5
z" />
    <glyph glyph-name="ogonek" unicode="&#x2db;" 
d="M232 -24q21 0 35.5 -15.5t16.5 -42.5q0 -15 -10 -28q19 -8 31.5 -24.5t12.5 -46.5q0 -29 -17 -48t-40.5 -30.5t-49 -16t-41.5 -4.5q-25 0 -52.5 8t-51 24.5t-38.5 41t-15 56.5q0 25 11.5 47.5t29.5 40t39 28t41 10.5h98zM104 -44q-11 -7 -23.5 -13.5t-23 -15t-17.5 -20
t-7 -27.5q0 -20 10.5 -35t26 -25t34.5 -15t36 -5q11 0 27.5 2.5t32.5 8t27 15t11 23.5q0 18 -16.5 24t-37 9t-37 7t-16.5 17q0 9 8 16.5t19.5 12.5t24 8.5t21.5 4.5l-2 8h-98z" />
    <glyph glyph-name="caron" unicode="&#x2c7;" 
d="M406 688q0 -38 -27 -68t-65.5 -50.5t-80.5 -31.5t-72 -11t-72 11t-80 31.5t-64.5 50.5t-26.5 68q0 19 6 37.5t19.5 33.5t36.5 24t56 9q52 0 80 -21t45 -46q17 24 46.5 45.5t80.5 21.5q33 0 55.5 -9t36.5 -24t20 -33.5t6 -37.5zM326 718q0 20 -15 37t-53 17
q-35 0 -54.5 -14.5t-31.5 -31.5t-20.5 -31.5t-19.5 -14.5q-12 0 -20 14.5t-20 31.5t-32 31.5t-54 14.5q-38 0 -53 -17t-15 -37q0 -26 21 -47t51.5 -35t63.5 -21.5t57 -7.5t57.5 7.5t64 21.5t52 35t21.5 47z" />
    <glyph glyph-name="Oslash" unicode="&#xd8;" horiz-adv-x="791" 
d="M376 -114q-58 0 -117.5 19t-112.5 53l-21 -34t-25 -30.5t-31.5 -21.5t-39.5 -8q-24 0 -47.5 10.5t-42 28t-29.5 41t-11 49.5q0 23 8.5 40.5t22.5 31.5t32 25l36 22q-20 38 -31 79t-11 88q0 80 36 154t94.5 130.5t132.5 90t151 33.5q50 0 103 -13.5t101 -39.5l23.5 38.5
t25.5 32.5t31 22t40 8q24 0 47.5 -10.5t41.5 -28.5t29.5 -41.5t11.5 -48.5q0 -21 -7.5 -38.5t-20.5 -31.5t-29 -25t-34 -21q27 -42 43 -91t16 -106q0 -86 -36.5 -160.5t-95 -129.5t-133.5 -86t-151 -31zM342 -25q66 0 131 27t116 74.5t82.5 111.5t31.5 139q0 64 -23 117
t-61 95q12 10 31.5 20t38 21.5t32.5 26t14 33.5q0 13 -6.5 26.5t-17 24t-24 17t-27.5 6.5q-20 0 -34 -14t-25.5 -33.5t-22 -40t-22.5 -33.5q-51 35 -108 54t-112 19q-67 0 -131.5 -29t-115 -78t-81.5 -113t-31 -133q0 -52 17 -98t46 -85q-12 -11 -32 -21.5t-39.5 -22
t-34 -26t-14.5 -33.5q0 -14 6 -27t16.5 -23.5t24 -17t28.5 -6.5q19 0 33.5 13.5t25.5 32.5t21.5 39t22.5 33q53 -45 117 -70.5t127 -25.5zM478 324q0 -37 -7.5 -77t-24 -73t-41.5 -54t-60 -21q-33 0 -59 18.5t-44 49t-28 70t-10 80.5q0 32 7.5 71.5t23.5 74t40.5 57.5
t58.5 23q31 0 57.5 -19.5t46 -50.5t30 -70.5t10.5 -78.5zM457 290q0 30 -6.5 59t-18.5 52.5t-28.5 38t-35.5 14.5q-20 0 -34 -17.5t-23 -43.5t-13.5 -56t-4.5 -54q0 -31 6 -60t17 -52t27 -37t36 -14q21 0 35.5 16t24 41t14 55t4.5 58z" />
    <glyph glyph-name="OE" unicode="&#x152;" horiz-adv-x="1367" 
d="M341 -25q69 0 135 28t117 79q-6 -17 -6 -34q0 -39 25.5 -61t61.5 -32t75 -12t67 -2q46 0 95 1t94.5 7.5t86 20.5t71 39.5t48 64.5t17.5 96q0 43 -12.5 72.5t-44.5 29.5q-21 0 -33 -12.5t-21 -31.5t-18 -41t-23.5 -41t-37.5 -31.5t-60 -12.5q-15 0 -37.5 3.5t-43.5 16
t-36 36t-15 63.5q0 38 13 50.5t30 12.5q12 0 22.5 -3.5t21 -7.5l20.5 -7.5t20 -3.5q14 0 24.5 7.5t17 18.5t10 24.5t3.5 24.5t-3 24t-9 24t-16 18.5t-24 7.5q-11 0 -22 -4t-21.5 -9t-21 -9t-20.5 -4q-19 0 -28 15t-9 41q0 13 3 30.5t11 33.5t23 26.5t38 10.5q22 0 47 -9
l52 -19.5t54.5 -19t53.5 -8.5q38 0 51 20.5t13 54.5q0 46 -15.5 77.5t-42 51.5t-60.5 31.5t-72 16.5t-77 6t-74 1q-29 0 -74.5 -2.5t-89.5 -14.5t-75.5 -36.5t-31.5 -67.5q0 -31 16.5 -57.5l37.5 -57.5q-27 37 -63.5 66.5t-77 49.5t-83.5 30.5t-83 10.5q-67 0 -131.5 -29
t-115 -78t-81.5 -113t-31 -133q0 -73 33.5 -135t86.5 -107t118 -70.5t127 -25.5zM477 324q0 -37 -7.5 -77t-24 -73t-41.5 -54t-60 -21q-33 0 -59 18.5t-44 49t-28 70t-10 80.5q0 32 7.5 71.5t23.5 74t40.5 57.5t58.5 23q31 0 57.5 -19.5t46 -50.5t30 -70.5t10.5 -78.5z
M375 -114q-71 0 -145.5 25.5t-135.5 75t-100 123t-39 168.5q0 91 31 166.5t86 129.5t131 83.5t165 29.5q51 0 103.5 -13t102.5 -38q15 46 54.5 72t88 39t96.5 16t80 3q41 0 86.5 -1t89.5 -8t83.5 -21.5t70 -41t48.5 -67.5t18 -101q0 -28 -5 -51.5t-18.5 -41t-36 -27
t-56.5 -9.5q-28 0 -54.5 8.5t-52.5 19t-51 19.5t-49 9q-14 0 -18 -13.5t-5 -25.5q34 16 63 16q46 0 78.5 -33t32.5 -94q0 -19 -6.5 -42t-20 -42.5t-34 -32.5t-49.5 -13q-20 0 -38 7.5t-38 12.5q2 -7 4 -19t8.5 -23t19.5 -19.5t37 -8.5q31 0 49 12.5t30 31.5t20.5 41t21 41
t31.5 31.5t52 12.5q31 0 53 -12t35 -33t19 -50.5t6 -63.5q0 -70 -20 -118.5t-55 -79.5t-81 -48t-98 -25t-106.5 -9.5t-106.5 -1.5q-26 0 -64.5 2t-77.5 10.5t-73 26.5t-53 51q-48 -27 -100.5 -41.5t-106.5 -14.5zM456 289q0 23 -6.5 52t-18 54t-27.5 42t-35 17
q-20 0 -34.5 -19t-24 -46t-14 -56t-4.5 -48q0 -23 6 -52t17 -54t26.5 -42t35.5 -17q21 0 36 19.5t24.5 46.5t14 56t4.5 47z" />
    <glyph glyph-name="ae" unicode="&#xe6;" horiz-adv-x="1117" 
d="M-7 355q0 -20 19 -33.5t40 -13.5q17 0 35 8.5t36.5 19t36.5 19t35 8.5t32.5 -8.5t27 -20.5t18.5 -25.5t7 -22.5q0 -7 -4 -11t-9 -5.5t-9 -2t-5 -0.5q-42 0 -68 6t-50 6q-27 0 -52 -10.5t-45 -29.5t-32 -44.5t-12 -55.5q0 -37 17.5 -60t42.5 -36t52 -17.5t46 -4.5
q34 0 55.5 10t36.5 22l26.5 22t24.5 10q9 0 13.5 -4t6.5 -9t2.5 -9.5t0.5 -5.5q0 -30 13.5 -49.5t34 -30.5t43.5 -15t41 -4q31 0 64.5 11t49.5 39q44 -19 89 -28.5t83 -9.5q39 0 72.5 7.5t58.5 24t39.5 42.5t14.5 64q0 12 -3 19.5t-15 7.5q-14 0 -36 -9l-49 -19.5t-57 -19.5
t-59 -9q-27 0 -45.5 12t-30 28.5t-16 34t-4.5 29.5t4.5 25t13.5 23t21 16.5t27 6.5q23 0 50 -5t55.5 -11.5t57.5 -11.5t56 -5q39 0 63 15.5t24 57.5q0 49 -31 81.5t-75 52t-93 28t-85 8.5q-54 0 -108 -20.5t-96 -56.5q-16 38 -49 62t-94 24q-12 0 -43.5 -2.5t-70.5 -8
t-81.5 -15t-78 -22.5t-58 -30t-22.5 -39zM374 486q61 0 100.5 -14.5t63.5 -40.5q44 26 92 39t96 13q43 0 100.5 -11t110 -36.5t89 -68t36.5 -106.5q0 -53 -21 -80.5t-58 -37.5q14 -11 18 -27.5t4 -39.5q0 -52 -18.5 -88.5t-50.5 -59t-75.5 -32.5t-92.5 -10q-34 0 -73.5 7.5
t-81.5 21.5q-27 -23 -63 -32t-68 -9q-22 0 -48.5 4.5t-52 16t-46.5 31.5t-30 52q-20 -16 -48.5 -28.5t-71.5 -12.5q-26 0 -62.5 7t-69.5 25.5t-56 51t-23 84.5q0 42 15 75t40 59q-26 16 -41.5 41.5t-15.5 52.5q0 34 26 59t66.5 42t89 27t93 15.5t79.5 7.5t48 2zM756 337
q0 -12 -8.5 -18.5t-20 -10t-24 -4.5t-19.5 -1q-9 0 -19.5 1t-19.5 5t-15 10.5t-6 18.5q0 22 19.5 37.5t41.5 15.5q12 0 24.5 -4.5t23 -12t17 -17.5t6.5 -20zM734 98q18 0 35.5 4.5t34 11l33 13.5t34.5 12q-20 3 -39 7t-38 9l-48.5 9.5t-41.5 4.5q-6 0 -10 -6t-4 -13
q0 -6 2 -15t7.5 -17t14 -14t20.5 -6zM211 171q0 14 11 23t26 14t30.5 6.5t23.5 1.5t11.5 -2.5t3.5 -10.5q0 -9 -4 -22t-11.5 -25.5t-18 -21t-24.5 -8.5q-18 0 -33 14t-15 31z" />
    <glyph glyph-name="oslash" unicode="&#xf8;" horiz-adv-x="703" 
d="M319 -104q-35 0 -69 5.5t-69 18.5l-20.5 -37.5t-24.5 -33t-32.5 -23.5t-43.5 -9t-48 11t-40.5 29t-28 40.5t-10.5 46.5q0 21 6 37t16.5 29t24 22.5t28.5 17.5q-17 28 -27 61.5t-10 71.5q0 67 31 124.5t80 100t109 66.5t119 24q66 0 139 -31q9 19 20 37t25 32.5t32.5 23.5
t43.5 9q24 0 47 -11t41 -29t29 -40.5t11 -45.5q0 -44 -25 -69.5t-55 -41.5q23 -33 36 -71.5t13 -81.5q0 -69 -33 -122t-84 -89t-112.5 -54t-118.5 -18zM287 -20q49 0 101 15t95.5 44t71.5 72t28 100q0 50 -21.5 92.5t-56.5 76.5q12 9 30.5 17.5t36 19.5t30 24.5t12.5 33.5
q0 13 -6.5 26.5t-17 24t-24.5 17t-28 6.5q-21 0 -35 -13.5t-25 -32.5t-20.5 -39t-20.5 -33q-38 23 -79.5 35t-79.5 12q-50 0 -101 -20t-92 -55.5t-67.5 -83.5t-26.5 -104q0 -47 18 -84t48 -65q-12 -9 -29.5 -17t-34 -18t-28.5 -23t-12 -32q0 -14 6 -27.5t16.5 -24t24 -17
t28.5 -6.5q19 0 33 13t25.5 31.5t21.5 38.5t21 33q38 -18 79 -27.5t79 -9.5zM360 213q0 -15 -4.5 -34t-13.5 -35.5t-23 -28t-33 -11.5q-21 0 -35.5 13t-23.5 32.5t-13 41t-4 38.5t4 39.5t12 42t20.5 33t30.5 13.5q19 0 34.5 -15.5t26 -38t16.5 -47.5t6 -43zM340 181
q0 12 -2 27.5t-6 30t-10 24.5t-13 10q-4 0 -7 -8t-4.5 -20t-2.5 -25t-1 -23t1 -22.5t4 -24t7.5 -19t11.5 -7.5q6 0 10 6t6.5 14.5t4 18.5t1.5 18z" />
    <glyph glyph-name="oe" unicode="&#x153;" horiz-adv-x="1183" 
d="M290 -20q63 0 129 24t111 72q27 -27 61 -47t71 -33t73 -19.5t67 -6.5q39 0 72.5 7.5t58.5 24t39.5 42.5t14.5 64q0 12 -3 19.5t-15 7.5q-14 0 -36 -9l-49 -19.5t-57 -19.5t-59 -9q-27 0 -45.5 12t-30 28.5t-16 34t-4.5 29.5t4.5 25t13.5 23t21 16.5t27 6.5q23 0 50 -5
t55.5 -11.5t57.5 -11.5t56 -5q39 0 63 15.5t24 57.5q0 49 -31 81.5t-75 52t-93 28t-85 8.5q-32 0 -64 -7t-62.5 -20.5t-58 -33t-48.5 -43.5q-23 27 -53 49t-62.5 37.5t-66 24t-64.5 8.5q-50 0 -101 -20t-92 -55.5t-67.5 -83.5t-26.5 -104q0 -58 28 -102t71.5 -73.5
t95.5 -44.5t101 -15zM322 -104q-57 0 -118.5 18t-112.5 54t-84 89t-33 124q0 69 31 127t80 100t109 66t118 24q60 0 126.5 -25.5t120.5 -72.5q50 40 111 61.5t122 21.5q43 0 100.5 -11t110 -36.5t89 -68t36.5 -106.5q0 -53 -21 -80.5t-58 -37.5q14 -11 18 -27.5t4 -39.5
q0 -52 -18.5 -88.5t-50.5 -59t-75.5 -32.5t-92.5 -10q-30 0 -64.5 5.5t-70 16.5t-70.5 27.5t-66 39.5q-52 -39 -116.5 -59t-124.5 -20zM822 337q0 -12 -8.5 -18.5t-20 -10t-24 -4.5t-19.5 -1q-9 0 -19.5 1t-19.5 5t-15 10.5t-6 18.5q0 22 19.5 37.5t41.5 15.5
q12 0 24.5 -4.5t23 -12t17 -17.5t6.5 -20zM800 98q18 0 35.5 4.5t34 11l33 13.5t34.5 12q-20 3 -39 7t-38 9l-48.5 9.5t-41.5 4.5q-6 0 -10 -6t-4 -13q0 -6 2 -15t7.5 -17t14 -14t20.5 -6zM363 213q0 -15 -4.5 -34t-13.5 -35.5t-23 -28t-33 -11.5q-21 0 -35.5 13t-23.5 32.5
t-13 41t-4 38.5t4 39.5t12 42t20.5 33t30.5 13.5q19 0 34.5 -15.5t26 -38t16.5 -47.5t6 -43zM343 182q0 10 -2.5 26t-6 30t-9 24.5t-11.5 10.5q-5 0 -8.5 -8.5t-5.5 -20t-2.5 -24t-0.5 -20.5q0 -11 1 -24t4 -24.5t7.5 -19.5t11.5 -8q6 0 10 6t6.5 15t4 19t1.5 18z" />
    <glyph glyph-name="germandbls" unicode="&#xdf;" horiz-adv-x="674" 
d="M-39 3q0 28 9 48t19.5 39.5t19.5 40.5t9 50q0 16 -2.5 31.5l-5.5 33.5t-5.5 39.5t-2.5 47.5q0 78 24.5 136t65.5 96t95.5 56.5t114.5 18.5q19 0 53 -2.5t73.5 -9.5t80.5 -19.5t74.5 -33.5t54.5 -50.5t21 -69.5q0 -35 -14 -56t-31 -35l-31 -25.5t-14 -26.5q0 -19 22 -31.5
t48.5 -29.5t48.5 -42.5t22 -69.5q0 -36 -16 -65t-42 -52.5t-59.5 -40.5t-68 -28t-68 -16.5t-59.5 -5.5q-36 0 -62 9.5t-41 25.5q-21 -22 -47 -38t-53 -26t-52.5 -14.5t-45.5 -4.5q-27 0 -51.5 8t-43 23t-29.5 37.5t-11 51.5zM-18 41q0 -35 24.5 -52t57.5 -17q23 0 56 8.5
t63.5 27t52 48.5t21.5 72q0 21 -5.5 51l-11.5 61l-11.5 60t-5.5 49q0 22 7 48t18.5 48t26.5 36.5t30 14.5t32.5 -13t17.5 -33q0 -15 -11.5 -19.5t-25 -10.5t-24.5 -20t-11 -49q0 -30 8.5 -48.5t22 -30.5t28.5 -19t28.5 -14t22 -16.5t8.5 -25.5q0 -24 -17 -44t-37 -37.5
l-37 -33t-17 -29.5q0 -13 17 -23t55 -10q21 0 48 4t55.5 12t56 21t49 30.5t34.5 40.5t13 51q0 25 -10.5 41.5t-26 28t-34 20t-34 18t-26 23t-10.5 34.5q0 25 14 39.5t31 27.5t31 29t14 44q0 30 -18 52t-46 37t-62.5 24t-68.5 14t-63.5 6.5t-46.5 1.5q-42 0 -79.5 -8.5
t-67.5 -30.5t-52 -60t-35 -97q-3 -14 -5.5 -31t-2.5 -34q0 -35 8 -72.5t8 -75.5q0 -36 -9 -59t-19.5 -40t-19.5 -33t-9 -37zM379 160q-3 4 -8 8q-5 3 -13 6t-22 4q7 -31 8 -55q12 11 20 19t15 18z" />
    <glyph glyph-name="logicalnot" unicode="&#xac;" horiz-adv-x="1000" 
d="M771 -26q-29 0 -56.5 6t-49 21t-34.5 40.5t-13 64.5q0 34 7.5 69t7.5 70q0 24 -8 36t-34 12q-34 0 -77 -17t-88 -38l-64.5 -29.5t-61.5 -23.5t-62.5 -15.5t-67.5 -5.5q-37 0 -61.5 7t-39 22t-20.5 39.5t-6 60.5q0 65 17 110t46.5 74t69 45t84 23t91.5 8.5t93 1.5
q102 0 195 -19.5t164.5 -63t113.5 -113.5t42 -172q0 -66 -17 -107.5t-44 -65t-60.5 -32t-66.5 -8.5zM737 63q23 0 47 6.5t43 24t31 48.5t12 80q0 86 -37.5 145.5t-101 96.5t-147 53.5t-174.5 16.5q-38 0 -78.5 -1t-79 -6.5t-73 -18t-60 -35t-40.5 -57.5t-15 -85
q0 -45 16 -61.5t60 -16.5q59 0 113.5 20t106.5 44.5t101.5 44.5t99.5 20q28 0 46 -7.5t28.5 -21t14.5 -32t4 -40.5q0 -40 -7.5 -78t-7.5 -63q0 -23 8.5 -37.5t22 -23.5t31.5 -12.5t36 -3.5z" />
    </font>
</defs>
</svg>
